<svg width="529" height="265" viewBox="0 0 529 265" fill="none" xmlns="http://www.w3.org/2000/svg">
<ellipse cx="152.353" cy="148.766" rx="53.3534" ry="10.3599" fill="#494949" fill-opacity="0.3"/>
<circle cx="114.794" cy="72.6372" r="14.1372" fill="white" stroke="#0047FF" stroke-width="3"/>
<circle cx="165.056" cy="99.9407" r="33.1423" fill="white" stroke="#0047FF" stroke-width="3"/>
<circle cx="170.393" cy="134.322" r="14.1372" fill="white" stroke="#0047FF" stroke-width="3"/>
<mask id="path-5-inside-1_407_2" fill="white">
<ellipse cx="145.871" cy="82.3862" rx="2.79103" ry="9.77883" transform="rotate(29.6795 145.871 82.3862)"/>
</mask>
<ellipse cx="145.871" cy="82.3862" rx="2.79103" ry="9.77883" transform="rotate(29.6795 145.871 82.3862)" fill="#0047FF"/>
<path d="M145.689 82.2827C144.45 84.4576 143.128 86.1843 142.063 87.2272C141.515 87.7635 141.159 87.9962 141.024 88.0632C140.774 88.1865 141.525 87.7119 142.514 88.2757L139.543 93.4886C141.202 94.434 142.862 93.8475 143.683 93.4417C144.618 92.9795 145.493 92.2658 146.26 91.5147C147.825 89.9828 149.468 87.771 150.902 85.2536L145.689 82.2827ZM142.514 88.2757C143.504 88.8395 143.478 89.7274 143.457 89.45C143.446 89.2992 143.464 88.8742 143.646 88.1296C144.001 86.6816 144.813 84.6645 146.052 82.4897L140.84 79.5188C139.405 82.0361 138.339 84.5764 137.818 86.7035C137.563 87.7464 137.395 88.8634 137.474 89.9032C137.543 90.8163 137.885 92.5432 139.543 93.4886L142.514 88.2757ZM146.052 82.4897C147.292 80.3148 148.613 78.5881 149.679 77.5452C150.226 77.0089 150.583 76.7762 150.718 76.7092C150.967 76.5859 150.217 77.0605 149.227 76.4967L152.198 71.2838C150.539 70.3384 148.88 70.9249 148.059 71.3308C147.124 71.7929 146.249 72.5066 145.481 73.2577C143.917 74.7896 142.274 77.0015 140.84 79.5188L146.052 82.4897ZM149.227 76.4967C148.238 75.9329 148.264 75.045 148.285 75.3225C148.296 75.4732 148.277 75.8982 148.095 76.6428C147.741 78.0908 146.929 80.1079 145.689 82.2827L150.902 85.2536C152.337 82.7363 153.403 80.196 153.923 78.0689C154.179 77.026 154.346 75.909 154.268 74.8692C154.198 73.9562 153.857 72.2292 152.198 71.2838L149.227 76.4967Z" fill="#0047FF" mask="url(#path-5-inside-1_407_2)"/>
<path d="M161.499 89.8289C160.424 92.0915 158.993 93.8399 157.618 94.8615C156.183 95.9277 155.158 95.9825 154.609 95.7217C154.06 95.4609 153.455 94.6319 153.375 92.8461C153.298 91.1349 153.749 88.9209 154.823 86.6583C155.898 84.3957 157.329 82.6473 158.704 81.6256C160.139 80.5595 161.164 80.5046 161.713 80.7654C162.262 81.0262 162.867 81.8553 162.947 83.641C163.024 85.3523 162.573 87.5663 161.499 89.8289Z" fill="#0047FF" stroke="#0047FF" stroke-width="3"/>
<ellipse cx="294.353" cy="139.128" rx="53.3534" ry="10.3599" fill="#494949" fill-opacity="0.3"/>
<circle cx="256.793" cy="62.9995" r="14.1372" fill="white" stroke="#0047FF" stroke-width="3"/>
<circle cx="307.056" cy="90.303" r="33.1423" fill="white" stroke="#0047FF" stroke-width="3"/>
<circle cx="312.393" cy="124.685" r="14.1372" fill="white" stroke="#0047FF" stroke-width="3"/>
<mask id="path-12-inside-2_407_2" fill="white">
<ellipse cx="287.871" cy="72.7485" rx="2.79103" ry="9.77883" transform="rotate(29.6795 287.871 72.7485)"/>
</mask>
<ellipse cx="287.871" cy="72.7485" rx="2.79103" ry="9.77883" transform="rotate(29.6795 287.871 72.7485)" fill="#0047FF"/>
<path d="M287.689 72.645C286.45 74.8199 285.128 76.5466 284.063 77.5895C283.515 78.1258 283.159 78.3585 283.024 78.4255C282.774 78.5488 283.525 78.0742 284.514 78.638L281.543 83.8509C283.202 84.7963 284.862 84.2098 285.683 83.804C286.618 83.3418 287.493 82.6281 288.26 81.877C289.825 80.3451 291.467 78.1333 292.902 75.6159L287.689 72.645ZM284.514 78.638C285.503 79.2018 285.478 80.0897 285.457 79.8123C285.445 79.6615 285.464 79.2365 285.646 78.4919C286.001 77.0439 286.813 75.0268 288.052 72.852L282.839 69.8811C281.405 72.3984 280.339 74.9387 279.818 77.0658C279.563 78.1087 279.395 79.2257 279.474 80.2655C279.543 81.1786 279.884 82.9055 281.543 83.8509L284.514 78.638ZM288.052 72.852C289.292 70.6771 290.613 68.9504 291.679 67.9075C292.226 67.3712 292.582 67.1385 292.718 67.0716C292.967 66.9482 292.217 67.4228 291.227 66.859L294.198 61.6462C292.539 60.7007 290.88 61.2872 290.059 61.6931C289.124 62.1552 288.248 62.8689 287.481 63.62C285.916 65.1519 284.274 67.3638 282.839 69.8811L288.052 72.852ZM291.227 66.859C290.238 66.2952 290.264 65.4073 290.285 65.6848C290.296 65.8355 290.277 66.2605 290.095 67.0051C289.741 68.4531 288.929 70.4702 287.689 72.645L292.902 75.6159C294.337 73.0986 295.403 70.5583 295.923 68.4312C296.178 67.3883 296.346 66.2713 296.268 65.2316C296.198 64.3185 295.857 62.5916 294.198 61.6462L291.227 66.859Z" fill="#0047FF" mask="url(#path-12-inside-2_407_2)"/>
<path d="M303.499 80.1912C302.424 82.4538 300.993 84.2022 299.618 85.2238C298.183 86.29 297.158 86.3448 296.609 86.084C296.06 85.8232 295.455 84.9942 295.375 83.2084C295.298 81.4972 295.749 79.2832 296.823 77.0206C297.898 74.758 299.329 73.0096 300.704 71.9879C302.139 70.9218 303.164 70.8669 303.713 71.1277C304.262 71.3885 304.867 72.2176 304.947 74.0033C305.024 75.7146 304.573 77.9286 303.499 80.1912Z" fill="#0047FF" stroke="#0047FF" stroke-width="3"/>
<ellipse cx="262.353" cy="253.766" rx="53.3534" ry="10.3599" fill="#494949" fill-opacity="0.3"/>
<circle cx="224.793" cy="177.637" r="14.1372" fill="white" stroke="#0047FF" stroke-width="3"/>
<circle cx="275.056" cy="204.941" r="33.1423" fill="white" stroke="#0047FF" stroke-width="3"/>
<circle cx="280.393" cy="239.322" r="14.1372" fill="white" stroke="#0047FF" stroke-width="3"/>
<mask id="path-19-inside-3_407_2" fill="white">
<ellipse cx="255.871" cy="187.386" rx="2.79103" ry="9.77883" transform="rotate(29.6795 255.871 187.386)"/>
</mask>
<ellipse cx="255.871" cy="187.386" rx="2.79103" ry="9.77883" transform="rotate(29.6795 255.871 187.386)" fill="#0047FF"/>
<path d="M255.689 187.283C254.45 189.458 253.128 191.184 252.063 192.227C251.515 192.763 251.159 192.996 251.024 193.063C250.774 193.186 251.525 192.712 252.514 193.276L249.543 198.489C251.202 199.434 252.862 198.848 253.683 198.442C254.618 197.979 255.493 197.266 256.26 196.515C257.825 194.983 259.467 192.771 260.902 190.254L255.689 187.283ZM252.514 193.276C253.503 193.839 253.478 194.727 253.457 194.45C253.445 194.299 253.464 193.874 253.646 193.13C254.001 191.682 254.813 189.665 256.052 187.49L250.839 184.519C249.405 187.036 248.339 189.576 247.818 191.703C247.563 192.746 247.395 193.863 247.474 194.903C247.543 195.816 247.884 197.543 249.543 198.489L252.514 193.276ZM256.052 187.49C257.292 185.315 258.613 183.588 259.679 182.545C260.226 182.009 260.582 181.776 260.718 181.709C260.967 181.586 260.217 182.06 259.227 181.497L262.198 176.284C260.539 175.338 258.88 175.925 258.059 176.331C257.124 176.793 256.248 177.507 255.481 178.258C253.916 179.79 252.274 182.001 250.839 184.519L256.052 187.49ZM259.227 181.497C258.238 180.933 258.264 180.045 258.285 180.322C258.296 180.473 258.277 180.898 258.095 181.643C257.741 183.091 256.929 185.108 255.689 187.283L260.902 190.254C262.337 187.736 263.403 185.196 263.923 183.069C264.178 182.026 264.346 180.909 264.268 179.869C264.198 178.956 263.857 177.229 262.198 176.284L259.227 181.497Z" fill="#0047FF" mask="url(#path-19-inside-3_407_2)"/>
<path d="M271.499 194.829C270.424 197.091 268.993 198.84 267.618 199.862C266.183 200.928 265.158 200.983 264.609 200.722C264.06 200.461 263.455 199.632 263.375 197.846C263.298 196.135 263.749 193.921 264.823 191.658C265.898 189.396 267.329 187.647 268.704 186.626C270.139 185.559 271.164 185.505 271.713 185.765C272.262 186.026 272.867 186.855 272.947 188.641C273.024 190.352 272.573 192.566 271.499 194.829Z" fill="#0047FF" stroke="#0047FF" stroke-width="3"/>
<path d="M269.913 18.2041C269.136 17.9131 268.486 17.5026 267.962 16.9728C267.441 16.4376 267.098 15.8209 266.935 15.1227C266.774 14.4192 266.843 13.6684 267.142 12.8703C267.405 12.1679 267.757 11.6505 268.197 11.3178C268.639 10.9799 269.138 10.7726 269.695 10.6959C270.252 10.6193 270.832 10.6244 271.437 10.7114C272.048 10.795 272.653 10.9062 273.25 11.045C274.031 11.2283 274.662 11.3827 275.143 11.5083C275.631 11.6305 276.004 11.6703 276.263 11.6276C276.527 11.587 276.716 11.415 276.829 11.1117L276.853 11.0479C277.148 10.2604 277.162 9.56783 276.894 8.97006C276.632 8.3743 276.068 7.91395 275.2 7.58902C274.301 7.25213 273.522 7.18487 272.864 7.38723C272.206 7.58959 271.689 7.87536 271.314 8.24455L269.766 6.93628C270.364 6.311 271.007 5.89052 271.694 5.67485C272.389 5.45586 273.084 5.3825 273.779 5.45478C274.481 5.52373 275.141 5.67382 275.758 5.90506C276.152 6.05257 276.586 6.2699 277.061 6.55704C277.544 6.84085 277.97 7.21612 278.341 7.68284C278.718 8.15156 278.957 8.7357 279.059 9.43525C279.161 10.1348 279.03 10.9714 278.665 11.9451L275.639 20.0219L273.755 19.3162L274.377 17.6561L274.282 17.6203C274.054 17.8384 273.735 18.0434 273.323 18.235C272.912 18.4267 272.418 18.5362 271.844 18.5636C271.269 18.5911 270.626 18.4712 269.913 18.2041ZM270.834 16.6198C271.579 16.8989 272.261 16.9878 272.882 16.8865C273.508 16.7872 274.038 16.555 274.472 16.1898C274.911 15.8265 275.227 15.3895 275.418 14.8788L276.064 13.1549C275.948 13.2207 275.74 13.2427 275.438 13.2209C275.144 13.1957 274.811 13.1466 274.438 13.0736C274.072 12.9972 273.716 12.9185 273.37 12.8375C273.032 12.7531 272.757 12.6864 272.544 12.6372C272.031 12.5177 271.535 12.45 271.055 12.4342C270.583 12.415 270.164 12.4976 269.797 12.6819C269.438 12.8629 269.169 13.1928 268.99 13.6717C268.744 14.3261 268.801 14.9117 269.16 15.4283C269.526 15.9415 270.084 16.3387 270.834 16.6198ZM283.961 23.4311C282.812 23.0005 281.924 22.3584 281.297 21.5047C280.671 20.651 280.312 19.6643 280.222 18.5444C280.132 17.4246 280.316 16.2528 280.775 15.029C281.241 13.784 281.881 12.771 282.696 11.99C283.518 11.2057 284.441 10.6994 285.467 10.471C286.501 10.2393 287.571 10.3307 288.678 10.7453C289.54 11.0683 290.257 11.5189 290.829 12.0973C291.401 12.6757 291.8 13.3349 292.026 14.075C292.253 14.8151 292.275 15.5882 292.095 16.3942L290.211 15.6885C290.277 15.076 290.143 14.4616 289.81 13.8453C289.484 13.2256 288.906 12.7602 288.076 12.4493C287.341 12.1742 286.626 12.1245 285.929 12.3003C285.239 12.4727 284.611 12.847 284.043 13.423C283.483 13.9958 283.029 14.7451 282.682 15.6708C282.327 16.6179 282.167 17.4984 282.202 18.3124C282.242 19.1283 282.463 19.8332 282.866 20.4269C283.274 21.0226 283.85 21.46 284.595 21.7391C285.085 21.9225 285.561 22.0038 286.024 21.9831C286.486 21.9623 286.916 21.8442 287.312 21.6286C287.709 21.413 288.049 21.1037 288.333 20.7006L290.217 21.4063C289.839 22.09 289.332 22.6431 288.694 23.0656C288.064 23.4847 287.342 23.736 286.528 23.8194C285.721 23.8994 284.866 23.77 283.961 23.4311ZM296.277 19.3446L293.514 26.719L291.631 26.0133L297.755 9.6683L299.638 10.374L297.389 16.3757L297.549 16.4355C298.074 15.91 298.693 15.5686 299.407 15.4115C300.129 15.251 300.971 15.3511 301.934 15.712C302.769 16.0249 303.438 16.4666 303.94 17.037C304.445 17.6022 304.741 18.2927 304.83 19.1086C304.926 19.9212 304.776 20.8543 304.382 21.9078L301.463 29.6972L299.58 28.9915L302.45 21.3298C302.815 20.3561 302.844 19.5085 302.538 18.7871C302.24 18.0623 301.646 17.5335 300.757 17.2006C300.14 16.9694 299.538 16.8924 298.951 16.9697C298.369 17.049 297.843 17.2859 297.374 17.6804C296.91 18.0769 296.544 18.6316 296.277 19.3446ZM309.953 33.1692C308.772 32.7267 307.851 32.0842 307.19 31.2419C306.536 30.3962 306.154 29.4157 306.043 28.3005C305.941 27.182 306.125 25.9949 306.595 24.7393C307.065 23.4836 307.709 22.4626 308.525 21.6763C309.349 20.8867 310.274 20.3777 311.3 20.1493C312.333 19.9176 313.403 20.009 314.51 20.4237C315.148 20.6629 315.739 21.0055 316.282 21.4516C316.825 21.8976 317.262 22.4558 317.593 23.126C317.926 23.7909 318.098 24.5712 318.109 25.467C318.119 26.3628 317.91 27.3826 317.481 28.5265L317.182 29.3246L307.733 25.7843L308.342 24.1562L315.877 26.9789C316.136 26.2872 316.229 25.6182 316.155 24.9718C316.087 24.3274 315.859 23.7536 315.471 23.2503C315.089 22.749 314.557 22.3708 313.876 22.1156C313.126 21.8346 312.407 21.7776 311.719 21.9447C311.039 22.1085 310.442 22.4309 309.928 22.9118C309.414 23.3928 309.031 23.9711 308.778 24.6468L308.371 25.7323C308.024 26.6581 307.89 27.5027 307.968 28.2661C308.053 29.0261 308.32 29.6814 308.769 30.2319C309.22 30.7771 309.826 31.1922 310.587 31.4773C311.082 31.6626 311.555 31.7609 312.006 31.7721C312.464 31.7799 312.892 31.6977 313.29 31.5253C313.691 31.3476 314.05 31.0759 314.369 30.71L315.998 31.9026C315.575 32.448 315.05 32.8701 314.422 33.1689C313.796 33.4623 313.102 33.6148 312.339 33.6264C311.579 33.6326 310.783 33.4802 309.953 33.1692ZM327.914 25.6276L327.316 27.2238L320.963 24.8437L321.561 23.2475L327.914 25.6276ZM324.513 21.0042L326.397 21.7099L322.019 33.394C321.82 33.9261 321.747 34.354 321.802 34.6779C321.864 34.9984 322 35.2497 322.211 35.4319C322.429 35.6107 322.677 35.7519 322.954 35.8556C323.161 35.9333 323.335 35.9865 323.476 36.015C323.619 36.0383 323.734 36.0569 323.819 36.0708L323.569 37.9063C323.423 37.9063 323.227 37.8874 322.98 37.8496C322.731 37.8171 322.431 37.7351 322.08 37.6035C321.548 37.4042 321.07 37.0944 320.645 36.6743C320.225 36.2561 319.935 35.7501 319.775 35.1563C319.621 34.5645 319.677 33.9121 319.944 33.1991L324.513 21.0042ZM331.067 41.0796C329.886 40.6371 328.964 39.9946 328.303 39.1523C327.649 38.3066 327.267 37.3261 327.157 36.211C327.054 35.0924 327.238 33.9054 327.709 32.6497C328.179 31.394 328.823 30.373 329.639 29.5867C330.463 28.7971 331.388 28.2881 332.414 28.0597C333.447 27.828 334.517 27.9194 335.624 28.3341C336.262 28.5733 336.853 28.9159 337.396 29.362C337.938 29.808 338.375 30.3662 338.707 31.0364C339.04 31.7013 339.212 32.4816 339.222 33.3774C339.232 34.2732 339.023 35.293 338.595 36.437L338.296 37.235L328.846 33.6947L329.456 32.0666L336.99 34.8893C337.249 34.1976 337.342 33.5286 337.269 32.8822C337.201 32.2379 336.973 31.664 336.585 31.1607C336.203 30.6594 335.671 30.2812 334.99 30.026C334.24 29.745 333.521 29.688 332.833 29.8551C332.153 30.0189 331.556 30.3413 331.042 30.8222C330.528 31.3032 330.144 31.8815 329.891 32.5573L329.485 33.6427C329.138 34.5685 329.003 35.4131 329.081 36.1765C329.167 36.9365 329.434 37.5918 329.883 38.1423C330.334 38.6875 330.94 39.1026 331.701 39.3877C332.196 39.573 332.668 39.6713 333.119 39.6825C333.578 39.6903 334.006 39.6081 334.404 39.4357C334.804 39.258 335.164 38.9863 335.483 38.6204L337.111 39.813C336.689 40.3584 336.163 40.7805 335.536 41.0793C334.91 41.3727 334.216 41.5252 333.453 41.5368C332.692 41.543 331.897 41.3906 331.067 41.0796ZM339.104 43.7994L343.696 31.5406L345.516 32.2224L344.822 34.074L344.95 34.1218C345.401 33.599 345.99 33.2583 346.716 33.0998C347.443 32.9413 348.174 32.9997 348.908 33.2747C349.046 33.3266 349.218 33.394 349.424 33.4771C349.629 33.5601 349.783 33.6269 349.886 33.6774L349.168 35.5929C349.11 35.553 348.973 35.4742 348.756 35.3566C348.546 35.2356 348.317 35.1283 348.067 35.0346C347.471 34.8113 346.892 34.737 346.33 34.8117C345.775 34.883 345.281 35.086 344.846 35.4206C344.418 35.7519 344.101 36.1942 343.894 36.7476L340.987 44.5051L339.104 43.7994ZM358.433 42.6318L355.67 50.0062L353.787 49.3005L358.379 37.0417L360.199 37.7235L359.481 39.6389L359.641 39.6987C360.162 39.1839 360.785 38.8472 361.512 38.6887C362.241 38.5249 363.068 38.6164 363.994 38.9633C364.824 39.2742 365.487 39.7166 365.981 40.2903C366.478 40.8588 366.771 41.551 366.86 42.3669C366.951 43.1775 366.801 44.1042 366.41 45.1471L363.491 52.9365L361.608 52.2309L364.478 44.5691C364.839 43.6061 364.87 42.7622 364.572 42.0374C364.275 41.3073 363.69 40.7788 362.817 40.4519C362.216 40.2266 361.63 40.1557 361.059 40.239C360.493 40.3242 359.981 40.5661 359.522 40.9646C359.063 41.3631 358.7 41.9188 358.433 42.6318ZM371.818 56.3473C370.711 55.9326 369.839 55.3055 369.201 54.4657C368.568 53.628 368.195 52.6479 368.082 51.5254C367.974 50.4049 368.157 49.2115 368.631 47.9452C369.11 46.6682 369.759 45.6403 370.578 44.8613C371.403 44.0843 372.33 43.588 373.357 43.3722C374.39 43.1584 375.459 43.2588 376.566 43.6735C377.673 44.0881 378.542 44.7143 379.175 45.552C379.813 46.3917 380.185 47.3745 380.291 48.5003C380.403 49.6281 380.219 50.8305 379.741 52.1075C379.266 53.3738 378.617 54.3928 377.794 55.1644C376.977 55.9381 376.052 56.4318 375.019 56.6456C373.991 56.8613 372.924 56.7619 371.818 56.3473ZM372.452 54.6553C373.292 54.9703 374.065 55.0139 374.769 54.7863C375.473 54.5586 376.087 54.1425 376.611 53.5378C377.135 52.9332 377.55 52.2212 377.857 51.4018C378.164 50.5824 378.32 49.7701 378.324 48.9647C378.329 48.1594 378.141 47.4369 377.762 46.7973C377.383 46.1577 376.773 45.6804 375.932 45.3654C375.091 45.0505 374.318 45.0095 373.612 45.2424C372.906 45.4754 372.29 45.8969 371.764 46.5068C371.238 47.1168 370.822 47.8315 370.515 48.6509C370.208 49.4702 370.053 50.2799 370.051 51.0799C370.048 51.8799 370.238 52.5971 370.619 53.2314C371 53.8657 371.611 54.3403 372.452 54.6553ZM389.947 57.1326L392.662 49.8859L394.545 50.5915L389.952 62.8503L388.069 62.1447L388.846 60.0696L388.719 60.0218C388.198 60.5366 387.553 60.8986 386.783 61.1076C386.015 61.3114 385.168 61.2398 384.242 60.8929C383.476 60.6059 382.858 60.1831 382.387 59.6247C381.919 59.0609 381.642 58.3747 381.557 57.566C381.473 56.7521 381.627 55.8237 382.018 54.7809L384.936 46.9914L386.82 47.6971L383.949 55.3588C383.614 56.2527 383.597 57.0594 383.898 57.7788C384.204 58.5002 384.748 59.0075 385.53 59.3005C385.999 59.4759 386.52 59.5346 387.094 59.4766C387.673 59.4206 388.22 59.2069 388.735 58.8357C389.256 58.4665 389.66 57.8988 389.947 57.1326ZM405.65 57.8828L403.778 57.7277C403.778 57.4058 403.723 57.073 403.615 56.7292C403.515 56.3821 403.322 56.055 403.037 55.7479C402.751 55.4407 402.335 55.1845 401.786 54.9792C401.036 54.6981 400.346 54.6368 399.717 54.7952C399.094 54.9504 398.684 55.2913 398.487 55.8181C398.312 56.2863 398.343 56.7199 398.582 57.1188C398.821 57.5177 399.268 57.9432 399.924 58.3952L401.576 59.5239C402.573 60.2006 403.237 60.9136 403.569 61.6629C403.903 62.407 403.91 63.2073 403.589 64.0639C403.326 64.7663 402.888 65.3184 402.276 65.7202C401.67 66.124 400.948 66.351 400.11 66.4012C399.272 66.4513 398.377 66.2979 397.425 65.9411C396.174 65.4727 395.241 64.8136 394.625 63.9639C394.009 63.1142 393.787 62.1271 393.96 61.0025L395.915 61.2253C395.838 61.9489 395.975 62.5643 396.325 63.0716C396.68 63.5809 397.243 63.9801 398.015 64.2691C398.893 64.598 399.659 64.6729 400.315 64.4939C400.978 64.3114 401.408 63.9569 401.605 63.4301C401.765 63.0045 401.75 62.5922 401.559 62.1932C401.371 61.789 400.995 61.3994 400.432 61.0245L398.568 59.7802C397.545 59.0935 396.875 58.3722 396.557 57.6162C396.247 56.8568 396.251 56.0541 396.568 55.2082C396.827 54.5165 397.25 53.9774 397.838 53.5908C398.431 53.2063 399.122 52.9889 399.912 52.9388C400.706 52.8907 401.535 53.0281 402.396 53.351C403.61 53.8055 404.462 54.4284 404.955 55.2196C405.452 56.0128 405.684 56.9005 405.65 57.8828Z" fill="black"/>
<path d="M251.467 130.583C250.736 130.191 250.147 129.697 249.699 129.102C249.254 128.502 248.997 127.845 248.929 127.131C248.864 126.412 249.033 125.677 249.436 124.926C249.791 124.266 250.209 123.8 250.69 123.529C251.173 123.254 251.696 123.115 252.258 123.114C252.819 123.112 253.394 123.195 253.981 123.363C254.577 123.527 255.161 123.719 255.734 123.936C256.483 124.223 257.088 124.46 257.547 124.649C258.015 124.836 258.379 124.925 258.641 124.917C258.908 124.913 259.119 124.767 259.272 124.482L259.304 124.422C259.702 123.681 259.808 122.997 259.623 122.369C259.444 121.743 258.946 121.211 258.13 120.773C257.284 120.318 256.521 120.147 255.842 120.26C255.162 120.372 254.612 120.586 254.191 120.902L252.832 119.398C253.508 118.858 254.202 118.528 254.912 118.406C255.63 118.282 256.328 118.303 257.007 118.467C257.694 118.63 258.328 118.867 258.908 119.179C259.279 119.378 259.68 119.651 260.112 120C260.552 120.346 260.925 120.775 261.23 121.287C261.54 121.802 261.699 122.413 261.706 123.12C261.714 123.827 261.471 124.638 260.979 125.554L256.898 133.152L255.126 132.201L255.965 130.639L255.875 130.59C255.62 130.776 255.276 130.936 254.843 131.071C254.409 131.206 253.906 131.248 253.333 131.199C252.76 131.149 252.138 130.944 251.467 130.583ZM252.592 129.137C253.293 129.513 253.958 129.693 254.586 129.676C255.219 129.661 255.776 129.502 256.255 129.198C256.739 128.897 257.11 128.507 257.368 128.026L258.239 126.404C258.116 126.454 257.906 126.448 257.611 126.386C257.323 126.321 256.999 126.228 256.639 126.106C256.287 125.981 255.945 125.855 255.613 125.729C255.289 125.6 255.025 125.497 254.821 125.42C254.328 125.232 253.846 125.099 253.372 125.019C252.907 124.936 252.481 124.962 252.093 125.096C251.713 125.227 251.402 125.518 251.16 125.968C250.829 126.584 250.807 127.172 251.093 127.732C251.387 128.289 251.887 128.758 252.592 129.137ZM263.381 136.983C262.65 136.59 262.061 136.096 261.613 135.501C261.168 134.901 260.911 134.244 260.843 133.53C260.778 132.811 260.947 132.076 261.35 131.326C261.705 130.665 262.123 130.199 262.603 129.928C263.087 129.653 263.609 129.514 264.171 129.513C264.733 129.512 265.308 129.595 265.895 129.762C266.49 129.927 267.074 130.118 267.648 130.335C268.397 130.622 269.001 130.859 269.461 131.048C269.928 131.235 270.293 131.324 270.555 131.317C270.822 131.312 271.032 131.167 271.185 130.881L271.218 130.821C271.616 130.08 271.722 129.396 271.537 128.768C271.357 128.142 270.859 127.61 270.043 127.172C269.197 126.718 268.435 126.547 267.755 126.659C267.076 126.771 266.525 126.985 266.104 127.301L264.745 125.797C265.422 125.257 266.115 124.927 266.826 124.805C267.544 124.681 268.242 124.702 268.921 124.867C269.608 125.029 270.241 125.266 270.822 125.578C271.192 125.777 271.594 126.051 272.026 126.399C272.466 126.745 272.838 127.174 273.144 127.686C273.454 128.201 273.613 128.812 273.62 129.519C273.627 130.226 273.385 131.037 272.893 131.953L268.812 139.551L267.04 138.6L267.878 137.038L267.788 136.99C267.534 137.175 267.19 137.336 266.756 137.47C266.323 137.605 265.819 137.648 265.246 137.598C264.673 137.548 264.051 137.343 263.381 136.983ZM264.506 135.536C265.207 135.912 265.871 136.092 266.5 136.075C267.133 136.06 267.689 135.901 268.168 135.598C268.653 135.296 269.024 134.906 269.282 134.425L270.153 132.803C270.03 132.853 269.82 132.847 269.524 132.785C269.236 132.721 268.913 132.627 268.553 132.505C268.2 132.38 267.858 132.255 267.526 132.128C267.202 131.999 266.938 131.896 266.735 131.819C266.242 131.631 265.759 131.498 265.286 131.418C264.821 131.336 264.394 131.361 264.006 131.495C263.626 131.626 263.315 131.917 263.073 132.367C262.743 132.983 262.72 133.571 263.007 134.131C263.3 134.689 263.8 135.157 264.506 135.536ZM275.294 143.382C274.563 142.989 273.974 142.495 273.526 141.9C273.081 141.3 272.825 140.643 272.757 139.929C272.691 139.21 272.86 138.476 273.263 137.725C273.618 137.064 274.036 136.598 274.517 136.328C275 136.052 275.523 135.914 276.085 135.912C276.647 135.911 277.221 135.994 277.809 136.161C278.404 136.326 278.988 136.517 279.561 136.735C280.31 137.021 280.915 137.258 281.374 137.447C281.842 137.634 282.207 137.723 282.469 137.716C282.736 137.711 282.946 137.566 283.099 137.28L283.131 137.22C283.529 136.48 283.636 135.795 283.451 135.167C283.271 134.541 282.773 134.009 281.957 133.571C281.111 133.117 280.348 132.946 279.669 133.058C278.989 133.17 278.439 133.384 278.018 133.7L276.659 132.196C277.336 131.656 278.029 131.326 278.739 131.204C279.457 131.081 280.156 131.101 280.835 131.266C281.521 131.428 282.155 131.665 282.736 131.977C283.106 132.176 283.507 132.45 283.939 132.798C284.379 133.144 284.752 133.573 285.057 134.085C285.367 134.6 285.526 135.211 285.534 135.918C285.541 136.625 285.298 137.436 284.806 138.352L280.725 145.951L278.953 144.999L279.792 143.437L279.702 143.389C279.447 143.575 279.103 143.735 278.67 143.87C278.236 144.004 277.733 144.047 277.16 143.997C276.587 143.947 275.965 143.742 275.294 143.382ZM276.419 141.935C277.12 142.312 277.785 142.491 278.413 142.474C279.047 142.46 279.603 142.3 280.082 141.997C280.566 141.696 280.937 141.305 281.196 140.824L282.067 139.203C281.943 139.252 281.734 139.246 281.438 139.184C281.15 139.12 280.826 139.026 280.466 138.904C280.114 138.779 279.772 138.654 279.44 138.527C279.116 138.398 278.852 138.295 278.648 138.218C278.156 138.031 277.673 137.897 277.2 137.817C276.734 137.735 276.308 137.76 275.92 137.894C275.54 138.025 275.229 138.316 274.987 138.767C274.656 139.382 274.634 139.97 274.92 140.53C275.214 141.088 275.714 141.556 276.419 141.935ZM287.208 149.781C286.477 149.388 285.888 148.895 285.44 148.299C284.995 147.699 284.738 147.042 284.67 146.328C284.605 145.609 284.774 144.875 285.177 144.124C285.532 143.463 285.95 142.997 286.431 142.727C286.914 142.451 287.437 142.313 287.998 142.311C288.56 142.31 289.135 142.393 289.722 142.56C290.317 142.725 290.902 142.916 291.475 143.134C292.224 143.42 292.828 143.658 293.288 143.847C293.755 144.033 294.12 144.123 294.382 144.115C294.649 144.11 294.859 143.965 295.013 143.68L295.045 143.62C295.443 142.879 295.549 142.194 295.364 141.566C295.184 140.941 294.686 140.409 293.871 139.97C293.025 139.516 292.262 139.345 291.582 139.457C290.903 139.57 290.353 139.784 289.932 140.099L288.572 138.595C289.249 138.056 289.943 137.725 290.653 137.604C291.371 137.48 292.069 137.5 292.748 137.665C293.435 137.827 294.069 138.065 294.649 138.376C295.02 138.575 295.421 138.849 295.853 139.197C296.293 139.543 296.665 139.972 296.971 140.484C297.281 140.999 297.44 141.61 297.447 142.317C297.454 143.024 297.212 143.836 296.72 144.752L292.639 152.35L290.867 151.398L291.706 149.836L291.616 149.788C291.361 149.974 291.017 150.134 290.583 150.269C290.15 150.403 289.647 150.446 289.073 150.396C288.5 150.346 287.879 150.141 287.208 149.781ZM288.333 148.334C289.034 148.711 289.698 148.89 290.327 148.873C290.96 148.859 291.517 148.7 291.996 148.396C292.48 148.095 292.851 147.704 293.109 147.224L293.98 145.602C293.857 145.652 293.647 145.645 293.352 145.583C293.064 145.519 292.74 145.426 292.38 145.303C292.028 145.179 291.686 145.053 291.354 144.926C291.03 144.797 290.766 144.694 290.562 144.617C290.069 144.43 289.586 144.296 289.113 144.216C288.648 144.134 288.221 144.16 287.834 144.293C287.454 144.424 287.143 144.715 286.901 145.166C286.57 145.781 286.548 146.369 286.834 146.929C287.128 147.487 287.627 147.955 288.333 148.334ZM299.121 156.18C298.391 155.788 297.801 155.294 297.354 154.698C296.908 154.098 296.652 153.441 296.584 152.727C296.518 152.009 296.687 151.274 297.091 150.523C297.446 149.862 297.863 149.397 298.344 149.126C298.828 148.85 299.35 148.712 299.912 148.711C300.474 148.709 301.048 148.792 301.636 148.959C302.231 149.124 302.815 149.315 303.388 149.533C304.138 149.819 304.742 150.057 305.202 150.246C305.669 150.432 306.034 150.522 306.296 150.514C306.563 150.509 306.773 150.364 306.926 150.079L306.959 150.019C307.356 149.278 307.463 148.593 307.278 147.965C307.098 147.34 306.6 146.808 305.784 146.37C304.938 145.915 304.175 145.744 303.496 145.856C302.817 145.969 302.266 146.183 301.845 146.498L300.486 144.994C301.163 144.455 301.856 144.124 302.566 144.003C303.284 143.879 303.983 143.899 304.662 144.064C305.349 144.227 305.982 144.464 306.563 144.776C306.933 144.975 307.335 145.248 307.767 145.596C308.207 145.942 308.579 146.371 308.884 146.884C309.195 147.399 309.353 148.009 309.361 148.716C309.368 149.423 309.126 150.235 308.634 151.151L304.552 158.749L302.78 157.797L303.619 156.236L303.529 156.187C303.275 156.373 302.931 156.533 302.497 156.668C302.063 156.803 301.56 156.845 300.987 156.795C300.414 156.745 299.792 156.54 299.121 156.18ZM300.247 154.734C300.947 155.11 301.612 155.29 302.24 155.272C302.874 155.258 303.43 155.099 303.909 154.795C304.393 154.494 304.765 154.103 305.023 153.623L305.894 152.001C305.77 152.051 305.561 152.045 305.265 151.983C304.977 151.918 304.653 151.825 304.293 151.702C303.941 151.578 303.599 151.452 303.267 151.325C302.943 151.196 302.679 151.093 302.476 151.016C301.983 150.829 301.5 150.695 301.027 150.615C300.562 150.533 300.135 150.559 299.747 150.692C299.367 150.824 299.056 151.114 298.814 151.565C298.484 152.181 298.461 152.768 298.747 153.328C299.041 153.886 299.541 154.354 300.247 154.734ZM319.231 157.694L315.505 164.632L313.733 163.68L321.992 148.303L323.764 149.255L320.732 154.901L320.882 154.982C321.472 154.532 322.131 154.276 322.86 154.216C323.597 154.154 324.418 154.366 325.324 154.853C326.11 155.275 326.713 155.802 327.135 156.435C327.559 157.062 327.76 157.786 327.738 158.607C327.725 159.425 327.452 160.33 326.919 161.321L322.983 168.649L321.211 167.697L325.083 160.489C325.575 159.573 325.717 158.737 325.511 157.981C325.312 157.223 324.794 156.619 323.958 156.17C323.378 155.858 322.791 155.701 322.199 155.699C321.612 155.7 321.059 155.864 320.541 156.192C320.028 156.523 319.592 157.024 319.231 157.694ZM336.827 156.271L330.74 167.243L328.998 166.307L334.784 155.174L336.827 156.271ZM327.482 171.22C327.111 171.021 326.865 170.717 326.742 170.31C326.619 169.902 326.657 169.513 326.856 169.142C327.055 168.772 327.358 168.525 327.766 168.403C328.174 168.28 328.563 168.318 328.933 168.517C329.304 168.716 329.55 169.019 329.673 169.427C329.796 169.835 329.758 170.224 329.559 170.594C329.427 170.84 329.244 171.031 329.008 171.169C328.778 171.31 328.527 171.388 328.254 171.403C327.989 171.415 327.732 171.354 327.482 171.22ZM342.711 159.432L336.625 170.404L334.883 169.468L340.669 158.335L342.711 159.432ZM333.366 174.381C332.996 174.182 332.749 173.878 332.626 173.47C332.504 173.063 332.542 172.674 332.741 172.303C332.94 171.933 333.243 171.686 333.651 171.563C334.059 171.441 334.448 171.479 334.818 171.678C335.188 171.877 335.435 172.18 335.558 172.588C335.681 172.996 335.643 173.385 335.444 173.755C335.312 174 335.128 174.192 334.893 174.33C334.663 174.471 334.411 174.548 334.139 174.563C333.874 174.576 333.616 174.515 333.366 174.381ZM348.596 162.593L342.509 173.564L340.767 172.629L346.553 161.496L348.596 162.593ZM339.251 177.541C338.88 177.342 338.634 177.039 338.511 176.631C338.388 176.223 338.426 175.834 338.625 175.464C338.824 175.094 339.127 174.847 339.535 174.724C339.943 174.601 340.332 174.639 340.703 174.838C341.073 175.037 341.32 175.341 341.442 175.749C341.565 176.156 341.527 176.545 341.328 176.916C341.196 177.161 341.013 177.353 340.777 177.491C340.547 177.631 340.296 177.709 340.023 177.724C339.759 177.737 339.501 177.676 339.251 177.541Z" fill="black"/>
<ellipse cx="407.353" cy="224.766" rx="53.3534" ry="10.3599" fill="#494949" fill-opacity="0.3"/>
<circle cx="369.793" cy="148.637" r="14.1372" fill="white" stroke="#0047FF" stroke-width="3"/>
<circle cx="420.056" cy="175.941" r="33.1423" fill="white" stroke="#0047FF" stroke-width="3"/>
<circle cx="425.393" cy="210.322" r="14.1372" fill="white" stroke="#0047FF" stroke-width="3"/>
<mask id="path-28-inside-4_407_2" fill="white">
<ellipse cx="400.871" cy="158.386" rx="2.79103" ry="9.77883" transform="rotate(29.6795 400.871 158.386)"/>
</mask>
<ellipse cx="400.871" cy="158.386" rx="2.79103" ry="9.77883" transform="rotate(29.6795 400.871 158.386)" fill="#0047FF"/>
<path d="M400.689 158.283C399.45 160.458 398.128 162.184 397.063 163.227C396.515 163.763 396.159 163.996 396.024 164.063C395.774 164.186 396.525 163.712 397.514 164.276L394.543 169.489C396.202 170.434 397.862 169.848 398.683 169.442C399.618 168.979 400.493 168.266 401.26 167.515C402.825 165.983 404.467 163.771 405.902 161.254L400.689 158.283ZM397.514 164.276C398.503 164.839 398.478 165.727 398.457 165.45C398.445 165.299 398.464 164.874 398.646 164.13C399.001 162.682 399.813 160.665 401.052 158.49L395.839 155.519C394.405 158.036 393.339 160.576 392.818 162.703C392.563 163.746 392.395 164.863 392.474 165.903C392.543 166.816 392.884 168.543 394.543 169.489L397.514 164.276ZM401.052 158.49C402.292 156.315 403.613 154.588 404.679 153.545C405.226 153.009 405.582 152.776 405.718 152.709C405.967 152.586 405.217 153.06 404.227 152.497L407.198 147.284C405.539 146.338 403.88 146.925 403.059 147.331C402.124 147.793 401.248 148.507 400.481 149.258C398.916 150.79 397.274 153.001 395.839 155.519L401.052 158.49ZM404.227 152.497C403.238 151.933 403.264 151.045 403.285 151.322C403.296 151.473 403.277 151.898 403.095 152.643C402.741 154.091 401.929 156.108 400.689 158.283L405.902 161.254C407.337 158.736 408.403 156.196 408.923 154.069C409.178 153.026 409.346 151.909 409.268 150.869C409.198 149.956 408.857 148.229 407.198 147.284L404.227 152.497Z" fill="#0047FF" mask="url(#path-28-inside-4_407_2)"/>
<path d="M416.499 165.829C415.424 168.091 413.993 169.84 412.618 170.862C411.183 171.928 410.158 171.983 409.609 171.722C409.06 171.461 408.455 170.632 408.375 168.846C408.298 167.135 408.749 164.921 409.823 162.658C410.898 160.396 412.329 158.647 413.704 157.626C415.139 156.559 416.164 156.505 416.713 156.765C417.262 157.026 417.867 157.855 417.947 159.641C418.024 161.352 417.573 163.566 416.499 165.829Z" fill="#0047FF" stroke="#0047FF" stroke-width="3"/>
<path d="M396.467 101.583C395.736 101.191 395.147 100.697 394.699 100.102C394.254 99.5015 393.997 98.8445 393.929 98.1308C393.864 97.412 394.033 96.6772 394.436 95.9264C394.791 95.2656 395.209 94.8 395.69 94.5293C396.173 94.2537 396.696 94.1152 397.258 94.1138C397.819 94.1125 398.394 94.1954 398.981 94.3626C399.577 94.5274 400.161 94.7187 400.734 94.9363C401.483 95.2226 402.088 95.4601 402.547 95.649C403.015 95.8355 403.379 95.925 403.641 95.9174C403.908 95.9125 404.119 95.7674 404.272 95.4821L404.304 95.4221C404.702 94.6813 404.808 93.9967 404.623 93.3685C404.444 92.743 403.946 92.2111 403.13 91.7729C402.284 91.3185 401.521 91.1475 400.842 91.2598C400.162 91.3721 399.612 91.586 399.191 91.9016L397.832 90.3976C398.508 89.8581 399.202 89.5276 399.912 89.4061C400.63 89.2822 401.328 89.3026 402.007 89.4674C402.694 89.6299 403.328 89.867 403.908 90.1789C404.279 90.3779 404.68 90.6514 405.112 90.9996C405.552 91.3455 405.925 91.7746 406.23 92.2869C406.54 92.8018 406.699 93.4128 406.706 94.1197C406.714 94.8266 406.471 95.638 405.979 96.554L401.898 104.152L400.126 103.201L400.965 101.639L400.875 101.59C400.62 101.776 400.276 101.936 399.843 102.071C399.409 102.206 398.906 102.248 398.333 102.199C397.76 102.149 397.138 101.944 396.467 101.583ZM397.592 100.137C398.293 100.513 398.958 100.693 399.586 100.676C400.219 100.661 400.776 100.502 401.255 100.198C401.739 99.8973 402.11 99.5065 402.368 99.026L403.239 97.4042C403.116 97.454 402.906 97.4479 402.611 97.3858C402.323 97.3215 401.999 97.2281 401.639 97.1057C401.287 96.981 400.945 96.8553 400.613 96.7287C400.289 96.5997 400.025 96.4967 399.821 96.4195C399.328 96.2323 398.846 96.0986 398.372 96.0187C397.907 95.9364 397.481 95.9621 397.093 96.0956C396.713 96.2269 396.402 96.5177 396.16 96.9682C395.829 97.5839 395.807 98.1717 396.093 98.7317C396.387 99.2894 396.887 99.7578 397.592 100.137ZM408.381 107.983C407.65 107.59 407.061 107.096 406.613 106.501C406.168 105.901 405.911 105.244 405.843 104.53C405.778 103.811 405.947 103.076 406.35 102.326C406.705 101.665 407.123 101.199 407.603 100.928C408.087 100.653 408.609 100.514 409.171 100.513C409.733 100.512 410.308 100.595 410.895 100.762C411.49 100.927 412.074 101.118 412.648 101.335C413.397 101.622 414.001 101.859 414.461 102.048C414.928 102.235 415.293 102.324 415.555 102.317C415.822 102.312 416.032 102.167 416.185 101.881L416.218 101.821C416.616 101.08 416.722 100.396 416.537 99.7677C416.357 99.1422 415.859 98.6103 415.043 98.172C414.197 97.7177 413.435 97.5466 412.755 97.6589C412.076 97.7712 411.525 97.9852 411.104 98.3008L409.745 96.7968C410.422 96.2573 411.115 95.9268 411.826 95.8052C412.544 95.6814 413.242 95.7018 413.921 95.8666C414.608 96.029 415.241 96.2662 415.822 96.5781C416.192 96.777 416.594 97.0506 417.026 97.3988C417.466 97.7447 417.838 98.1738 418.144 98.686C418.454 99.201 418.613 99.8119 418.62 100.519C418.627 101.226 418.385 102.037 417.893 102.953L413.812 110.551L412.04 109.6L412.878 108.038L412.788 107.99C412.534 108.175 412.19 108.336 411.756 108.47C411.323 108.605 410.819 108.648 410.246 108.598C409.673 108.548 409.051 108.343 408.381 107.983ZM409.506 106.536C410.207 106.912 410.871 107.092 411.5 107.075C412.133 107.06 412.689 106.901 413.168 106.598C413.653 106.296 414.024 105.906 414.282 105.425L415.153 103.803C415.03 103.853 414.82 103.847 414.524 103.785C414.236 103.721 413.913 103.627 413.553 103.505C413.2 103.38 412.858 103.255 412.526 103.128C412.202 102.999 411.938 102.896 411.735 102.819C411.242 102.631 410.759 102.498 410.286 102.418C409.821 102.336 409.394 102.361 409.006 102.495C408.626 102.626 408.315 102.917 408.073 103.367C407.743 103.983 407.72 104.571 408.007 105.131C408.3 105.689 408.8 106.157 409.506 106.536ZM420.294 114.382C419.563 113.989 418.974 113.495 418.526 112.9C418.081 112.3 417.825 111.643 417.757 110.929C417.691 110.21 417.86 109.476 418.263 108.725C418.618 108.064 419.036 107.598 419.517 107.328C420 107.052 420.523 106.914 421.085 106.912C421.647 106.911 422.221 106.994 422.809 107.161C423.404 107.326 423.988 107.517 424.561 107.735C425.31 108.021 425.915 108.258 426.374 108.447C426.842 108.634 427.207 108.723 427.469 108.716C427.736 108.711 427.946 108.566 428.099 108.28L428.131 108.22C428.529 107.48 428.636 106.795 428.451 106.167C428.271 105.541 427.773 105.009 426.957 104.571C426.111 104.117 425.348 103.946 424.669 104.058C423.989 104.17 423.439 104.384 423.018 104.7L421.659 103.196C422.336 102.656 423.029 102.326 423.739 102.204C424.457 102.081 425.156 102.101 425.835 102.266C426.521 102.428 427.155 102.665 427.736 102.977C428.106 103.176 428.507 103.45 428.939 103.798C429.379 104.144 429.752 104.573 430.057 105.085C430.367 105.6 430.526 106.211 430.534 106.918C430.541 107.625 430.298 108.436 429.806 109.352L425.725 116.951L423.953 115.999L424.792 114.437L424.702 114.389C424.447 114.575 424.103 114.735 423.67 114.87C423.236 115.004 422.733 115.047 422.16 114.997C421.587 114.947 420.965 114.742 420.294 114.382ZM421.419 112.935C422.12 113.312 422.785 113.491 423.413 113.474C424.047 113.46 424.603 113.3 425.082 112.997C425.566 112.696 425.937 112.305 426.196 111.824L427.067 110.203C426.943 110.252 426.734 110.246 426.438 110.184C426.15 110.12 425.826 110.026 425.466 109.904C425.114 109.779 424.772 109.654 424.44 109.527C424.116 109.398 423.852 109.295 423.648 109.218C423.156 109.031 422.673 108.897 422.2 108.817C421.734 108.735 421.308 108.76 420.92 108.894C420.54 109.025 420.229 109.316 419.987 109.767C419.656 110.382 419.634 110.97 419.92 111.53C420.214 112.088 420.714 112.556 421.419 112.935ZM432.208 120.781C431.477 120.388 430.888 119.895 430.44 119.299C429.995 118.699 429.738 118.042 429.67 117.328C429.605 116.609 429.774 115.875 430.177 115.124C430.532 114.463 430.95 113.997 431.431 113.727C431.914 113.451 432.437 113.313 432.998 113.311C433.56 113.31 434.135 113.393 434.722 113.56C435.317 113.725 435.902 113.916 436.475 114.134C437.224 114.42 437.828 114.658 438.288 114.847C438.755 115.033 439.12 115.123 439.382 115.115C439.649 115.11 439.859 114.965 440.013 114.68L440.045 114.62C440.443 113.879 440.549 113.194 440.364 112.566C440.184 111.941 439.686 111.409 438.871 110.97C438.025 110.516 437.262 110.345 436.582 110.457C435.903 110.57 435.353 110.784 434.932 111.099L433.572 109.595C434.249 109.056 434.943 108.725 435.653 108.604C436.371 108.48 437.069 108.5 437.748 108.665C438.435 108.827 439.069 109.065 439.649 109.376C440.02 109.575 440.421 109.849 440.853 110.197C441.293 110.543 441.665 110.972 441.971 111.484C442.281 111.999 442.44 112.61 442.447 113.317C442.454 114.024 442.212 114.836 441.72 115.752L437.639 123.35L435.867 122.398L436.706 120.836L436.616 120.788C436.361 120.974 436.017 121.134 435.583 121.269C435.15 121.403 434.647 121.446 434.073 121.396C433.5 121.346 432.879 121.141 432.208 120.781ZM433.333 119.334C434.034 119.711 434.698 119.89 435.327 119.873C435.96 119.859 436.517 119.7 436.996 119.396C437.48 119.095 437.851 118.704 438.109 118.224L438.98 116.602C438.857 116.652 438.647 116.645 438.352 116.583C438.064 116.519 437.74 116.426 437.38 116.303C437.028 116.179 436.686 116.053 436.354 115.926C436.03 115.797 435.766 115.694 435.562 115.617C435.069 115.43 434.586 115.296 434.113 115.216C433.648 115.134 433.221 115.16 432.834 115.293C432.454 115.424 432.143 115.715 431.901 116.166C431.57 116.781 431.548 117.369 431.834 117.929C432.128 118.487 432.627 118.955 433.333 119.334ZM444.121 127.18C443.391 126.788 442.801 126.294 442.354 125.698C441.908 125.098 441.652 124.441 441.584 123.727C441.518 123.009 441.687 122.274 442.091 121.523C442.446 120.862 442.863 120.397 443.344 120.126C443.828 119.85 444.35 119.712 444.912 119.711C445.474 119.709 446.048 119.792 446.636 119.959C447.231 120.124 447.815 120.315 448.388 120.533C449.138 120.819 449.742 121.057 450.202 121.246C450.669 121.432 451.034 121.522 451.296 121.514C451.563 121.509 451.773 121.364 451.926 121.079L451.959 121.019C452.356 120.278 452.463 119.593 452.278 118.965C452.098 118.34 451.6 117.808 450.784 117.37C449.938 116.915 449.175 116.744 448.496 116.856C447.817 116.969 447.266 117.183 446.845 117.498L445.486 115.994C446.163 115.455 446.856 115.124 447.566 115.003C448.284 114.879 448.983 114.899 449.662 115.064C450.349 115.227 450.982 115.464 451.563 115.776C451.933 115.975 452.335 116.248 452.767 116.596C453.207 116.942 453.579 117.371 453.884 117.884C454.195 118.399 454.353 119.009 454.361 119.716C454.368 120.423 454.126 121.235 453.634 122.151L449.552 129.749L447.78 128.797L448.619 127.236L448.529 127.187C448.275 127.373 447.931 127.533 447.497 127.668C447.063 127.803 446.56 127.845 445.987 127.795C445.414 127.745 444.792 127.54 444.121 127.18ZM445.247 125.734C445.947 126.11 446.612 126.29 447.24 126.272C447.874 126.258 448.43 126.099 448.909 125.795C449.393 125.494 449.765 125.103 450.023 124.623L450.894 123.001C450.77 123.051 450.561 123.045 450.265 122.983C449.977 122.918 449.653 122.825 449.293 122.702C448.941 122.578 448.599 122.452 448.267 122.325C447.943 122.196 447.679 122.093 447.476 122.016C446.983 121.829 446.5 121.695 446.027 121.615C445.562 121.533 445.135 121.559 444.747 121.692C444.367 121.824 444.056 122.114 443.814 122.565C443.484 123.181 443.461 123.768 443.747 124.328C444.041 124.886 444.541 125.354 445.247 125.734ZM464.231 128.694L460.505 135.632L458.733 134.68L466.992 119.303L468.764 120.255L465.732 125.901L465.882 125.982C466.472 125.532 467.131 125.276 467.86 125.216C468.597 125.154 469.418 125.366 470.324 125.853C471.11 126.275 471.713 126.802 472.135 127.435C472.559 128.062 472.76 128.786 472.738 129.607C472.725 130.425 472.452 131.33 471.919 132.321L467.983 139.649L466.211 138.697L470.083 131.489C470.575 130.573 470.717 129.737 470.511 128.981C470.312 128.223 469.794 127.619 468.958 127.17C468.378 126.858 467.791 126.701 467.199 126.699C466.612 126.7 466.059 126.864 465.541 127.192C465.028 127.523 464.592 128.024 464.231 128.694ZM481.827 127.271L475.74 138.243L473.998 137.307L479.784 126.174L481.827 127.271ZM472.482 142.22C472.111 142.021 471.865 141.717 471.742 141.31C471.619 140.902 471.657 140.513 471.856 140.142C472.055 139.772 472.358 139.525 472.766 139.403C473.174 139.28 473.563 139.318 473.933 139.517C474.304 139.716 474.55 140.019 474.673 140.427C474.796 140.835 474.758 141.224 474.559 141.594C474.427 141.84 474.244 142.031 474.008 142.169C473.778 142.31 473.527 142.388 473.254 142.403C472.989 142.415 472.732 142.354 472.482 142.22ZM487.711 130.432L481.625 141.404L479.883 140.468L485.669 129.335L487.711 130.432ZM478.366 145.381C477.996 145.182 477.749 144.878 477.626 144.47C477.504 144.063 477.542 143.674 477.741 143.303C477.94 142.933 478.243 142.686 478.651 142.563C479.059 142.441 479.448 142.479 479.818 142.678C480.188 142.877 480.435 143.18 480.558 143.588C480.681 143.996 480.643 144.385 480.444 144.755C480.312 145 480.128 145.192 479.893 145.33C479.663 145.471 479.411 145.548 479.139 145.563C478.874 145.576 478.616 145.515 478.366 145.381ZM493.596 133.593L487.509 144.564L485.767 143.629L491.553 132.496L493.596 133.593ZM484.251 148.541C483.88 148.342 483.634 148.039 483.511 147.631C483.388 147.223 483.426 146.834 483.625 146.464C483.824 146.094 484.127 145.847 484.535 145.724C484.943 145.601 485.332 145.639 485.703 145.838C486.073 146.037 486.32 146.341 486.442 146.749C486.565 147.156 486.527 147.545 486.328 147.916C486.196 148.161 486.013 148.353 485.777 148.491C485.547 148.631 485.296 148.709 485.023 148.724C484.759 148.737 484.501 148.676 484.251 148.541Z" fill="black"/>
<ellipse cx="53.3534" cy="248.766" rx="53.3534" ry="10.3599" fill="#494949" fill-opacity="0.3"/>
<circle cx="15.7934" cy="172.637" r="14.1372" fill="white" stroke="#0047FF" stroke-width="3"/>
<circle cx="66.0561" cy="199.941" r="33.1423" fill="white" stroke="#0047FF" stroke-width="3"/>
<circle cx="71.3931" cy="234.322" r="14.1372" fill="white" stroke="#0047FF" stroke-width="3"/>
<mask id="path-36-inside-5_407_2" fill="white">
<ellipse cx="46.8709" cy="182.386" rx="2.79103" ry="9.77883" transform="rotate(29.6795 46.8709 182.386)"/>
</mask>
<ellipse cx="46.8709" cy="182.386" rx="2.79103" ry="9.77883" transform="rotate(29.6795 46.8709 182.386)" fill="#0047FF"/>
<path d="M46.6893 182.283C45.4498 184.458 44.1283 186.184 43.0631 187.227C42.5153 187.763 42.1591 187.996 42.0236 188.063C41.7743 188.186 42.5251 187.712 43.5144 188.276L40.5435 193.489C42.2023 194.434 43.8621 193.848 44.6829 193.442C45.6177 192.979 46.4932 192.266 47.2604 191.515C48.8252 189.983 50.4675 187.771 51.9022 185.254L46.6893 182.283ZM43.5144 188.276C44.5036 188.839 44.478 189.727 44.457 189.45C44.4456 189.299 44.4643 188.874 44.6465 188.13C45.0008 186.682 45.813 184.665 47.0524 182.49L41.8396 179.519C40.4049 182.036 39.3389 184.576 38.8184 186.703C38.5632 187.746 38.3954 188.863 38.4741 189.903C38.5433 190.816 38.8846 192.543 40.5435 193.489L43.5144 188.276ZM47.0524 182.49C48.2919 180.315 49.6134 178.588 50.6787 177.545C51.2265 177.009 51.5826 176.776 51.7181 176.709C51.9675 176.586 51.2166 177.06 50.2274 176.497L53.1983 171.284C51.5394 170.338 49.8797 170.925 49.0588 171.331C48.1241 171.793 47.2486 172.507 46.4814 173.258C44.9165 174.79 43.2742 177.001 41.8396 179.519L47.0524 182.49ZM50.2274 176.497C49.2382 175.933 49.2638 175.045 49.2848 175.322C49.2962 175.473 49.2775 175.898 49.0953 176.643C48.741 178.091 47.9288 180.108 46.6893 182.283L51.9022 185.254C53.3368 182.736 54.4028 180.196 54.9233 178.069C55.1785 177.026 55.3464 175.909 55.2676 174.869C55.1985 173.956 54.8571 172.229 53.1983 171.284L50.2274 176.497Z" fill="#0047FF" mask="url(#path-36-inside-5_407_2)"/>
<path d="M62.4985 189.829C61.4238 192.091 59.9927 193.84 58.6177 194.862C57.1829 195.928 56.158 195.983 55.6089 195.722C55.0599 195.461 54.4548 194.632 54.3745 192.846C54.2977 191.135 54.7486 188.921 55.8232 186.658C56.8979 184.396 58.3291 182.647 59.704 181.626C61.1389 180.559 62.1638 180.505 62.7128 180.765C63.2619 181.026 63.867 181.855 63.9472 183.641C64.0241 185.352 63.5732 187.566 62.4985 189.829Z" fill="#0047FF" stroke="#0047FF" stroke-width="3"/>
<path d="M42.4669 125.583C41.7361 125.191 41.1468 124.697 40.699 124.102C40.2539 123.502 39.9974 122.845 39.9293 122.131C39.8639 121.412 40.0328 120.677 40.4361 119.926C40.791 119.266 41.2088 118.8 41.6896 118.529C42.173 118.254 42.6957 118.115 43.2575 118.114C43.8193 118.112 44.394 118.195 44.9814 118.363C45.5765 118.527 46.1606 118.719 46.7339 118.936C47.483 119.223 48.0874 119.46 48.5471 119.649C49.0145 119.836 49.3792 119.925 49.6412 119.917C49.9083 119.913 50.1184 119.767 50.2717 119.482L50.304 119.422C50.7019 118.681 50.8083 117.997 50.6234 117.369C50.4434 116.743 49.9455 116.211 49.1296 115.773C48.2836 115.318 47.5209 115.147 46.8415 115.26C46.162 115.372 45.6117 115.586 45.1907 115.902L43.8315 114.398C44.5082 113.858 45.2017 113.528 45.9119 113.406C46.6299 113.282 47.3284 113.303 48.0074 113.467C48.694 113.63 49.3277 113.867 49.9083 114.179C50.2787 114.378 50.68 114.651 51.1121 115C51.552 115.346 51.9245 115.775 52.2298 116.287C52.5401 116.802 52.6989 117.413 52.7062 118.12C52.7135 118.827 52.4711 119.638 51.9791 120.554L47.8978 128.152L46.1259 127.201L46.9647 125.639L46.8746 125.59C46.6201 125.776 46.276 125.936 45.8425 126.071C45.4089 126.206 44.9056 126.248 44.3326 126.199C43.7595 126.149 43.1376 125.944 42.4669 125.583ZM43.5922 124.137C44.2929 124.513 44.9575 124.693 45.5859 124.676C46.2193 124.661 46.7756 124.502 47.2548 124.198C47.7389 123.897 48.1101 123.507 48.3682 123.026L49.2393 121.404C49.1158 121.454 48.9063 121.448 48.6107 121.386C48.3227 121.321 47.9988 121.228 47.6389 121.106C47.2866 120.981 46.9446 120.855 46.6128 120.729C46.2886 120.6 46.0247 120.497 45.821 120.42C45.3283 120.232 44.8454 120.099 44.3724 120.019C43.907 119.936 43.4805 119.962 43.0927 120.096C42.7126 120.227 42.4016 120.518 42.1597 120.968C41.829 121.584 41.8067 122.172 42.0928 122.732C42.3866 123.289 42.8864 123.758 43.5922 124.137ZM55.688 132.646C54.6069 132.066 53.813 131.31 53.3063 130.38C52.7997 129.45 52.5768 128.424 52.6376 127.302C52.6984 126.181 53.038 125.044 53.6564 123.893C54.2855 122.722 55.0559 121.804 55.9677 121.139C56.8871 120.472 57.8705 120.094 58.9179 120.005C59.973 119.914 61.0211 120.148 62.0622 120.707C62.8731 121.143 63.5232 121.685 64.0126 122.335C64.502 122.985 64.8093 123.692 64.9343 124.456C65.0594 125.219 64.9784 125.988 64.6914 126.763L62.9195 125.811C63.0666 125.213 63.0163 124.586 62.7686 123.931C62.5286 123.273 62.0181 122.734 61.2373 122.315C60.5465 121.944 59.8441 121.799 59.1299 121.88C58.4235 121.958 57.7503 122.245 57.1105 122.739C56.4784 123.232 55.9284 123.914 55.4606 124.785C54.982 125.676 54.7054 126.527 54.6308 127.338C54.5613 128.152 54.6861 128.88 55.0054 129.522C55.3297 130.167 55.8422 130.678 56.543 131.055C57.0035 131.302 57.4645 131.446 57.9259 131.488C58.3874 131.529 58.8289 131.47 59.2505 131.309C59.6721 131.149 60.0509 130.888 60.3868 130.526L62.1588 131.478C61.693 132.105 61.1159 132.585 60.4274 132.918C59.7466 133.249 58.9973 133.402 58.1795 133.375C57.3695 133.346 56.539 133.103 55.688 132.646ZM68.4407 130.247L64.7143 137.185L62.9423 136.233L71.2017 120.856L72.9736 121.808L69.9409 127.454L70.091 127.535C70.6813 127.085 71.3408 126.829 72.0696 126.769C72.8061 126.707 73.6273 126.919 74.5333 127.406C75.3192 127.828 75.9227 128.355 76.344 128.988C76.7679 129.615 76.9692 130.339 76.9477 131.16C76.9339 131.978 76.6609 132.883 76.1285 133.874L72.1924 141.202L70.4205 140.25L74.2921 133.042C74.7841 132.126 74.9267 131.29 74.7201 130.534C74.5211 129.776 74.0037 129.172 73.1678 128.723C72.5871 128.411 72.0007 128.254 71.4085 128.252C70.8212 128.253 70.2686 128.417 69.7506 128.745C69.2376 129.076 68.8009 129.577 68.4407 130.247ZM80.1403 145.78C79.0291 145.183 78.2023 144.423 77.6599 143.5C77.1252 142.574 76.878 141.551 76.9184 140.432C76.9665 139.309 77.3078 138.158 77.9423 136.976C78.5769 135.795 79.3513 134.87 80.2657 134.2C81.1878 133.528 82.1726 133.147 83.22 133.058C84.2751 132.967 85.3232 133.201 86.3643 133.761C86.965 134.083 87.5043 134.502 87.9824 135.017C88.4605 135.531 88.8189 136.143 89.0574 136.852C89.2986 137.555 89.3643 138.352 89.2544 139.241C89.1445 140.13 88.8005 141.112 88.2225 142.189L87.8192 142.939L78.9295 138.164L79.7522 136.633L86.8399 140.44C87.1894 139.789 87.3712 139.139 87.3851 138.488C87.4041 137.841 87.2551 137.241 86.9382 136.691C86.6263 136.143 86.15 135.696 85.5093 135.352C84.8036 134.973 84.0988 134.82 83.395 134.894C82.699 134.965 82.0641 135.204 81.4903 135.612C80.9166 136.02 80.459 136.542 80.1176 137.177L79.5691 138.198C79.1013 139.069 78.8549 139.888 78.8299 140.655C78.8126 141.42 78.9895 142.105 79.3608 142.711C79.7346 143.312 80.2795 143.804 80.9953 144.189C81.4608 144.439 81.9162 144.599 82.3615 144.671C82.8145 144.74 83.2499 144.716 83.6677 144.599C84.0882 144.476 84.481 144.255 84.8463 143.935L86.3001 145.335C85.808 145.819 85.2309 146.167 84.5689 146.379C83.9095 146.586 83.2011 146.644 82.4437 146.553C81.6889 146.457 80.9211 146.2 80.1403 145.78ZM98.95 140.714L98.1434 142.216L92.1669 139.006L92.9734 137.504L98.95 140.714ZM96.1994 135.677L97.9714 136.628L92.0672 147.62C91.7984 148.121 91.6693 148.535 91.68 148.864C91.6985 149.189 91.7999 149.457 91.9845 149.666C92.1767 149.872 92.403 150.045 92.6633 150.185C92.8585 150.29 93.024 150.366 93.1599 150.413C93.2985 150.455 93.4094 150.489 93.4925 150.514L92.9979 152.3C92.8536 152.28 92.6617 152.235 92.4223 152.165C92.1802 152.099 91.8939 151.977 91.5636 151.8C91.063 151.531 90.6303 151.16 90.2654 150.687C89.9055 150.216 89.6862 149.676 89.6074 149.066C89.5337 148.459 89.6769 147.82 90.0372 147.149L96.1994 135.677ZM100.003 156.449C98.892 155.852 98.0652 155.092 97.5228 154.169C96.9881 153.243 96.7409 152.22 96.7813 151.101C96.8294 149.978 97.1707 148.827 97.8052 147.645C98.4397 146.464 99.2142 145.539 100.129 144.869C101.051 144.197 102.035 143.816 103.083 143.727C104.138 143.636 105.186 143.87 106.227 144.43C106.828 144.752 107.367 145.171 107.845 145.686C108.323 146.2 108.682 146.812 108.92 147.521C109.162 148.224 109.227 149.021 109.117 149.91C109.007 150.799 108.663 151.781 108.085 152.858L107.682 153.608L98.7924 148.833L99.6151 147.302L106.703 151.109C107.052 150.458 107.234 149.808 107.248 149.157C107.267 148.509 107.118 147.91 106.801 147.36C106.489 146.811 106.013 146.365 105.372 146.021C104.666 145.642 103.962 145.489 103.258 145.563C102.562 145.634 101.927 145.873 101.353 146.281C100.78 146.689 100.322 147.211 99.9805 147.846L99.432 148.867C98.9642 149.738 98.7178 150.557 98.6928 151.324C98.6755 152.089 98.8524 152.774 99.2236 153.38C99.5975 153.981 100.142 154.473 100.858 154.858C101.324 155.108 101.779 155.268 102.224 155.34C102.677 155.409 103.113 155.385 103.531 155.268C103.951 155.145 104.344 154.924 104.709 154.604L106.163 156.004C105.671 156.488 105.094 156.836 104.432 157.048C103.772 157.255 103.064 157.313 102.307 157.222C101.552 157.126 100.784 156.869 100.003 156.449ZM107.603 160.222L113.797 148.689L115.509 149.609L114.574 151.351L114.694 151.415C115.21 150.957 115.84 150.699 116.581 150.639C117.323 150.579 118.039 150.735 118.729 151.106C118.86 151.176 119.021 151.266 119.213 151.376C119.406 151.486 119.55 151.572 119.644 151.636L118.676 153.438C118.624 153.391 118.499 153.294 118.3 153.149C118.108 153.001 117.895 152.864 117.66 152.737C117.099 152.436 116.535 152.285 115.969 152.284C115.409 152.28 114.892 152.415 114.416 152.688C113.948 152.959 113.574 153.355 113.295 153.876L109.375 161.174L107.603 160.222ZM126.914 161.655L123.188 168.593L121.416 167.641L127.611 156.109L129.322 157.028L128.355 158.83L128.505 158.911C129.09 158.47 129.753 158.22 130.494 158.161C131.238 158.096 132.046 158.298 132.917 158.765C133.698 159.185 134.295 159.712 134.709 160.347C135.125 160.977 135.322 161.702 135.301 162.522C135.282 163.338 135.009 164.236 134.482 165.217L130.546 172.545L128.774 171.593L132.646 164.386C133.132 163.48 133.276 162.647 133.077 161.889C132.881 161.126 132.372 160.524 131.551 160.083C130.986 159.779 130.414 159.63 129.837 159.636C129.265 159.645 128.725 159.816 128.217 160.149C127.709 160.483 127.275 160.985 126.914 161.655ZM138.34 177.041C137.299 176.482 136.518 175.744 135.999 174.826C135.484 173.911 135.246 172.89 135.284 171.762C135.327 170.637 135.668 169.479 136.308 168.288C136.954 167.087 137.735 166.155 138.651 165.493C139.573 164.833 140.557 164.466 141.604 164.389C142.656 164.316 143.703 164.559 144.744 165.118C145.785 165.677 146.563 166.415 147.078 167.329C147.598 168.247 147.835 169.271 147.789 170.401C147.748 171.533 147.405 172.7 146.76 173.902C146.12 175.093 145.34 176.016 144.421 176.67C143.507 177.327 142.524 177.692 141.472 177.766C140.425 177.842 139.381 177.6 138.34 177.041ZM139.195 175.449C139.986 175.874 140.745 176.021 141.474 175.89C142.202 175.759 142.866 175.429 143.466 174.9C144.067 174.371 144.574 173.721 144.988 172.95C145.402 172.179 145.665 171.395 145.777 170.597C145.89 169.8 145.801 169.059 145.511 168.374C145.221 167.689 144.68 167.135 143.889 166.71C143.098 166.285 142.337 166.141 141.606 166.277C140.875 166.413 140.208 166.748 139.606 167.282C139.003 167.816 138.494 168.469 138.08 169.24C137.666 170.01 137.404 170.792 137.295 171.585C137.185 172.377 137.277 173.113 137.569 173.793C137.862 174.472 138.404 175.025 139.195 175.449ZM156.2 180.249L159.862 173.432L161.634 174.384L155.439 185.916L153.667 184.964L154.716 183.012L154.596 182.948C154.011 183.388 153.323 183.66 152.532 183.764C151.744 183.863 150.914 183.679 150.043 183.211C149.322 182.824 148.766 182.322 148.375 181.706C147.986 181.084 147.804 180.367 147.828 179.554C147.854 178.737 148.131 177.837 148.658 176.856L152.594 169.528L154.366 170.48L150.494 177.688C150.043 178.529 149.918 179.326 150.119 180.079C150.326 180.835 150.797 181.411 151.533 181.806C151.974 182.042 152.482 182.17 153.058 182.19C153.64 182.212 154.211 182.074 154.771 181.775C155.337 181.479 155.813 180.97 156.2 180.249ZM171.661 183.097L169.827 182.693C169.87 182.374 169.86 182.037 169.8 181.682C169.746 181.324 169.599 180.974 169.357 180.632C169.116 180.289 168.737 179.979 168.222 179.702C167.516 179.323 166.84 179.17 166.195 179.243C165.558 179.313 165.106 179.596 164.84 180.091C164.603 180.532 164.576 180.966 164.759 181.393C164.943 181.82 165.329 182.302 165.918 182.838L167.404 184.178C168.301 184.982 168.864 185.778 169.092 186.565C169.324 187.347 169.223 188.141 168.79 188.947C168.435 189.607 167.928 190.096 167.268 190.412C166.613 190.731 165.867 190.859 165.029 190.796C164.192 190.734 163.326 190.462 162.43 189.981C161.254 189.349 160.417 188.571 159.921 187.646C159.424 186.721 159.337 185.713 159.658 184.622L161.566 185.105C161.393 185.812 161.446 186.44 161.724 186.99C162.008 187.542 162.513 188.013 163.239 188.403C164.065 188.846 164.814 189.023 165.488 188.934C166.17 188.842 166.643 188.548 166.91 188.053C167.125 187.652 167.165 187.242 167.03 186.821C166.897 186.395 166.577 185.958 166.069 185.511L164.389 184.029C163.467 183.211 162.9 182.406 162.686 181.615C162.481 180.821 162.592 180.026 163.019 179.23C163.369 178.579 163.861 178.101 164.495 177.797C165.134 177.496 165.848 177.373 166.637 177.429C167.431 177.488 168.234 177.735 169.044 178.171C170.186 178.784 170.947 179.515 171.329 180.365C171.716 181.218 171.827 182.129 171.661 183.097Z" fill="black"/>
<path d="M66.8879 34.5294L69.9836 51.7072L68.0042 52.0639L64.9085 34.8861L66.8879 34.5294ZM73.6092 51.0538L71.2874 38.1704L73.2669 37.8137L75.5887 50.6971L73.6092 51.0538ZM71.907 35.8418C71.5211 35.9114 71.1647 35.8399 70.8378 35.6275C70.5164 35.414 70.3225 35.1228 70.256 34.7537C70.1895 34.3847 70.2695 34.0441 70.4962 33.7319C70.7284 33.4187 71.0374 33.2273 71.4233 33.1578C71.8091 33.0883 72.1627 33.1602 72.484 33.3736C72.811 33.5861 73.0077 33.8768 73.0742 34.2459C73.1407 34.6149 73.0579 34.956 72.8257 35.2692C72.599 35.5814 72.2928 35.7723 71.907 35.8418ZM79.4826 49.9953L76.3869 32.8175L78.3664 32.4608L79.5091 38.8018L79.6769 38.7716C79.782 38.5217 79.9319 38.2002 80.1266 37.8072C80.3259 37.4076 80.6442 37.0269 81.0813 36.6652C81.5229 36.297 82.1632 36.0373 83.0019 35.8861C84.0867 35.6906 85.0918 35.7895 86.0171 36.1827C86.9424 36.576 87.7269 37.2285 88.3703 38.1402C89.0138 39.0519 89.4575 40.1843 89.7014 41.5375C89.9473 42.9019 89.9283 44.1264 89.6446 45.2109C89.3599 46.2899 88.8559 47.1774 88.1326 47.8736C87.4084 48.5641 86.5095 49.0061 85.4359 49.1996C84.6083 49.3487 83.921 49.3311 83.3739 49.1468C82.8259 48.9569 82.3859 48.71 82.054 48.4061C81.7211 48.0966 81.4608 47.8375 81.2731 47.6289L81.0383 47.6712L81.395 49.6507L79.4826 49.9953ZM80.2676 43.203C80.443 44.1759 80.7403 45.0086 81.1595 45.7009C81.5777 46.3876 82.0985 46.8913 82.7221 47.2119C83.3447 47.5269 84.053 47.6129 84.847 47.4698C85.6746 47.3206 86.3259 46.9781 86.8008 46.4422C87.2804 45.8997 87.593 45.2314 87.7385 44.4373C87.8887 43.6366 87.8811 42.7777 87.7158 41.8607C87.5526 40.9548 87.2657 40.1636 86.8551 39.4871C86.4491 38.8039 85.9282 38.3003 85.2924 37.9761C84.6613 37.6453 83.9263 37.5554 83.0875 37.7066C82.2823 37.8517 81.6425 38.1777 81.1681 38.6847C80.6926 39.1861 80.3806 39.8254 80.232 40.6027C80.0825 41.3744 80.0943 42.2412 80.2676 43.203ZM99.3341 46.6949C98.0928 46.9186 96.9726 46.8376 95.9735 46.4519C94.9791 46.0595 94.1495 45.4123 93.4846 44.5102C92.8243 43.6016 92.3753 42.4874 92.1375 41.1678C91.8997 39.8481 91.9305 38.6417 92.23 37.5485C92.5341 36.4487 93.0686 35.5384 93.8335 34.8174C94.6031 34.0899 95.5694 33.6213 96.7325 33.4117C97.4035 33.2907 98.0862 33.2832 98.7808 33.3889C99.4753 33.4947 100.136 33.7508 100.764 34.1574C101.39 34.5583 101.937 35.141 102.404 35.9056C102.871 36.6701 103.213 37.6535 103.429 38.8557L103.58 39.6945L93.6494 41.4842L93.341 39.7731L101.259 38.3462C101.128 37.6193 100.866 36.9968 100.472 36.4789C100.084 35.9599 99.5948 35.5833 99.0041 35.3491C98.4191 35.114 97.7686 35.0609 97.0529 35.1898C96.2645 35.3319 95.6175 35.6506 95.1121 36.1458C94.6113 36.6344 94.2631 37.2168 94.0674 37.8929C93.8717 38.569 93.8378 39.2621 93.9658 39.9723L94.1714 41.113C94.3467 42.0859 94.6631 42.8805 95.1205 43.4966C95.5826 44.1062 96.1473 44.5327 96.8147 44.7761C97.4811 45.014 98.2141 45.0608 99.0137 44.9167C99.5337 44.823 99.9903 44.6657 100.383 44.4447C100.781 44.2172 101.107 43.9275 101.361 43.5757C101.614 43.2183 101.785 42.8008 101.872 42.3233L103.881 42.5154C103.796 43.2004 103.561 43.8317 103.174 44.4094C102.787 44.9815 102.268 45.4676 101.618 45.8676C100.968 46.2619 100.206 46.5377 99.3341 46.6949ZM107.631 44.9225L105.31 32.0391L107.222 31.6945L107.573 33.6404L107.707 33.6162C107.827 32.9364 108.159 32.3426 108.702 31.8348C109.246 31.3269 109.903 31.0034 110.675 30.8644C110.82 30.8382 111.003 30.8082 111.222 30.7745C111.441 30.7408 111.607 30.7195 111.721 30.7105L112.084 32.7235C112.014 32.7188 111.855 32.7214 111.609 32.7312C111.367 32.7343 111.115 32.7596 110.852 32.807C110.226 32.9198 109.69 33.152 109.245 33.5035C108.805 33.8484 108.484 34.2758 108.281 34.7857C108.083 35.289 108.037 35.8315 108.142 36.413L109.611 44.5658L107.631 44.9225ZM121.477 42.7044C120.236 42.9281 119.116 42.8471 118.117 42.4613C117.122 42.069 116.293 41.4218 115.628 40.5197C114.968 39.611 114.519 38.4969 114.281 37.1772C114.043 35.8576 114.074 34.6511 114.373 33.558C114.677 32.4582 115.212 31.5478 115.977 30.8269C116.746 30.0993 117.713 29.6307 118.876 29.4211C119.547 29.3002 120.23 29.2926 120.924 29.3984C121.619 29.5041 122.28 29.7603 122.907 30.1668C123.534 30.5677 124.08 31.1505 124.547 31.915C125.014 32.6796 125.356 33.6629 125.572 34.8652L125.724 35.7039L115.793 37.4936L115.484 35.7826L123.402 34.3556C123.271 33.6287 123.009 33.0063 122.615 32.4883C122.227 31.9693 121.738 31.5928 121.147 31.3586C120.562 31.1234 119.912 31.0703 119.196 31.1993C118.408 31.3414 117.761 31.66 117.255 32.1552C116.755 32.6439 116.406 33.2262 116.211 33.9023C116.015 34.5784 115.981 35.2716 116.109 35.9817L116.315 37.1224C116.49 38.0954 116.806 38.8899 117.264 39.5061C117.726 40.1156 118.291 40.5421 118.958 40.7856C119.624 41.0234 120.357 41.0703 121.157 40.9262C121.677 40.8325 122.134 40.6751 122.527 40.4542C122.925 40.2266 123.251 39.9369 123.505 39.5851C123.758 39.2278 123.928 38.8103 124.015 38.3327L126.024 38.5249C125.94 39.2098 125.704 39.8411 125.318 40.4189C124.93 40.991 124.411 41.477 123.762 41.877C123.111 42.2714 122.35 42.5472 121.477 42.7044ZM137.001 31.6279L138.397 39.3781L136.418 39.7348L134.096 26.8514L136.008 26.5068L136.371 28.5198L136.539 28.4896C136.723 27.7809 137.087 27.1727 137.63 26.6648C138.173 26.1513 138.931 25.8069 139.903 25.6316C140.776 25.4744 141.571 25.5158 142.29 25.7558C143.008 25.9901 143.613 26.4352 144.107 27.0911C144.599 27.7413 144.944 28.6144 145.142 29.7104L146.617 37.8967L144.638 38.2534L143.186 30.2013C143.004 29.1892 142.599 28.4482 141.972 27.9781C141.343 27.5025 140.571 27.3473 139.654 27.5126C139.022 27.6264 138.482 27.8652 138.033 28.2289C137.591 28.5916 137.274 29.0614 137.084 29.6384C136.893 30.2155 136.865 30.8786 137.001 31.6279ZM155.516 36.57C154.353 36.7796 153.283 36.6868 152.305 36.2914C151.333 35.895 150.511 35.2435 149.84 34.3368C149.174 33.4292 148.721 32.3099 148.482 30.9791C148.24 29.6371 148.272 28.4218 148.578 27.3332C148.89 26.2436 149.432 25.3434 150.204 24.6326C150.982 23.9208 151.953 23.4601 153.116 23.2505C154.279 23.0409 155.347 23.1343 156.319 23.5307C157.296 23.926 158.119 24.5803 158.786 25.4936C159.458 26.4058 159.915 27.533 160.157 28.875C160.397 30.2058 160.36 31.4132 160.048 32.4973C159.741 33.5803 159.198 34.4777 158.42 35.1894C157.647 35.9002 156.68 36.3604 155.516 36.57ZM155.196 34.7919C156.079 34.6326 156.766 34.2752 157.254 33.7195C157.743 33.1637 158.058 32.4921 158.199 31.7046C158.34 30.9172 158.333 30.0928 158.178 29.2317C158.022 28.3706 157.741 27.5929 157.333 26.8985C156.925 26.2042 156.394 25.6792 155.741 25.3235C155.088 24.9677 154.32 24.8695 153.437 25.0287C152.553 25.1879 151.867 25.5482 151.38 26.1095C150.892 26.6708 150.578 27.348 150.438 28.1411C150.298 28.9341 150.306 29.7612 150.461 30.6224C150.616 31.4835 150.897 32.2584 151.304 32.9472C151.711 33.6359 152.241 34.1553 152.893 34.5055C153.545 34.8556 154.313 34.9511 155.196 34.7919ZM171.497 27.9744L170.125 20.3585L172.104 20.0017L174.426 32.8851L172.447 33.2418L172.054 31.061L171.919 31.0852C171.735 31.7939 171.366 32.4349 170.811 33.0083C170.255 33.5761 169.491 33.9477 168.518 34.123C167.713 34.2682 166.965 34.221 166.276 33.9816C165.585 33.7366 164.996 33.2884 164.509 32.6372C164.021 31.9804 163.679 31.1039 163.481 30.008L162.006 21.8217L163.985 21.4649L165.436 29.517C165.606 30.4564 166.003 31.1584 166.63 31.6228C167.262 32.0863 167.989 32.2439 168.811 32.0958C169.303 32.0071 169.781 31.7911 170.244 31.4478C170.713 31.1034 171.074 30.64 171.327 30.0575C171.586 29.474 171.643 28.7796 171.497 27.9744ZM185.376 20.5891L183.688 21.4128C183.523 21.1366 183.306 20.8784 183.038 20.6381C182.774 20.3912 182.441 20.2087 182.038 20.0907C181.636 19.9727 181.147 19.9656 180.571 20.0694C179.783 20.2115 179.158 20.5116 178.698 20.9698C178.243 21.4214 178.065 21.924 178.164 22.4775C178.253 22.9696 178.502 23.326 178.911 23.5467C179.321 23.7674 179.923 23.9042 180.717 23.9573L182.714 24.0824C183.917 24.1544 184.852 24.4275 185.521 24.9016C186.188 25.3702 186.603 26.0546 186.765 26.9549C186.898 27.693 186.805 28.3911 186.485 29.0493C186.17 29.7064 185.666 30.2707 184.971 30.7423C184.277 31.2138 183.429 31.5398 182.428 31.7202C181.114 31.957 179.975 31.8678 179.011 31.4526C178.047 31.0374 177.352 30.3025 176.925 29.2479L178.719 28.4396C179.023 29.1007 179.455 29.5598 180.015 29.8168C180.581 30.0728 181.269 30.1277 182.08 29.9816C183.003 29.8153 183.7 29.4876 184.172 28.9984C184.648 28.5026 184.837 27.978 184.737 27.4244C184.656 26.977 184.432 26.6306 184.065 26.3851C183.696 26.134 183.174 25.9914 182.498 25.9573L180.26 25.841C179.03 25.774 178.085 25.4969 177.426 25.0095C176.771 24.5155 176.363 23.824 176.203 22.9349C176.072 22.208 176.16 21.5282 176.468 20.8954C176.781 20.2617 177.264 19.7215 177.916 19.2748C178.575 18.827 179.357 18.5216 180.263 18.3583C181.537 18.1285 182.589 18.2277 183.417 18.6559C184.25 19.0831 184.903 19.7275 185.376 20.5891Z" fill="black"/>
</svg>
