<svg width="377" height="367" viewBox="0 0 377 367" fill="none" xmlns="http://www.w3.org/2000/svg">
<circle cx="76.4007" cy="75.8284" r="16.0994" fill="white" stroke="#0047FF" stroke-width="5"/>
<circle cx="41.2048" cy="41.2048" r="38.7048" fill="white" stroke="#0047FF" stroke-width="5"/>
<circle cx="34.0512" cy="75.8284" r="16.0994" fill="white" stroke="#0047FF" stroke-width="5"/>
<path d="M41.5662 32.9066C41.5662 34.782 41.0635 36.3651 40.3827 37.4042C39.6877 38.4651 39.0144 38.7048 38.6295 38.7048C38.2446 38.7048 37.5713 38.4651 36.8763 37.4042C36.1954 36.3651 35.6927 34.782 35.6927 32.9066C35.6927 31.0312 36.1954 29.4481 36.8763 28.4089C37.5713 27.3481 38.2446 27.1084 38.6295 27.1084C39.0144 27.1084 39.6877 27.3481 40.3827 28.4089C41.0635 29.4481 41.5662 31.0312 41.5662 32.9066Z" fill="#0047FF" stroke="#0047FF" stroke-width="5"/>
<path d="M68.6748 32.9066C68.6748 37.4896 66.2406 41.2048 63.238 41.2048C60.2354 41.2048 57.8013 37.4896 57.8013 32.9066C57.8013 28.3236 60.2354 24.6084 63.238 24.6084C66.2406 24.6084 68.6748 28.3236 68.6748 32.9066Z" fill="#0047FF"/>
<path d="M68.6748 32.9066C68.6748 37.4896 66.2406 41.2048 63.238 41.2048C60.2354 41.2048 57.8013 37.4896 57.8013 32.9066C57.8013 28.3236 60.2354 24.6084 63.238 24.6084C66.2406 24.6084 68.6748 28.3236 68.6748 32.9066Z" stroke="#0066FF"/>
<path d="M135.5 214.863C135.5 225.787 126.63 234.65 115.681 234.65C104.731 234.65 95.8613 225.787 95.8613 214.863C95.8613 203.938 104.731 195.076 115.681 195.076C126.63 195.076 135.5 203.938 135.5 214.863Z" fill="white" stroke="#0047FF" stroke-width="5"/>
<path d="M120.392 173.374C120.392 199.259 99.3766 220.248 73.4458 220.248C47.5149 220.248 26.5 199.259 26.5 173.374C26.5 147.49 47.5149 126.5 73.4458 126.5C99.3766 126.5 120.392 147.49 120.392 173.374Z" fill="white" stroke="#0047FF" stroke-width="5"/>
<path d="M84.6807 214.863C84.6807 225.787 75.8107 234.65 64.8614 234.65C53.9121 234.65 45.0421 225.787 45.0421 214.863C45.0421 203.938 53.9121 195.076 64.8614 195.076C75.8107 195.076 84.6807 203.938 84.6807 214.863Z" fill="white" stroke="#0047FF" stroke-width="5"/>
<path d="M74.3795 163.43C74.3795 165.759 73.7555 167.753 72.8784 169.09C71.9873 170.448 71.0423 170.874 70.3554 170.874C69.6685 170.874 68.7234 170.448 67.8324 169.09C66.9553 167.753 66.3313 165.759 66.3313 163.43C66.3313 161.101 66.9553 159.107 67.8324 157.771C68.7234 156.413 69.6685 155.987 70.3554 155.987C71.0423 155.987 71.9873 156.413 72.8784 157.771C73.7555 159.107 74.3795 161.101 74.3795 163.43Z" fill="#0047FF" stroke="#0047FF" stroke-width="5"/>
<path d="M106.41 163.43C106.41 168.922 103.489 173.374 99.8854 173.374C96.2823 173.374 93.3613 168.922 93.3613 163.43C93.3613 157.939 96.2823 153.487 99.8854 153.487C103.489 153.487 106.41 157.939 106.41 163.43Z" fill="#0047FF"/>
<path d="M106.41 163.43C106.41 168.922 103.489 173.374 99.8854 173.374C96.2823 173.374 93.3613 168.922 93.3613 163.43C93.3613 157.939 96.2823 153.487 99.8854 153.487C103.489 153.487 106.41 157.939 106.41 163.43Z" stroke="#0066FF"/>
<circle cx="251.191" cy="96.5302" r="18.9696" fill="white" stroke="#0047FF" stroke-width="5"/>
<circle cx="210.563" cy="56.5635" r="45.0635" fill="white" stroke="#0047FF" stroke-width="5"/>
<circle cx="202.306" cy="96.5302" r="18.9696" fill="white" stroke="#0047FF" stroke-width="5"/>
<path d="M211.366 46.9845C211.366 49.2135 210.77 51.1167 209.937 52.3877C209.09 53.6803 208.207 54.0633 207.591 54.0633C206.974 54.0633 206.091 53.6803 205.244 52.3877C204.412 51.1167 203.815 49.2135 203.815 46.9845C203.815 44.7555 204.412 42.8523 205.244 41.5814C206.091 40.2888 206.974 39.9058 207.591 39.9058C208.207 39.9058 209.09 40.2888 209.937 41.5814C210.77 42.8523 211.366 44.7555 211.366 46.9845Z" fill="#0047FF" stroke="#0047FF" stroke-width="5"/>
<path d="M242.272 46.9845C242.272 52.2747 239.463 56.5633 235.997 56.5633C232.531 56.5633 229.721 52.2747 229.721 46.9845C229.721 41.6943 232.531 37.4058 235.997 37.4058C239.463 37.4058 242.272 41.6943 242.272 46.9845Z" fill="#0047FF"/>
<path d="M242.272 46.9845C242.272 52.2747 239.463 56.5633 235.997 56.5633C232.531 56.5633 229.721 52.2747 229.721 46.9845C229.721 41.6943 232.531 37.4058 235.997 37.4058C239.463 37.4058 242.272 41.6943 242.272 46.9845Z" stroke="#0066FF"/>
<path d="M374.5 208C374.5 221.488 363.351 232.5 349.5 232.5C335.649 232.5 324.5 221.488 324.5 208C324.5 194.512 335.649 183.5 349.5 183.5C363.351 183.5 374.5 194.512 374.5 208Z" fill="white" stroke="#0047FF" stroke-width="5"/>
<circle cx="299" cy="158" r="56.5" fill="white" stroke="#0047FF" stroke-width="5"/>
<path d="M313.5 208C313.5 221.575 302.711 232.5 289.5 232.5C276.289 232.5 265.5 221.575 265.5 208C265.5 194.425 276.289 183.5 289.5 183.5C302.711 183.5 313.5 194.425 313.5 208Z" fill="white" stroke="#0047FF" stroke-width="5"/>
<path d="M300.5 147C300.5 149.92 299.755 152.445 298.683 154.16C297.589 155.911 296.398 156.5 295.5 156.5C294.602 156.5 293.411 155.911 292.317 154.16C291.245 152.445 290.5 149.92 290.5 147C290.5 144.08 291.245 141.555 292.317 139.84C293.411 138.089 294.602 137.5 295.5 137.5C296.398 137.5 297.589 138.089 298.683 139.84C299.755 141.555 300.5 144.08 300.5 147Z" fill="#0047FF" stroke="#0047FF" stroke-width="5"/>
<path d="M339 147C339 153.627 335.194 159 330.5 159C325.806 159 322 153.627 322 147C322 140.373 325.806 135 330.5 135C335.194 135 339 140.373 339 147Z" fill="#0047FF"/>
<path d="M339 147C339 153.627 335.194 159 330.5 159C325.806 159 322 153.627 322 147C322 140.373 325.806 135 330.5 135C335.194 135 339 140.373 339 147Z" stroke="#0066FF"/>
<circle cx="273.927" cy="333.909" r="30.5909" fill="white" stroke="#0047FF" stroke-width="5"/>
<circle cx="211.309" cy="272.309" r="70.8091" fill="white" stroke="#0047FF" stroke-width="5"/>
<circle cx="198.582" cy="333.909" r="30.5909" fill="white" stroke="#0047FF" stroke-width="5"/>
<path d="M213.9 257.545C213.9 261.206 212.923 264.406 211.476 266.615C210.014 268.846 208.282 269.809 206.727 269.809C205.173 269.809 203.441 268.846 201.979 266.615C200.532 264.406 199.555 261.206 199.555 257.545C199.555 253.885 200.532 250.685 201.979 248.476C203.441 246.245 205.173 245.282 206.727 245.282C208.282 245.282 210.014 246.245 211.476 248.476C212.923 250.685 213.9 253.885 213.9 257.545Z" fill="#0047FF" stroke="#0047FF" stroke-width="5"/>
<path d="M260.182 257.545C260.182 265.699 255.851 272.309 250.509 272.309C245.167 272.309 240.836 265.699 240.836 257.545C240.836 249.392 245.167 242.782 250.509 242.782C255.851 242.782 260.182 249.392 260.182 257.545Z" fill="#0047FF"/>
<path d="M260.182 257.545C260.182 265.699 255.851 272.309 250.509 272.309C245.167 272.309 240.836 265.699 240.836 257.545C240.836 249.392 245.167 242.782 250.509 242.782C255.851 242.782 260.182 249.392 260.182 257.545Z" stroke="#0066FF"/>
</svg>
