<svg width="1440" height="439" viewBox="0 0 1440 439" fill="none" xmlns="http://www.w3.org/2000/svg">
<path d="M237.467 107.575C237.467 120.417 227.333 130.719 214.964 130.719C202.596 130.719 192.462 120.417 192.462 107.575C192.462 94.7332 202.596 84.4314 214.964 84.4314C227.333 84.4314 237.467 94.7332 237.467 107.575Z" fill="white" stroke="#0047FF" stroke-width="5"/>
<circle cx="167.523" cy="60.7753" r="53.2753" fill="white" stroke="#0047FF" stroke-width="5"/>
<path d="M179.768 107.575C179.768 120.417 169.634 130.719 157.266 130.719C144.897 130.719 134.763 120.417 134.763 107.575C134.763 94.7332 144.897 84.4314 157.266 84.4314C169.634 84.4314 179.768 94.7332 179.768 107.575Z" fill="white" stroke="#0047FF" stroke-width="5"/>
<path d="M168.229 49.2355C168.229 51.8351 167.542 54.0726 166.564 55.5839C165.57 57.1201 164.493 57.6342 163.677 57.6342C162.861 57.6342 161.783 57.1201 160.789 55.5839C159.811 54.0726 159.125 51.8351 159.125 49.2355C159.125 46.636 159.811 44.3984 160.789 42.8872C161.783 41.351 162.861 40.8369 163.677 40.8369C164.493 40.8369 165.57 41.351 166.564 42.8872C167.542 44.3984 168.229 46.636 168.229 49.2355Z" fill="#0047FF" stroke="#0047FF" stroke-width="5"/>
<path d="M204.066 49.2355C204.066 55.2547 200.908 60.1342 197.014 60.1342C193.119 60.1342 189.962 55.2547 189.962 49.2355C189.962 43.2164 193.119 38.3369 197.014 38.3369C200.908 38.3369 204.066 43.2164 204.066 49.2355Z" fill="#0047FF"/>
<path d="M204.066 49.2355C204.066 55.2547 200.908 60.1342 197.014 60.1342C193.119 60.1342 189.962 55.2547 189.962 49.2355C189.962 43.2164 193.119 38.3369 197.014 38.3369C200.908 38.3369 204.066 43.2164 204.066 49.2355Z" stroke="#0066FF"/>
<path d="M112.893 164.605H111.047L116.388 150.06H118.206L123.547 164.605H121.7L117.354 152.361H117.24L112.893 164.605ZM113.575 158.924H121.018V160.486H113.575V158.924ZM129.961 150.06V164.605H128.285V150.06H129.961ZM135.731 164.605V153.696H137.407V164.605H135.731ZM136.584 151.878C136.257 151.878 135.975 151.767 135.738 151.544C135.506 151.322 135.39 151.054 135.39 150.742C135.39 150.429 135.506 150.162 135.738 149.939C135.975 149.717 136.257 149.605 136.584 149.605C136.91 149.605 137.19 149.717 137.422 149.939C137.658 150.162 137.777 150.429 137.777 150.742C137.777 151.054 137.658 151.322 137.422 151.544C137.19 151.767 136.91 151.878 136.584 151.878ZM147.609 164.833C146.586 164.833 145.706 164.591 144.967 164.108C144.229 163.625 143.66 162.96 143.263 162.113C142.865 161.265 142.666 160.297 142.666 159.208C142.666 158.1 142.87 157.122 143.277 156.275C143.689 155.422 144.262 154.757 144.996 154.279C145.734 153.796 146.596 153.554 147.581 153.554C148.348 153.554 149.039 153.696 149.655 153.98C150.27 154.265 150.774 154.662 151.167 155.174C151.56 155.685 151.804 156.282 151.899 156.963H150.223C150.095 156.466 149.811 156.026 149.371 155.642C148.935 155.254 148.348 155.06 147.609 155.06C146.956 155.06 146.383 155.23 145.89 155.571C145.403 155.908 145.022 156.383 144.747 156.999C144.477 157.61 144.342 158.327 144.342 159.151C144.342 159.994 144.475 160.728 144.74 161.353C145.01 161.978 145.389 162.463 145.876 162.809C146.369 163.154 146.946 163.327 147.609 163.327C148.045 163.327 148.44 163.251 148.795 163.1C149.15 162.948 149.451 162.73 149.697 162.446C149.943 162.162 150.119 161.821 150.223 161.424H151.899C151.804 162.068 151.57 162.648 151.196 163.164C150.827 163.675 150.336 164.082 149.726 164.385C149.12 164.684 148.414 164.833 147.609 164.833ZM160.26 164.861C159.568 164.861 158.941 164.731 158.377 164.471C157.814 164.205 157.367 163.824 157.035 163.327C156.704 162.825 156.538 162.219 156.538 161.509C156.538 160.884 156.661 160.377 156.907 159.989C157.153 159.596 157.483 159.288 157.894 159.066C158.306 158.843 158.761 158.677 159.258 158.569C159.76 158.455 160.264 158.365 160.771 158.299C161.434 158.213 161.971 158.15 162.383 158.107C162.8 158.06 163.103 157.981 163.292 157.873C163.486 157.764 163.583 157.574 163.583 157.304V157.248C163.583 156.547 163.392 156.002 163.008 155.614C162.629 155.226 162.054 155.032 161.282 155.032C160.482 155.032 159.855 155.207 159.4 155.557C158.946 155.908 158.626 156.282 158.441 156.679L156.85 156.111C157.135 155.448 157.513 154.932 157.987 154.563C158.465 154.189 158.986 153.928 159.549 153.782C160.117 153.63 160.676 153.554 161.225 153.554C161.576 153.554 161.978 153.597 162.433 153.682C162.892 153.763 163.335 153.931 163.761 154.186C164.192 154.442 164.549 154.828 164.833 155.344C165.117 155.86 165.26 156.551 165.26 157.418V164.605H163.583V163.128H163.498C163.385 163.365 163.195 163.618 162.93 163.888C162.665 164.158 162.312 164.388 161.872 164.577C161.431 164.766 160.894 164.861 160.26 164.861ZM160.515 163.355C161.178 163.355 161.737 163.225 162.191 162.965C162.651 162.704 162.996 162.368 163.228 161.956C163.465 161.544 163.583 161.111 163.583 160.657V159.123C163.512 159.208 163.356 159.286 163.115 159.357C162.878 159.423 162.603 159.482 162.291 159.534C161.983 159.582 161.682 159.624 161.389 159.662C161.1 159.695 160.866 159.724 160.686 159.748C160.25 159.804 159.843 159.897 159.464 160.025C159.09 160.148 158.787 160.335 158.555 160.586C158.328 160.832 158.214 161.168 158.214 161.594C158.214 162.176 158.429 162.617 158.86 162.915C159.296 163.209 159.848 163.355 160.515 163.355ZM172.695 158.043V164.605H171.019V153.696H172.638V155.401H172.78C173.036 154.847 173.424 154.402 173.945 154.066C174.466 153.725 175.138 153.554 175.962 153.554C176.701 153.554 177.347 153.706 177.901 154.009C178.455 154.307 178.886 154.762 179.194 155.373C179.501 155.979 179.655 156.746 179.655 157.674V164.605H177.979V157.787C177.979 156.93 177.756 156.263 177.311 155.784C176.866 155.301 176.256 155.06 175.479 155.06C174.944 155.06 174.466 155.176 174.044 155.408C173.628 155.64 173.299 155.979 173.057 156.424C172.816 156.869 172.695 157.408 172.695 158.043ZM193.163 149.801V147.151H207.09V149.801H201.695V164.605H198.558V149.801H193.163ZM216.176 147.151V164.605H213.014V147.151H216.176ZM222.84 147.151H226.71L231.891 159.799H232.096L237.278 147.151H241.147V164.605H238.113V152.614H237.951L233.127 164.554H230.86L226.036 152.588H225.874V164.605H222.84V147.151ZM257.316 151.949C257.236 151.205 256.901 150.625 256.31 150.211C255.725 149.796 254.964 149.588 254.026 149.588C253.367 149.588 252.802 149.688 252.33 149.887C251.859 150.086 251.498 150.355 251.248 150.696C250.998 151.037 250.87 151.426 250.864 151.864C250.864 152.228 250.947 152.543 251.111 152.81C251.282 153.077 251.512 153.304 251.802 153.492C252.092 153.674 252.413 153.827 252.765 153.952C253.117 154.077 253.472 154.182 253.83 154.267L255.467 154.676C256.126 154.83 256.759 155.037 257.367 155.299C257.981 155.56 258.529 155.89 259.012 156.287C259.501 156.685 259.887 157.165 260.171 157.728C260.455 158.29 260.597 158.949 260.597 159.705C260.597 160.728 260.336 161.628 259.813 162.407C259.29 163.179 258.535 163.784 257.546 164.222C256.563 164.654 255.373 164.87 253.975 164.87C252.617 164.87 251.438 164.659 250.438 164.239C249.444 163.819 248.665 163.205 248.103 162.398C247.546 161.591 247.245 160.608 247.2 159.449H250.31C250.356 160.057 250.543 160.563 250.873 160.966C251.202 161.37 251.631 161.671 252.16 161.87C252.694 162.069 253.29 162.168 253.95 162.168C254.637 162.168 255.239 162.066 255.756 161.861C256.279 161.651 256.688 161.361 256.984 160.992C257.279 160.617 257.43 160.179 257.435 159.679C257.43 159.225 257.296 158.85 257.035 158.554C256.773 158.253 256.407 158.003 255.935 157.804C255.469 157.6 254.924 157.418 254.299 157.259L252.313 156.748C250.876 156.378 249.739 155.819 248.904 155.069C248.075 154.313 247.66 153.31 247.66 152.06C247.66 151.032 247.938 150.131 248.495 149.358C249.057 148.586 249.822 147.986 250.788 147.56C251.753 147.128 252.847 146.912 254.069 146.912C255.307 146.912 256.393 147.128 257.325 147.56C258.262 147.986 258.998 148.58 259.532 149.341C260.066 150.097 260.342 150.966 260.359 151.949H257.316Z" fill="#0047FF"/>
<path d="M865.3 301.504C865.3 319.306 851.245 333.63 834.04 333.63C816.835 333.63 802.78 319.306 802.78 301.504C802.78 283.701 816.835 269.378 834.04 269.378C851.245 269.378 865.3 283.701 865.3 301.504Z" fill="white" stroke="#0047FF" stroke-width="5"/>
<circle cx="769.982" cy="238.312" r="72.8116" fill="white" stroke="#0047FF" stroke-width="5"/>
<path d="M787.392 301.504C787.392 319.306 773.337 333.63 756.132 333.63C738.926 333.63 724.871 319.306 724.871 301.504C724.871 283.701 738.926 269.378 756.132 269.378C773.337 269.378 787.392 283.701 787.392 301.504Z" fill="white" stroke="#0047FF" stroke-width="5"/>
<path d="M771.81 222.73C771.81 226.383 770.847 229.575 769.422 231.777C767.981 234.004 766.286 234.946 764.788 234.946C763.29 234.946 761.595 234.004 760.154 231.777C758.729 229.575 757.766 226.383 757.766 222.73C757.766 219.076 758.729 215.884 760.154 213.682C761.595 211.455 763.29 210.514 764.788 210.514C766.286 210.514 767.981 211.455 769.422 213.682C770.847 215.884 771.81 219.076 771.81 222.73Z" fill="#0047FF" stroke="#0047FF" stroke-width="5"/>
<path d="M819.324 222.73C819.324 230.857 815.061 237.446 809.802 237.446C804.543 237.446 800.28 230.857 800.28 222.73C800.28 214.602 804.543 208.014 809.802 208.014C815.061 208.014 819.324 214.602 819.324 222.73Z" fill="#0047FF"/>
<path d="M819.324 222.73C819.324 230.857 815.061 237.446 809.802 237.446C804.543 237.446 800.28 230.857 800.28 222.73C800.28 214.602 804.543 208.014 809.802 208.014C815.061 208.014 819.324 214.602 819.324 222.73Z" stroke="#0066FF"/>
<path d="M721.864 374.906H720.018L725.359 360.36H727.177L732.518 374.906H730.671L726.324 362.661H726.211L721.864 374.906ZM722.546 369.224H729.989V370.786H722.546V369.224ZM738.932 360.36V374.906H737.256V360.36H738.932ZM744.702 374.906V363.997H746.378V374.906H744.702ZM745.554 362.178C745.228 362.178 744.946 362.067 744.709 361.845C744.477 361.622 744.361 361.355 744.361 361.042C744.361 360.73 744.477 360.462 744.709 360.24C744.946 360.017 745.228 359.906 745.554 359.906C745.881 359.906 746.16 360.017 746.392 360.24C746.629 360.462 746.748 360.73 746.748 361.042C746.748 361.355 746.629 361.622 746.392 361.845C746.16 362.067 745.881 362.178 745.554 362.178ZM756.58 375.133C755.557 375.133 754.677 374.892 753.938 374.409C753.199 373.926 752.631 373.26 752.233 372.413C751.836 371.565 751.637 370.597 751.637 369.508C751.637 368.4 751.84 367.422 752.248 366.575C752.66 365.723 753.232 365.057 753.966 364.579C754.705 364.096 755.567 363.855 756.552 363.855C757.319 363.855 758.01 363.997 758.625 364.281C759.241 364.565 759.745 364.963 760.138 365.474C760.531 365.985 760.775 366.582 760.87 367.264H759.194C759.066 366.767 758.782 366.326 758.341 365.943C757.906 365.554 757.319 365.36 756.58 365.36C755.927 365.36 755.354 365.531 754.861 365.872C754.374 366.208 753.992 366.684 753.718 367.299C753.448 367.91 753.313 368.627 753.313 369.451C753.313 370.294 753.446 371.028 753.711 371.653C753.981 372.278 754.359 372.763 754.847 373.109C755.339 373.455 755.917 373.627 756.58 373.627C757.016 373.627 757.411 373.552 757.766 373.4C758.121 373.249 758.422 373.031 758.668 372.747C758.914 372.463 759.089 372.122 759.194 371.724H760.87C760.775 372.368 760.541 372.948 760.167 373.464C759.797 373.975 759.307 374.383 758.696 374.686C758.09 374.984 757.385 375.133 756.58 375.133ZM769.23 375.161C768.539 375.161 767.912 375.031 767.348 374.771C766.785 374.506 766.337 374.125 766.006 373.627C765.674 373.125 765.509 372.519 765.509 371.809C765.509 371.184 765.632 370.678 765.878 370.289C766.124 369.896 766.453 369.589 766.865 369.366C767.277 369.143 767.732 368.978 768.229 368.869C768.731 368.755 769.235 368.665 769.742 368.599C770.405 368.514 770.942 368.45 771.354 368.407C771.771 368.36 772.074 368.282 772.263 368.173C772.457 368.064 772.554 367.875 772.554 367.605V367.548C772.554 366.847 772.362 366.303 771.979 365.914C771.6 365.526 771.025 365.332 770.253 365.332C769.453 365.332 768.825 365.507 768.371 365.857C767.916 366.208 767.597 366.582 767.412 366.98L765.821 366.411C766.105 365.749 766.484 365.232 766.958 364.863C767.436 364.489 767.957 364.229 768.52 364.082C769.088 363.93 769.647 363.855 770.196 363.855C770.547 363.855 770.949 363.897 771.404 363.982C771.863 364.063 772.306 364.231 772.732 364.487C773.163 364.742 773.52 365.128 773.804 365.644C774.088 366.16 774.23 366.852 774.23 367.718V374.906H772.554V373.428H772.469C772.355 373.665 772.166 373.919 771.901 374.188C771.636 374.458 771.283 374.688 770.842 374.877C770.402 375.067 769.865 375.161 769.23 375.161ZM769.486 373.656C770.149 373.656 770.708 373.526 771.162 373.265C771.621 373.005 771.967 372.669 772.199 372.257C772.436 371.845 772.554 371.411 772.554 370.957V369.423C772.483 369.508 772.327 369.586 772.085 369.657C771.849 369.723 771.574 369.783 771.262 369.835C770.954 369.882 770.653 369.925 770.36 369.963C770.071 369.996 769.836 370.024 769.656 370.048C769.221 370.105 768.814 370.197 768.435 370.325C768.061 370.448 767.758 370.635 767.526 370.886C767.298 371.132 767.185 371.468 767.185 371.894C767.185 372.477 767.4 372.917 767.831 373.215C768.267 373.509 768.818 373.656 769.486 373.656ZM781.666 368.343V374.906H779.99V363.997H781.609V365.701H781.751C782.007 365.147 782.395 364.702 782.916 364.366C783.437 364.025 784.109 363.855 784.933 363.855C785.671 363.855 786.318 364.006 786.872 364.309C787.426 364.607 787.857 365.062 788.164 365.673C788.472 366.279 788.626 367.046 788.626 367.974V374.906H786.95V368.088C786.95 367.231 786.727 366.563 786.282 366.085C785.837 365.602 785.226 365.36 784.45 365.36C783.915 365.36 783.437 365.476 783.015 365.708C782.598 365.94 782.269 366.279 782.028 366.724C781.786 367.169 781.666 367.709 781.666 368.343ZM802.134 360.102V357.451H816.06V360.102H810.665V374.906H807.529V360.102H802.134ZM825.147 357.451V374.906H821.985V357.451H825.147ZM831.811 357.451H835.68L840.862 370.099H841.067L846.248 357.451H850.118V374.906H847.084V362.914H846.922L842.098 374.855H839.831L835.007 362.889H834.845V374.906H831.811V357.451ZM866.287 362.25C866.207 361.505 865.872 360.926 865.281 360.511C864.696 360.096 863.934 359.889 862.997 359.889C862.338 359.889 861.773 359.988 861.301 360.187C860.829 360.386 860.469 360.656 860.219 360.997C859.969 361.338 859.841 361.727 859.835 362.164C859.835 362.528 859.917 362.843 860.082 363.11C860.253 363.377 860.483 363.605 860.773 363.792C861.062 363.974 861.383 364.127 861.736 364.252C862.088 364.377 862.443 364.482 862.801 364.568L864.437 364.977C865.096 365.13 865.73 365.338 866.338 365.599C866.952 365.86 867.5 366.19 867.983 366.588C868.471 366.985 868.858 367.465 869.142 368.028C869.426 368.59 869.568 369.25 869.568 370.005C869.568 371.028 869.307 371.928 868.784 372.707C868.261 373.48 867.506 374.085 866.517 374.522C865.534 374.954 864.344 375.17 862.946 375.17C861.588 375.17 860.409 374.96 859.409 374.539C858.415 374.119 857.636 373.505 857.074 372.698C856.517 371.892 856.216 370.909 856.17 369.75H859.281C859.327 370.357 859.514 370.863 859.844 371.267C860.173 371.67 860.602 371.971 861.131 372.17C861.665 372.369 862.261 372.468 862.92 372.468C863.608 372.468 864.21 372.366 864.727 372.161C865.25 371.951 865.659 371.661 865.954 371.292C866.25 370.917 866.4 370.48 866.406 369.98C866.4 369.525 866.267 369.15 866.006 368.855C865.744 368.553 865.378 368.303 864.906 368.105C864.44 367.9 863.895 367.718 863.27 367.559L861.284 367.048C859.846 366.678 858.71 366.119 857.875 365.369C857.045 364.613 856.631 363.61 856.631 362.36C856.631 361.332 856.909 360.431 857.466 359.659C858.028 358.886 858.792 358.286 859.758 357.86C860.724 357.428 861.818 357.213 863.04 357.213C864.278 357.213 865.363 357.428 866.295 357.86C867.233 358.286 867.969 358.88 868.503 359.642C869.037 360.397 869.312 361.267 869.329 362.25H866.287Z" fill="#0047FF"/>
<path d="M412.76 281.058C412.76 292.707 403.569 302.041 392.364 302.041C381.159 302.041 371.968 292.707 371.968 281.058C371.968 269.41 381.159 260.075 392.364 260.075C403.569 260.075 412.76 269.41 412.76 281.058Z" fill="white" stroke="#0047FF" stroke-width="5"/>
<circle cx="348.921" cy="238.202" r="48.5752" fill="white" stroke="#0047FF" stroke-width="5"/>
<path d="M359.923 281.058C359.923 292.707 350.732 302.041 339.527 302.041C328.322 302.041 319.132 292.707 319.132 281.058C319.132 269.41 328.322 260.075 339.527 260.075C350.732 260.075 359.923 269.41 359.923 281.058Z" fill="white" stroke="#0047FF" stroke-width="5"/>
<path d="M349.356 227.635C349.356 229.981 348.736 231.989 347.866 233.334C346.979 234.704 346.05 235.115 345.398 235.115C344.746 235.115 343.817 234.704 342.931 233.334C342.06 231.989 341.44 229.981 341.44 227.635C341.44 225.289 342.06 223.281 342.931 221.936C343.817 220.566 344.746 220.155 345.398 220.155C346.05 220.155 346.979 220.566 347.866 221.936C348.736 223.281 349.356 225.289 349.356 227.635Z" fill="#0047FF" stroke="#0047FF" stroke-width="5"/>
<path d="M382.384 227.635C382.384 233.147 379.492 237.615 375.926 237.615C372.359 237.615 369.468 233.147 369.468 227.635C369.468 222.123 372.359 217.655 375.926 217.655C379.492 217.655 382.384 222.123 382.384 227.635Z" fill="#0047FF"/>
<path d="M382.384 227.635C382.384 233.147 379.492 237.615 375.926 237.615C372.359 237.615 369.468 233.147 369.468 227.635C369.468 222.123 372.359 217.655 375.926 217.655C379.492 217.655 382.384 222.123 382.384 227.635Z" stroke="#0066FF"/>
<path d="M292.724 333.631H290.877L296.218 319.085H298.037L303.377 333.631H301.531L297.184 321.387H297.071L292.724 333.631ZM293.406 327.949H300.849V329.512H293.406V327.949ZM309.792 319.085V333.631H308.116V319.085H309.792ZM315.562 333.631V322.722H317.238V333.631H315.562ZM316.414 320.904C316.087 320.904 315.806 320.792 315.569 320.57C315.337 320.347 315.221 320.08 315.221 319.767C315.221 319.455 315.337 319.187 315.569 318.965C315.806 318.742 316.087 318.631 316.414 318.631C316.741 318.631 317.02 318.742 317.252 318.965C317.489 319.187 317.607 319.455 317.607 319.767C317.607 320.08 317.489 320.347 317.252 320.57C317.02 320.792 316.741 320.904 316.414 320.904ZM327.44 333.858C326.417 333.858 325.536 333.617 324.798 333.134C324.059 332.651 323.491 331.985 323.093 331.138C322.695 330.29 322.497 329.322 322.497 328.233C322.497 327.125 322.7 326.147 323.107 325.3C323.519 324.448 324.092 323.782 324.826 323.304C325.565 322.821 326.427 322.58 327.411 322.58C328.178 322.58 328.87 322.722 329.485 323.006C330.101 323.29 330.605 323.688 330.998 324.199C331.391 324.71 331.635 325.307 331.73 325.989H330.053C329.926 325.492 329.642 325.051 329.201 324.668C328.766 324.28 328.178 324.085 327.44 324.085C326.786 324.085 326.213 324.256 325.721 324.597C325.233 324.933 324.852 325.409 324.578 326.024C324.308 326.635 324.173 327.352 324.173 328.176C324.173 329.019 324.305 329.753 324.57 330.378C324.84 331.003 325.219 331.488 325.707 331.834C326.199 332.18 326.777 332.352 327.44 332.352C327.875 332.352 328.271 332.277 328.626 332.125C328.981 331.974 329.282 331.756 329.528 331.472C329.774 331.188 329.949 330.847 330.053 330.449H331.73C331.635 331.093 331.401 331.673 331.026 332.189C330.657 332.7 330.167 333.108 329.556 333.411C328.95 333.709 328.245 333.858 327.44 333.858ZM340.09 333.887C339.399 333.887 338.771 333.756 338.208 333.496C337.645 333.231 337.197 332.85 336.866 332.352C336.534 331.851 336.368 331.244 336.368 330.534C336.368 329.909 336.492 329.403 336.738 329.014C336.984 328.621 337.313 328.314 337.725 328.091C338.137 327.869 338.592 327.703 339.089 327.594C339.591 327.48 340.095 327.39 340.601 327.324C341.264 327.239 341.802 327.175 342.214 327.132C342.63 327.085 342.933 327.007 343.123 326.898C343.317 326.789 343.414 326.6 343.414 326.33V326.273C343.414 325.572 343.222 325.028 342.839 324.639C342.46 324.251 341.885 324.057 341.113 324.057C340.313 324.057 339.685 324.232 339.231 324.583C338.776 324.933 338.457 325.307 338.272 325.705L336.681 325.137C336.965 324.474 337.344 323.958 337.817 323.588C338.296 323.214 338.816 322.954 339.38 322.807C339.948 322.655 340.507 322.58 341.056 322.58C341.406 322.58 341.809 322.622 342.263 322.708C342.723 322.788 343.165 322.956 343.592 323.212C344.022 323.468 344.38 323.853 344.664 324.369C344.948 324.886 345.09 325.577 345.09 326.443V333.631H343.414V332.154H343.329C343.215 332.39 343.026 332.644 342.761 332.914C342.495 333.183 342.143 333.413 341.702 333.602C341.262 333.792 340.725 333.887 340.09 333.887ZM340.346 332.381C341.009 332.381 341.567 332.251 342.022 331.99C342.481 331.73 342.827 331.394 343.059 330.982C343.296 330.57 343.414 330.137 343.414 329.682V328.148C343.343 328.233 343.187 328.311 342.945 328.382C342.708 328.449 342.434 328.508 342.121 328.56C341.814 328.607 341.513 328.65 341.219 328.688C340.931 328.721 340.696 328.749 340.516 328.773C340.081 328.83 339.673 328.922 339.295 329.05C338.921 329.173 338.618 329.36 338.386 329.611C338.158 329.857 338.045 330.193 338.045 330.619C338.045 331.202 338.26 331.642 338.691 331.941C339.127 332.234 339.678 332.381 340.346 332.381ZM352.526 327.068V333.631H350.849V322.722H352.469V324.426H352.611C352.866 323.872 353.255 323.427 353.776 323.091C354.296 322.75 354.969 322.58 355.793 322.58C356.531 322.58 357.178 322.731 357.731 323.034C358.285 323.333 358.716 323.787 359.024 324.398C359.332 325.004 359.486 325.771 359.486 326.699V333.631H357.81V326.813C357.81 325.956 357.587 325.288 357.142 324.81C356.697 324.327 356.086 324.085 355.31 324.085C354.775 324.085 354.296 324.201 353.875 324.433C353.458 324.665 353.129 325.004 352.888 325.449C352.646 325.894 352.526 326.434 352.526 327.068ZM372.994 318.827V316.176H386.92V318.827H381.525V333.631H378.389V318.827H372.994ZM396.007 316.176V333.631H392.845V316.176H396.007ZM402.671 316.176H406.54L411.722 328.824H411.926L417.108 316.176H420.978V333.631H417.944V321.639H417.782L412.958 333.58H410.691L405.867 321.614H405.705V333.631H402.671V316.176ZM437.147 320.975C437.067 320.23 436.732 319.651 436.141 319.236C435.556 318.821 434.794 318.614 433.857 318.614C433.198 318.614 432.632 318.713 432.161 318.912C431.689 319.111 431.328 319.381 431.078 319.722C430.828 320.063 430.701 320.452 430.695 320.889C430.695 321.253 430.777 321.568 430.942 321.835C431.113 322.102 431.343 322.33 431.632 322.517C431.922 322.699 432.243 322.852 432.595 322.977C432.948 323.102 433.303 323.208 433.661 323.293L435.297 323.702C435.956 323.855 436.59 324.063 437.198 324.324C437.811 324.585 438.36 324.915 438.843 325.313C439.331 325.71 439.718 326.191 440.002 326.753C440.286 327.316 440.428 327.975 440.428 328.73C440.428 329.753 440.166 330.654 439.644 331.432C439.121 332.205 438.365 332.81 437.377 333.247C436.394 333.679 435.203 333.895 433.806 333.895C432.448 333.895 431.269 333.685 430.269 333.264C429.274 332.844 428.496 332.23 427.934 331.423C427.377 330.617 427.076 329.634 427.03 328.475H430.141C430.186 329.083 430.374 329.588 430.703 329.992C431.033 330.395 431.462 330.696 431.99 330.895C432.524 331.094 433.121 331.193 433.78 331.193C434.468 331.193 435.07 331.091 435.587 330.887C436.11 330.676 436.519 330.387 436.814 330.017C437.11 329.642 437.26 329.205 437.266 328.705C437.26 328.25 437.127 327.875 436.865 327.58C436.604 327.279 436.238 327.029 435.766 326.83C435.3 326.625 434.755 326.443 434.13 326.284L432.144 325.773C430.706 325.404 429.57 324.844 428.735 324.094C427.905 323.338 427.49 322.335 427.49 321.085C427.49 320.057 427.769 319.156 428.326 318.384C428.888 317.611 429.652 317.012 430.618 316.585C431.584 316.154 432.678 315.938 433.899 315.938C435.138 315.938 436.223 316.154 437.155 316.585C438.093 317.012 438.828 317.605 439.363 318.367C439.897 319.122 440.172 319.992 440.189 320.975H437.147Z" fill="#0047FF"/>
<path d="M1257.62 175.001C1257.62 186.649 1248.43 195.983 1237.23 195.983C1226.02 195.983 1216.83 186.649 1216.83 175.001C1216.83 163.352 1226.02 154.018 1237.23 154.018C1248.43 154.018 1257.62 163.352 1257.62 175.001Z" fill="white" stroke="#0047FF" stroke-width="5"/>
<circle cx="1193.78" cy="132.144" r="48.5752" fill="white" stroke="#0047FF" stroke-width="5"/>
<path d="M1204.79 175.001C1204.79 186.649 1195.6 195.983 1184.39 195.983C1173.19 195.983 1164 186.649 1164 175.001C1164 163.352 1173.19 154.018 1184.39 154.018C1195.6 154.018 1204.79 163.352 1204.79 175.001Z" fill="white" stroke="#0047FF" stroke-width="5"/>
<path d="M1194.22 121.577C1194.22 123.923 1193.6 125.931 1192.73 127.276C1191.84 128.646 1190.91 129.058 1190.26 129.058C1189.61 129.058 1188.68 128.646 1187.79 127.276C1186.92 125.931 1186.3 123.923 1186.3 121.577C1186.3 119.231 1186.92 117.223 1187.79 115.878C1188.68 114.508 1189.61 114.097 1190.26 114.097C1190.91 114.097 1191.84 114.508 1192.73 115.878C1193.6 117.223 1194.22 119.231 1194.22 121.577Z" fill="#0047FF" stroke="#0047FF" stroke-width="5"/>
<path d="M1227.25 121.577C1227.25 127.089 1224.36 131.558 1220.79 131.558C1217.22 131.558 1214.33 127.089 1214.33 121.577C1214.33 116.065 1217.22 111.597 1220.79 111.597C1224.36 111.597 1227.25 116.065 1227.25 121.577Z" fill="#0047FF"/>
<path d="M1227.25 121.577C1227.25 127.089 1224.36 131.558 1220.79 131.558C1217.22 131.558 1214.33 127.089 1214.33 121.577C1214.33 116.065 1217.22 111.597 1220.79 111.597C1224.36 111.597 1227.25 116.065 1227.25 121.577Z" stroke="#0066FF"/>
<path d="M1137.59 227.573H1135.74L1141.08 213.028H1142.9L1148.24 227.573H1146.39L1142.05 215.329H1141.93L1137.59 227.573ZM1138.27 221.891H1145.71V223.454H1138.27V221.891ZM1154.66 213.028V227.573H1152.98V213.028H1154.66ZM1160.43 227.573V216.664H1162.1V227.573H1160.43ZM1161.28 214.846C1160.95 214.846 1160.67 214.735 1160.43 214.512C1160.2 214.29 1160.08 214.022 1160.08 213.71C1160.08 213.397 1160.2 213.13 1160.43 212.907C1160.67 212.685 1160.95 212.573 1161.28 212.573C1161.6 212.573 1161.88 212.685 1162.12 212.907C1162.35 213.13 1162.47 213.397 1162.47 213.71C1162.47 214.022 1162.35 214.29 1162.12 214.512C1161.88 214.735 1161.6 214.846 1161.28 214.846ZM1172.3 227.801C1171.28 227.801 1170.4 227.559 1169.66 227.076C1168.92 226.593 1168.35 225.928 1167.96 225.08C1167.56 224.233 1167.36 223.265 1167.36 222.176C1167.36 221.068 1167.56 220.09 1167.97 219.242C1168.38 218.39 1168.96 217.725 1169.69 217.247C1170.43 216.764 1171.29 216.522 1172.27 216.522C1173.04 216.522 1173.73 216.664 1174.35 216.948C1174.96 217.232 1175.47 217.63 1175.86 218.141C1176.25 218.653 1176.5 219.249 1176.59 219.931H1174.92C1174.79 219.434 1174.51 218.994 1174.06 218.61C1173.63 218.222 1173.04 218.028 1172.3 218.028C1171.65 218.028 1171.08 218.198 1170.58 218.539C1170.1 218.875 1169.72 219.351 1169.44 219.967C1169.17 220.578 1169.04 221.295 1169.04 222.119C1169.04 222.961 1169.17 223.695 1169.43 224.32C1169.7 224.945 1170.08 225.431 1170.57 225.776C1171.06 226.122 1171.64 226.295 1172.3 226.295C1172.74 226.295 1173.13 226.219 1173.49 226.068C1173.84 225.916 1174.15 225.698 1174.39 225.414C1174.64 225.13 1174.81 224.789 1174.92 224.391H1176.59C1176.5 225.035 1176.26 225.615 1175.89 226.131C1175.52 226.643 1175.03 227.05 1174.42 227.353C1173.81 227.651 1173.11 227.801 1172.3 227.801ZM1184.95 227.829C1184.26 227.829 1183.63 227.699 1183.07 227.438C1182.51 227.173 1182.06 226.792 1181.73 226.295C1181.4 225.793 1181.23 225.187 1181.23 224.477C1181.23 223.852 1181.36 223.345 1181.6 222.957C1181.85 222.564 1182.18 222.256 1182.59 222.033C1183 221.811 1183.46 221.645 1183.95 221.536C1184.45 221.423 1184.96 221.333 1185.46 221.266C1186.13 221.181 1186.67 221.117 1187.08 221.075C1187.49 221.027 1187.8 220.949 1187.99 220.84C1188.18 220.731 1188.28 220.542 1188.28 220.272V220.215C1188.28 219.515 1188.09 218.97 1187.7 218.582C1187.32 218.194 1186.75 217.999 1185.98 217.999C1185.18 217.999 1184.55 218.175 1184.09 218.525C1183.64 218.875 1183.32 219.249 1183.14 219.647L1181.54 219.079C1181.83 218.416 1182.21 217.9 1182.68 217.531C1183.16 217.157 1183.68 216.896 1184.24 216.749C1184.81 216.598 1185.37 216.522 1185.92 216.522C1186.27 216.522 1186.67 216.565 1187.13 216.65C1187.59 216.73 1188.03 216.899 1188.46 217.154C1188.89 217.41 1189.24 217.796 1189.53 218.312C1189.81 218.828 1189.95 219.519 1189.95 220.386V227.573H1188.28V226.096H1188.19C1188.08 226.333 1187.89 226.586 1187.62 226.856C1187.36 227.126 1187.01 227.355 1186.57 227.545C1186.13 227.734 1185.59 227.829 1184.95 227.829ZM1185.21 226.323C1185.87 226.323 1186.43 226.193 1186.89 225.933C1187.34 225.672 1187.69 225.336 1187.92 224.924C1188.16 224.512 1188.28 224.079 1188.28 223.624V222.09C1188.21 222.176 1188.05 222.254 1187.81 222.325C1187.57 222.391 1187.3 222.45 1186.98 222.502C1186.68 222.55 1186.38 222.592 1186.08 222.63C1185.79 222.663 1185.56 222.692 1185.38 222.715C1184.94 222.772 1184.54 222.864 1184.16 222.992C1183.78 223.115 1183.48 223.302 1183.25 223.553C1183.02 223.8 1182.91 224.136 1182.91 224.562C1182.91 225.144 1183.12 225.585 1183.55 225.883C1183.99 226.176 1184.54 226.323 1185.21 226.323ZM1197.39 221.011V227.573H1195.71V216.664H1197.33V218.369H1197.47C1197.73 217.815 1198.12 217.37 1198.64 217.033C1199.16 216.693 1199.83 216.522 1200.66 216.522C1201.39 216.522 1202.04 216.674 1202.6 216.977C1203.15 217.275 1203.58 217.729 1203.89 218.34C1204.2 218.946 1204.35 219.713 1204.35 220.641V227.573H1202.67V220.755C1202.67 219.898 1202.45 219.23 1202.01 218.752C1201.56 218.269 1200.95 218.028 1200.17 218.028C1199.64 218.028 1199.16 218.144 1198.74 218.376C1198.32 218.608 1197.99 218.946 1197.75 219.391C1197.51 219.836 1197.39 220.376 1197.39 221.011ZM1217.86 212.769V210.119H1231.78V212.769H1226.39V227.573H1223.25V212.769H1217.86ZM1240.87 210.119V227.573H1237.71V210.119H1240.87ZM1247.53 210.119H1251.4L1256.59 222.766H1256.79L1261.97 210.119H1265.84V227.573H1262.81V215.582H1262.65L1257.82 227.522H1255.55L1250.73 215.556H1250.57V227.573H1247.53V210.119ZM1282.01 214.917C1281.93 214.173 1281.6 213.593 1281 213.178C1280.42 212.764 1279.66 212.556 1278.72 212.556C1278.06 212.556 1277.5 212.656 1277.02 212.854C1276.55 213.053 1276.19 213.323 1275.94 213.664C1275.69 214.005 1275.56 214.394 1275.56 214.832C1275.56 215.195 1275.64 215.511 1275.81 215.778C1275.98 216.045 1276.21 216.272 1276.5 216.46C1276.79 216.641 1277.11 216.795 1277.46 216.92C1277.81 217.045 1278.17 217.15 1278.52 217.235L1280.16 217.644C1280.82 217.798 1281.45 218.005 1282.06 218.266C1282.67 218.528 1283.22 218.857 1283.71 219.255C1284.19 219.653 1284.58 220.133 1284.87 220.695C1285.15 221.258 1285.29 221.917 1285.29 222.673C1285.29 223.695 1285.03 224.596 1284.51 225.374C1283.98 226.147 1283.23 226.752 1282.24 227.19C1281.26 227.622 1280.07 227.837 1278.67 227.837C1277.31 227.837 1276.13 227.627 1275.13 227.207C1274.14 226.786 1273.36 226.173 1272.8 225.366C1272.24 224.559 1271.94 223.576 1271.89 222.417H1275C1275.05 223.025 1275.24 223.531 1275.57 223.934C1275.9 224.337 1276.33 224.639 1276.85 224.837C1277.39 225.036 1277.98 225.136 1278.64 225.136C1279.33 225.136 1279.93 225.033 1280.45 224.829C1280.97 224.619 1281.38 224.329 1281.68 223.96C1281.97 223.585 1282.12 223.147 1282.13 222.647C1282.12 222.193 1281.99 221.818 1281.73 221.522C1281.47 221.221 1281.1 220.971 1280.63 220.772C1280.16 220.568 1279.62 220.386 1278.99 220.227L1277.01 219.715C1275.57 219.346 1274.43 218.786 1273.6 218.036C1272.77 217.281 1272.35 216.278 1272.35 215.028C1272.35 213.999 1272.63 213.099 1273.19 212.326C1273.75 211.553 1274.52 210.954 1275.48 210.528C1276.45 210.096 1277.54 209.88 1278.76 209.88C1280 209.88 1281.09 210.096 1282.02 210.528C1282.96 210.954 1283.69 211.548 1284.23 212.309C1284.76 213.065 1285.04 213.934 1285.05 214.917H1282.01Z" fill="#0047FF"/>
<path d="M527.51 132.922C527.51 148.298 515.374 160.653 500.535 160.653C485.697 160.653 473.56 148.298 473.56 132.922C473.56 117.547 485.697 105.192 500.535 105.192C515.374 105.192 527.51 117.547 527.51 132.922Z" fill="white" stroke="#0047FF" stroke-width="5"/>
<circle cx="444.609" cy="77.7514" r="63.2514" fill="white" stroke="#0047FF" stroke-width="5"/>
<path d="M459.491 132.922C459.491 148.298 447.355 160.653 432.517 160.653C417.678 160.653 405.542 148.298 405.542 132.922C405.542 117.547 417.678 105.192 432.517 105.192C447.355 105.192 459.491 117.547 459.491 132.922Z" fill="white" stroke="#0047FF" stroke-width="5"/>
<path d="M445.888 64.1478C445.888 67.2856 445.06 70.0105 443.854 71.8745C442.631 73.7635 441.239 74.4958 440.074 74.4958C438.91 74.4958 437.517 73.7635 436.295 71.8745C435.088 70.0105 434.261 67.2856 434.261 64.1478C434.261 61.0099 435.088 58.285 436.295 56.421C437.517 54.5321 438.91 53.7998 440.074 53.7998C441.239 53.7998 442.631 54.5321 443.854 56.421C445.06 58.285 445.888 61.0099 445.888 64.1478Z" fill="#0047FF" stroke="#0047FF" stroke-width="5"/>
<path d="M487.687 64.1478C487.687 71.2435 483.965 76.9958 479.374 76.9958C474.782 76.9958 471.06 71.2435 471.06 64.1478C471.06 57.052 474.782 51.2998 479.374 51.2998C483.965 51.2998 487.687 57.052 487.687 64.1478Z" fill="#0047FF"/>
<path d="M487.687 64.1478C487.687 71.2435 483.965 76.9958 479.374 76.9958C474.782 76.9958 471.06 71.2435 471.06 64.1478C471.06 57.052 474.782 51.2998 479.374 51.2998C483.965 51.2998 487.687 57.052 487.687 64.1478Z" stroke="#0066FF"/>
<path d="M393.304 198.291H391.458L396.799 183.746H398.617L403.958 198.291H402.111L397.764 186.047H397.651L393.304 198.291ZM393.986 192.609H401.429V194.172H393.986V192.609ZM410.372 183.746V198.291H408.696V183.746H410.372ZM416.142 198.291V187.382H417.818V198.291H416.142ZM416.994 185.564C416.668 185.564 416.386 185.453 416.149 185.23C415.917 185.008 415.801 184.74 415.801 184.428C415.801 184.115 415.917 183.848 416.149 183.625C416.386 183.403 416.668 183.291 416.994 183.291C417.321 183.291 417.6 183.403 417.832 183.625C418.069 183.848 418.188 184.115 418.188 184.428C418.188 184.74 418.069 185.008 417.832 185.23C417.6 185.453 417.321 185.564 416.994 185.564ZM428.02 198.519C426.997 198.519 426.117 198.277 425.378 197.794C424.639 197.311 424.071 196.646 423.673 195.798C423.276 194.951 423.077 193.983 423.077 192.894C423.077 191.786 423.28 190.808 423.688 189.96C424.1 189.108 424.672 188.443 425.406 187.965C426.145 187.482 427.007 187.24 427.992 187.24C428.759 187.24 429.45 187.382 430.065 187.666C430.681 187.95 431.185 188.348 431.578 188.859C431.971 189.371 432.215 189.967 432.31 190.649H430.634C430.506 190.152 430.222 189.712 429.781 189.328C429.346 188.94 428.759 188.746 428.02 188.746C427.367 188.746 426.794 188.916 426.301 189.257C425.814 189.593 425.432 190.069 425.158 190.685C424.888 191.296 424.753 192.013 424.753 192.837C424.753 193.68 424.886 194.413 425.151 195.038C425.421 195.663 425.799 196.149 426.287 196.494C426.779 196.84 427.357 197.013 428.02 197.013C428.456 197.013 428.851 196.937 429.206 196.786C429.561 196.634 429.862 196.416 430.108 196.132C430.354 195.848 430.529 195.507 430.634 195.109H432.31C432.215 195.753 431.981 196.333 431.607 196.849C431.237 197.361 430.747 197.768 430.137 198.071C429.53 198.369 428.825 198.519 428.02 198.519ZM440.67 198.547C439.979 198.547 439.352 198.417 438.788 198.156C438.225 197.891 437.777 197.51 437.446 197.013C437.114 196.511 436.949 195.905 436.949 195.195C436.949 194.57 437.072 194.063 437.318 193.675C437.564 193.282 437.893 192.974 438.305 192.751C438.717 192.529 439.172 192.363 439.669 192.254C440.171 192.141 440.675 192.051 441.182 191.984C441.845 191.899 442.382 191.835 442.794 191.793C443.211 191.745 443.514 191.667 443.703 191.558C443.897 191.449 443.994 191.26 443.994 190.99V190.933C443.994 190.233 443.802 189.688 443.419 189.3C443.04 188.912 442.465 188.717 441.693 188.717C440.893 188.717 440.265 188.893 439.811 189.243C439.356 189.593 439.037 189.967 438.852 190.365L437.261 189.797C437.545 189.134 437.924 188.618 438.398 188.249C438.876 187.875 439.397 187.614 439.96 187.467C440.528 187.316 441.087 187.24 441.636 187.24C441.987 187.24 442.389 187.283 442.844 187.368C443.303 187.448 443.746 187.617 444.172 187.872C444.603 188.128 444.96 188.514 445.244 189.03C445.528 189.546 445.67 190.237 445.67 191.104V198.291H443.994V196.814H443.909C443.795 197.051 443.606 197.304 443.341 197.574C443.076 197.844 442.723 198.073 442.283 198.263C441.842 198.452 441.305 198.547 440.67 198.547ZM440.926 197.041C441.589 197.041 442.148 196.911 442.602 196.651C443.061 196.39 443.407 196.054 443.639 195.642C443.876 195.23 443.994 194.797 443.994 194.342V192.808C443.923 192.894 443.767 192.972 443.525 193.043C443.289 193.109 443.014 193.168 442.702 193.22C442.394 193.268 442.093 193.31 441.8 193.348C441.511 193.381 441.276 193.41 441.096 193.433C440.661 193.49 440.254 193.582 439.875 193.71C439.501 193.833 439.198 194.02 438.966 194.271C438.738 194.518 438.625 194.854 438.625 195.28C438.625 195.862 438.84 196.303 439.271 196.601C439.707 196.894 440.258 197.041 440.926 197.041ZM453.106 191.729V198.291H451.43V187.382H453.049V189.087H453.191C453.447 188.533 453.835 188.088 454.356 187.751C454.877 187.411 455.549 187.24 456.373 187.24C457.111 187.24 457.758 187.392 458.312 187.695C458.866 187.993 459.297 188.448 459.604 189.058C459.912 189.664 460.066 190.431 460.066 191.359V198.291H458.39V191.473C458.39 190.616 458.167 189.948 457.722 189.47C457.277 188.987 456.666 188.746 455.89 188.746C455.355 188.746 454.877 188.862 454.455 189.094C454.039 189.326 453.709 189.664 453.468 190.109C453.226 190.555 453.106 191.094 453.106 191.729ZM473.574 183.487V180.837H487.5V183.487H482.106V198.291H478.969V183.487H473.574ZM496.587 180.837V198.291H493.425V180.837H496.587ZM503.251 180.837H507.12L512.302 193.484H512.507L517.689 180.837H521.558V198.291H518.524V186.3H518.362L513.538 198.24H511.271L506.447 186.274H506.285V198.291H503.251V180.837ZM537.727 185.635C537.647 184.891 537.312 184.311 536.721 183.896C536.136 183.482 535.375 183.274 534.437 183.274C533.778 183.274 533.213 183.374 532.741 183.573C532.269 183.771 531.909 184.041 531.659 184.382C531.409 184.723 531.281 185.112 531.275 185.55C531.275 185.913 531.357 186.229 531.522 186.496C531.693 186.763 531.923 186.99 532.213 187.178C532.502 187.359 532.823 187.513 533.176 187.638C533.528 187.763 533.883 187.868 534.241 187.953L535.877 188.362C536.536 188.516 537.17 188.723 537.778 188.984C538.392 189.246 538.94 189.575 539.423 189.973C539.911 190.371 540.298 190.851 540.582 191.413C540.866 191.976 541.008 192.635 541.008 193.391C541.008 194.413 540.747 195.314 540.224 196.092C539.701 196.865 538.946 197.47 537.957 197.908C536.974 198.34 535.784 198.555 534.386 198.555C533.028 198.555 531.849 198.345 530.849 197.925C529.855 197.504 529.076 196.891 528.514 196.084C527.957 195.277 527.656 194.294 527.61 193.135H530.721C530.767 193.743 530.954 194.249 531.284 194.652C531.613 195.055 532.042 195.357 532.571 195.555C533.105 195.754 533.701 195.854 534.36 195.854C535.048 195.854 535.65 195.751 536.167 195.547C536.69 195.337 537.099 195.047 537.394 194.678C537.69 194.303 537.84 193.865 537.846 193.365C537.84 192.911 537.707 192.536 537.446 192.24C537.184 191.939 536.818 191.689 536.346 191.49C535.88 191.286 535.335 191.104 534.71 190.945L532.724 190.433C531.286 190.064 530.15 189.504 529.315 188.754C528.485 187.999 528.071 186.996 528.071 185.746C528.071 184.717 528.349 183.817 528.906 183.044C529.468 182.271 530.232 181.672 531.198 181.246C532.164 180.814 533.258 180.598 534.48 180.598C535.718 180.598 536.804 180.814 537.735 181.246C538.673 181.672 539.409 182.266 539.943 183.027C540.477 183.783 540.752 184.652 540.769 185.635H537.727Z" fill="#0047FF"/>
<path d="M971.51 120.922C971.51 136.298 959.374 148.653 944.535 148.653C929.697 148.653 917.56 136.298 917.56 120.922C917.56 105.547 929.697 93.1919 944.535 93.1919C959.374 93.1919 971.51 105.547 971.51 120.922Z" fill="white" stroke="#0047FF" stroke-width="5"/>
<circle cx="888.609" cy="65.7514" r="63.2514" fill="white" stroke="#0047FF" stroke-width="5"/>
<path d="M903.491 120.922C903.491 136.298 891.355 148.653 876.517 148.653C861.678 148.653 849.542 136.298 849.542 120.922C849.542 105.547 861.678 93.1919 876.517 93.1919C891.355 93.1919 903.491 105.547 903.491 120.922Z" fill="white" stroke="#0047FF" stroke-width="5"/>
<path d="M889.888 52.1478C889.888 55.2856 889.06 58.0105 887.854 59.8745C886.631 61.7635 885.239 62.4958 884.074 62.4958C882.91 62.4958 881.517 61.7635 880.295 59.8745C879.088 58.0105 878.261 55.2856 878.261 52.1478C878.261 49.0099 879.088 46.285 880.295 44.421C881.517 42.5321 882.91 41.7998 884.074 41.7998C885.239 41.7998 886.631 42.5321 887.854 44.421C889.06 46.285 889.888 49.0099 889.888 52.1478Z" fill="#0047FF" stroke="#0047FF" stroke-width="5"/>
<path d="M931.687 52.1478C931.687 59.2435 927.965 64.9958 923.374 64.9958C918.782 64.9958 915.06 59.2435 915.06 52.1478C915.06 45.052 918.782 39.2998 923.374 39.2998C927.965 39.2998 931.687 45.052 931.687 52.1478Z" fill="#0047FF"/>
<path d="M931.687 52.1478C931.687 59.2435 927.965 64.9958 923.374 64.9958C918.782 64.9958 915.06 59.2435 915.06 52.1478C915.06 45.052 918.782 39.2998 923.374 39.2998C927.965 39.2998 931.687 45.052 931.687 52.1478Z" stroke="#0066FF"/>
<path d="M837.304 186.291H835.458L840.799 171.746H842.617L847.958 186.291H846.111L841.764 174.047H841.651L837.304 186.291ZM837.986 180.609H845.429V182.172H837.986V180.609ZM854.372 171.746V186.291H852.696V171.746H854.372ZM860.142 186.291V175.382H861.818V186.291H860.142ZM860.994 173.564C860.668 173.564 860.386 173.453 860.149 173.23C859.917 173.008 859.801 172.74 859.801 172.428C859.801 172.115 859.917 171.848 860.149 171.625C860.386 171.403 860.668 171.291 860.994 171.291C861.321 171.291 861.6 171.403 861.832 171.625C862.069 171.848 862.188 172.115 862.188 172.428C862.188 172.74 862.069 173.008 861.832 173.23C861.6 173.453 861.321 173.564 860.994 173.564ZM872.02 186.519C870.997 186.519 870.117 186.277 869.378 185.794C868.639 185.311 868.071 184.646 867.673 183.798C867.276 182.951 867.077 181.983 867.077 180.894C867.077 179.786 867.28 178.808 867.688 177.96C868.1 177.108 868.672 176.443 869.406 175.965C870.145 175.482 871.007 175.24 871.992 175.24C872.759 175.24 873.45 175.382 874.065 175.666C874.681 175.95 875.185 176.348 875.578 176.859C875.971 177.371 876.215 177.967 876.31 178.649H874.634C874.506 178.152 874.222 177.712 873.781 177.328C873.346 176.94 872.759 176.746 872.02 176.746C871.367 176.746 870.794 176.916 870.301 177.257C869.814 177.593 869.432 178.069 869.158 178.685C868.888 179.296 868.753 180.013 868.753 180.837C868.753 181.68 868.886 182.413 869.151 183.038C869.421 183.663 869.799 184.149 870.287 184.494C870.779 184.84 871.357 185.013 872.02 185.013C872.456 185.013 872.851 184.937 873.206 184.786C873.561 184.634 873.862 184.416 874.108 184.132C874.354 183.848 874.529 183.507 874.634 183.109H876.31C876.215 183.753 875.981 184.333 875.607 184.849C875.237 185.361 874.747 185.768 874.137 186.071C873.53 186.369 872.825 186.519 872.02 186.519ZM884.67 186.547C883.979 186.547 883.352 186.417 882.788 186.156C882.225 185.891 881.777 185.51 881.446 185.013C881.114 184.511 880.949 183.905 880.949 183.195C880.949 182.57 881.072 182.063 881.318 181.675C881.564 181.282 881.893 180.974 882.305 180.751C882.717 180.529 883.172 180.363 883.669 180.254C884.171 180.141 884.675 180.051 885.182 179.984C885.845 179.899 886.382 179.835 886.794 179.793C887.211 179.745 887.514 179.667 887.703 179.558C887.897 179.449 887.994 179.26 887.994 178.99V178.933C887.994 178.233 887.802 177.688 887.419 177.3C887.04 176.912 886.465 176.717 885.693 176.717C884.893 176.717 884.265 176.893 883.811 177.243C883.356 177.593 883.037 177.967 882.852 178.365L881.261 177.797C881.545 177.134 881.924 176.618 882.398 176.249C882.876 175.875 883.397 175.614 883.96 175.467C884.528 175.316 885.087 175.24 885.636 175.24C885.987 175.24 886.389 175.283 886.844 175.368C887.303 175.448 887.746 175.617 888.172 175.872C888.603 176.128 888.96 176.514 889.244 177.03C889.528 177.546 889.67 178.237 889.67 179.104V186.291H887.994V184.814H887.909C887.795 185.051 887.606 185.304 887.341 185.574C887.076 185.844 886.723 186.073 886.283 186.263C885.842 186.452 885.305 186.547 884.67 186.547ZM884.926 185.041C885.589 185.041 886.148 184.911 886.602 184.651C887.061 184.39 887.407 184.054 887.639 183.642C887.876 183.23 887.994 182.797 887.994 182.342V180.808C887.923 180.894 887.767 180.972 887.525 181.043C887.289 181.109 887.014 181.168 886.702 181.22C886.394 181.268 886.093 181.31 885.8 181.348C885.511 181.381 885.276 181.41 885.096 181.433C884.661 181.49 884.254 181.582 883.875 181.71C883.501 181.833 883.198 182.02 882.966 182.271C882.738 182.518 882.625 182.854 882.625 183.28C882.625 183.862 882.84 184.303 883.271 184.601C883.707 184.894 884.258 185.041 884.926 185.041ZM897.106 179.729V186.291H895.43V175.382H897.049V177.087H897.191C897.447 176.533 897.835 176.088 898.356 175.751C898.877 175.411 899.549 175.24 900.373 175.24C901.111 175.24 901.758 175.392 902.312 175.695C902.866 175.993 903.297 176.448 903.604 177.058C903.912 177.664 904.066 178.431 904.066 179.359V186.291H902.39V179.473C902.39 178.616 902.167 177.948 901.722 177.47C901.277 176.987 900.666 176.746 899.89 176.746C899.355 176.746 898.877 176.862 898.455 177.094C898.039 177.326 897.709 177.664 897.468 178.109C897.226 178.555 897.106 179.094 897.106 179.729ZM917.574 171.487V168.837H931.5V171.487H926.106V186.291H922.969V171.487H917.574ZM940.587 168.837V186.291H937.425V168.837H940.587ZM947.251 168.837H951.12L956.302 181.484H956.507L961.689 168.837H965.558V186.291H962.524V174.3H962.362L957.538 186.24H955.271L950.447 174.274H950.285V186.291H947.251V168.837ZM981.727 173.635C981.647 172.891 981.312 172.311 980.721 171.896C980.136 171.482 979.375 171.274 978.437 171.274C977.778 171.274 977.213 171.374 976.741 171.573C976.269 171.771 975.909 172.041 975.659 172.382C975.409 172.723 975.281 173.112 975.275 173.55C975.275 173.913 975.357 174.229 975.522 174.496C975.693 174.763 975.923 174.99 976.213 175.178C976.502 175.359 976.823 175.513 977.176 175.638C977.528 175.763 977.883 175.868 978.241 175.953L979.877 176.362C980.536 176.516 981.17 176.723 981.778 176.984C982.392 177.246 982.94 177.575 983.423 177.973C983.911 178.371 984.298 178.851 984.582 179.413C984.866 179.976 985.008 180.635 985.008 181.391C985.008 182.413 984.747 183.314 984.224 184.092C983.701 184.865 982.946 185.47 981.957 185.908C980.974 186.34 979.784 186.555 978.386 186.555C977.028 186.555 975.849 186.345 974.849 185.925C973.855 185.504 973.076 184.891 972.514 184.084C971.957 183.277 971.656 182.294 971.61 181.135H974.721C974.767 181.743 974.954 182.249 975.284 182.652C975.613 183.055 976.042 183.357 976.571 183.555C977.105 183.754 977.701 183.854 978.36 183.854C979.048 183.854 979.65 183.751 980.167 183.547C980.69 183.337 981.099 183.047 981.394 182.678C981.69 182.303 981.84 181.865 981.846 181.365C981.84 180.911 981.707 180.536 981.446 180.24C981.184 179.939 980.818 179.689 980.346 179.49C979.88 179.286 979.335 179.104 978.71 178.945L976.724 178.433C975.286 178.064 974.15 177.504 973.315 176.754C972.485 175.999 972.071 174.996 972.071 173.746C972.071 172.717 972.349 171.817 972.906 171.044C973.468 170.271 974.232 169.672 975.198 169.246C976.164 168.814 977.258 168.598 978.48 168.598C979.718 168.598 980.804 168.814 981.735 169.246C982.673 169.672 983.409 170.266 983.943 171.027C984.477 171.783 984.752 172.652 984.769 173.635H981.727Z" fill="#0047FF"/>
<path d="M488.467 362.575C488.467 375.417 478.333 385.719 465.964 385.719C453.596 385.719 443.462 375.417 443.462 362.575C443.462 349.733 453.596 339.431 465.964 339.431C478.333 339.431 488.467 349.733 488.467 362.575Z" fill="white" stroke="#0047FF" stroke-width="5"/>
<circle cx="418.523" cy="315.775" r="53.2753" fill="white" stroke="#0047FF" stroke-width="5"/>
<path d="M430.768 362.575C430.768 375.417 420.634 385.719 408.266 385.719C395.897 385.719 385.763 375.417 385.763 362.575C385.763 349.733 395.897 339.431 408.266 339.431C420.634 339.431 430.768 349.733 430.768 362.575Z" fill="white" stroke="#0047FF" stroke-width="5"/>
<path d="M419.229 304.236C419.229 306.835 418.542 309.073 417.564 310.584C416.57 312.12 415.493 312.634 414.677 312.634C413.861 312.634 412.783 312.12 411.789 310.584C410.811 309.073 410.125 306.835 410.125 304.236C410.125 301.636 410.811 299.398 411.789 297.887C412.783 296.351 413.861 295.837 414.677 295.837C415.493 295.837 416.57 296.351 417.564 297.887C418.542 299.398 419.229 301.636 419.229 304.236Z" fill="#0047FF" stroke="#0047FF" stroke-width="5"/>
<path d="M455.066 304.236C455.066 310.255 451.908 315.134 448.014 315.134C444.119 315.134 440.962 310.255 440.962 304.236C440.962 298.216 444.119 293.337 448.014 293.337C451.908 293.337 455.066 298.216 455.066 304.236Z" fill="#0047FF"/>
<path d="M455.066 304.236C455.066 310.255 451.908 315.134 448.014 315.134C444.119 315.134 440.962 310.255 440.962 304.236C440.962 298.216 444.119 293.337 448.014 293.337C451.908 293.337 455.066 298.216 455.066 304.236Z" stroke="#0066FF"/>
<path d="M363.893 419.605H362.047L367.388 405.06H369.206L374.547 419.605H372.7L368.354 407.361H368.24L363.893 419.605ZM364.575 413.924H372.018V415.486H364.575V413.924ZM380.961 405.06V419.605H379.285V405.06H380.961ZM386.731 419.605V408.696H388.407V419.605H386.731ZM387.584 406.878C387.257 406.878 386.975 406.767 386.738 406.544C386.506 406.322 386.39 406.054 386.39 405.742C386.39 405.429 386.506 405.162 386.738 404.939C386.975 404.717 387.257 404.605 387.584 404.605C387.91 404.605 388.19 404.717 388.422 404.939C388.658 405.162 388.777 405.429 388.777 405.742C388.777 406.054 388.658 406.322 388.422 406.544C388.19 406.767 387.91 406.878 387.584 406.878ZM398.609 419.833C397.586 419.833 396.706 419.591 395.967 419.108C395.229 418.625 394.66 417.96 394.263 417.113C393.865 416.265 393.666 415.297 393.666 414.208C393.666 413.1 393.87 412.122 394.277 411.275C394.689 410.422 395.262 409.757 395.996 409.279C396.734 408.796 397.596 408.554 398.581 408.554C399.348 408.554 400.039 408.696 400.655 408.98C401.27 409.265 401.774 409.662 402.167 410.174C402.56 410.685 402.804 411.282 402.899 411.963H401.223C401.095 411.466 400.811 411.026 400.371 410.642C399.935 410.254 399.348 410.06 398.609 410.06C397.956 410.06 397.383 410.23 396.89 410.571C396.403 410.908 396.022 411.383 395.747 411.999C395.477 412.61 395.342 413.327 395.342 414.151C395.342 414.994 395.475 415.728 395.74 416.353C396.01 416.978 396.389 417.463 396.876 417.809C397.369 418.154 397.946 418.327 398.609 418.327C399.045 418.327 399.44 418.251 399.795 418.1C400.15 417.948 400.451 417.73 400.697 417.446C400.943 417.162 401.119 416.821 401.223 416.424H402.899C402.804 417.068 402.57 417.648 402.196 418.164C401.827 418.675 401.336 419.082 400.726 419.385C400.12 419.684 399.414 419.833 398.609 419.833ZM411.26 419.861C410.568 419.861 409.941 419.731 409.377 419.471C408.814 419.205 408.367 418.824 408.035 418.327C407.704 417.825 407.538 417.219 407.538 416.509C407.538 415.884 407.661 415.377 407.907 414.989C408.153 414.596 408.483 414.288 408.894 414.066C409.306 413.843 409.761 413.677 410.258 413.569C410.76 413.455 411.264 413.365 411.771 413.299C412.434 413.213 412.971 413.15 413.383 413.107C413.8 413.06 414.103 412.981 414.292 412.873C414.486 412.764 414.583 412.574 414.583 412.304V412.248C414.583 411.547 414.392 411.002 414.008 410.614C413.629 410.226 413.054 410.032 412.282 410.032C411.482 410.032 410.855 410.207 410.4 410.557C409.946 410.908 409.626 411.282 409.441 411.679L407.85 411.111C408.135 410.448 408.513 409.932 408.987 409.563C409.465 409.189 409.986 408.928 410.549 408.782C411.117 408.63 411.676 408.554 412.225 408.554C412.576 408.554 412.978 408.597 413.433 408.682C413.892 408.763 414.335 408.931 414.761 409.186C415.192 409.442 415.549 409.828 415.833 410.344C416.117 410.86 416.26 411.551 416.26 412.418V419.605H414.583V418.128H414.498C414.385 418.365 414.195 418.618 413.93 418.888C413.665 419.158 413.312 419.388 412.872 419.577C412.431 419.766 411.894 419.861 411.26 419.861ZM411.515 418.355C412.178 418.355 412.737 418.225 413.191 417.965C413.651 417.704 413.996 417.368 414.228 416.956C414.465 416.544 414.583 416.111 414.583 415.657V414.123C414.512 414.208 414.356 414.286 414.115 414.357C413.878 414.423 413.603 414.482 413.291 414.534C412.983 414.582 412.682 414.624 412.389 414.662C412.1 414.695 411.866 414.724 411.686 414.748C411.25 414.804 410.843 414.897 410.464 415.025C410.09 415.148 409.787 415.335 409.555 415.586C409.328 415.832 409.214 416.168 409.214 416.594C409.214 417.176 409.429 417.617 409.86 417.915C410.296 418.209 410.848 418.355 411.515 418.355ZM423.695 413.043V419.605H422.019V408.696H423.638V410.401H423.78C424.036 409.847 424.424 409.402 424.945 409.066C425.466 408.725 426.138 408.554 426.962 408.554C427.701 408.554 428.347 408.706 428.901 409.009C429.455 409.307 429.886 409.762 430.194 410.373C430.501 410.979 430.655 411.746 430.655 412.674V419.605H428.979V412.787C428.979 411.93 428.756 411.263 428.311 410.784C427.866 410.301 427.256 410.06 426.479 410.06C425.944 410.06 425.466 410.176 425.044 410.408C424.628 410.64 424.299 410.979 424.057 411.424C423.816 411.869 423.695 412.408 423.695 413.043ZM444.163 404.801V402.151H458.09V404.801H452.695V419.605H449.558V404.801H444.163ZM467.176 402.151V419.605H464.014V402.151H467.176ZM473.84 402.151H477.71L482.891 414.799H483.096L488.278 402.151H492.147V419.605H489.113V407.614H488.951L484.127 419.554H481.86L477.036 407.588H476.874V419.605H473.84V402.151ZM508.316 406.949C508.236 406.205 507.901 405.625 507.31 405.211C506.725 404.796 505.964 404.588 505.026 404.588C504.367 404.588 503.802 404.688 503.33 404.887C502.859 405.086 502.498 405.355 502.248 405.696C501.998 406.037 501.87 406.426 501.864 406.864C501.864 407.228 501.947 407.543 502.111 407.81C502.282 408.077 502.512 408.304 502.802 408.492C503.092 408.674 503.413 408.827 503.765 408.952C504.117 409.077 504.472 409.182 504.83 409.267L506.467 409.676C507.126 409.83 507.759 410.037 508.367 410.299C508.981 410.56 509.529 410.89 510.012 411.287C510.501 411.685 510.887 412.165 511.171 412.728C511.455 413.29 511.597 413.949 511.597 414.705C511.597 415.728 511.336 416.628 510.813 417.407C510.29 418.179 509.535 418.784 508.546 419.222C507.563 419.654 506.373 419.87 504.975 419.87C503.617 419.87 502.438 419.659 501.438 419.239C500.444 418.819 499.665 418.205 499.103 417.398C498.546 416.591 498.245 415.608 498.2 414.449H501.31C501.356 415.057 501.543 415.563 501.873 415.966C502.202 416.37 502.631 416.671 503.16 416.87C503.694 417.069 504.29 417.168 504.95 417.168C505.637 417.168 506.239 417.066 506.756 416.861C507.279 416.651 507.688 416.361 507.984 415.992C508.279 415.617 508.43 415.179 508.435 414.679C508.43 414.225 508.296 413.85 508.035 413.554C507.773 413.253 507.407 413.003 506.935 412.804C506.469 412.6 505.924 412.418 505.299 412.259L503.313 411.748C501.876 411.378 500.739 410.819 499.904 410.069C499.075 409.313 498.66 408.31 498.66 407.06C498.66 406.032 498.938 405.131 499.495 404.358C500.057 403.586 500.822 402.986 501.788 402.56C502.753 402.128 503.847 401.912 505.069 401.912C506.307 401.912 507.393 402.128 508.325 402.56C509.262 402.986 509.998 403.58 510.532 404.341C511.066 405.097 511.342 405.966 511.359 406.949H508.316Z" fill="#0047FF"/>
<path d="M1375.5 326.676C1375.5 344.917 1361.09 359.595 1343.46 359.595C1325.83 359.595 1311.43 344.917 1311.43 326.676C1311.43 308.435 1325.83 293.757 1343.46 293.757C1361.09 293.757 1375.5 308.435 1375.5 326.676Z" fill="white" stroke="#0047FF" stroke-width="5"/>
<circle cx="1277.94" cy="262.037" r="74.5366" fill="white" stroke="#0047FF" stroke-width="5"/>
<path d="M1295.8 326.676C1295.8 344.917 1281.4 359.595 1263.77 359.595C1246.14 359.595 1231.73 344.917 1231.73 326.676C1231.73 308.435 1246.14 293.757 1263.77 293.757C1281.4 293.757 1295.8 308.435 1295.8 326.676Z" fill="white" stroke="#0047FF" stroke-width="5"/>
<path d="M1279.86 246.098C1279.86 249.845 1278.88 253.121 1277.41 255.384C1275.93 257.672 1274.18 258.651 1272.62 258.651C1271.06 258.651 1269.32 257.672 1267.83 255.384C1266.37 253.121 1265.38 249.845 1265.38 246.098C1265.38 242.351 1266.37 239.075 1267.83 236.812C1269.32 234.524 1271.06 233.545 1272.62 233.545C1274.18 233.545 1275.93 234.524 1277.41 236.812C1278.88 239.075 1279.86 242.351 1279.86 246.098Z" fill="#0047FF" stroke="#0047FF" stroke-width="5"/>
<path d="M1328.41 246.098C1328.41 254.411 1324.05 261.151 1318.67 261.151C1313.29 261.151 1308.93 254.411 1308.93 246.098C1308.93 237.784 1313.29 231.045 1318.67 231.045C1324.05 231.045 1328.41 237.784 1328.41 246.098Z" fill="#0047FF"/>
<path d="M1328.41 246.098C1328.41 254.411 1324.05 261.151 1318.67 261.151C1313.29 261.151 1308.93 254.411 1308.93 246.098C1308.93 237.784 1313.29 231.045 1318.67 231.045C1324.05 231.045 1328.41 237.784 1328.41 246.098Z" stroke="#0066FF"/>
<path d="M1230.39 401.347H1228.55L1233.89 386.802H1235.71L1241.05 401.347H1239.2L1234.85 389.103H1234.74L1230.39 401.347ZM1231.08 395.665H1238.52V397.228H1231.08V395.665ZM1247.46 386.802V401.347H1245.79V386.802H1247.46ZM1253.23 401.347V390.438H1254.91V401.347H1253.23ZM1254.08 388.62C1253.76 388.62 1253.48 388.509 1253.24 388.286C1253.01 388.064 1252.89 387.796 1252.89 387.484C1252.89 387.171 1253.01 386.904 1253.24 386.681C1253.48 386.458 1253.76 386.347 1254.08 386.347C1254.41 386.347 1254.69 386.458 1254.92 386.681C1255.16 386.904 1255.28 387.171 1255.28 387.484C1255.28 387.796 1255.16 388.064 1254.92 388.286C1254.69 388.509 1254.41 388.62 1254.08 388.62ZM1265.11 401.574C1264.09 401.574 1263.21 401.333 1262.47 400.85C1261.73 400.367 1261.16 399.702 1260.76 398.854C1260.36 398.007 1260.17 397.038 1260.17 395.949C1260.17 394.841 1260.37 393.864 1260.78 393.016C1261.19 392.164 1261.76 391.499 1262.5 391.02C1263.23 390.538 1264.1 390.296 1265.08 390.296C1265.85 390.296 1266.54 390.438 1267.15 390.722C1267.77 391.006 1268.27 391.404 1268.67 391.915C1269.06 392.427 1269.3 393.023 1269.4 393.705H1267.72C1267.6 393.208 1267.31 392.768 1266.87 392.384C1266.43 391.996 1265.85 391.802 1265.11 391.802C1264.46 391.802 1263.88 391.972 1263.39 392.313C1262.9 392.649 1262.52 393.125 1262.25 393.741C1261.98 394.351 1261.84 395.069 1261.84 395.893C1261.84 396.735 1261.97 397.469 1262.24 398.094C1262.51 398.719 1262.89 399.205 1263.38 399.55C1263.87 399.896 1264.45 400.069 1265.11 400.069C1265.54 400.069 1265.94 399.993 1266.3 399.841C1266.65 399.69 1266.95 399.472 1267.2 399.188C1267.44 398.904 1267.62 398.563 1267.72 398.165H1269.4C1269.3 398.809 1269.07 399.389 1268.7 399.905C1268.33 400.417 1267.84 400.824 1267.23 401.127C1266.62 401.425 1265.91 401.574 1265.11 401.574ZM1277.76 401.603C1277.07 401.603 1276.44 401.473 1275.88 401.212C1275.31 400.947 1274.87 400.566 1274.54 400.069C1274.2 399.567 1274.04 398.961 1274.04 398.251C1274.04 397.626 1274.16 397.119 1274.41 396.731C1274.65 396.338 1274.98 396.03 1275.39 395.807C1275.81 395.585 1276.26 395.419 1276.76 395.31C1277.26 395.197 1277.76 395.107 1278.27 395.04C1278.93 394.955 1279.47 394.891 1279.88 394.849C1280.3 394.801 1280.6 394.723 1280.79 394.614C1280.99 394.505 1281.08 394.316 1281.08 394.046V393.989C1281.08 393.288 1280.89 392.744 1280.51 392.356C1280.13 391.967 1279.55 391.773 1278.78 391.773C1277.98 391.773 1277.35 391.948 1276.9 392.299C1276.45 392.649 1276.13 393.023 1275.94 393.421L1274.35 392.853C1274.63 392.19 1275.01 391.674 1275.49 391.305C1275.96 390.931 1276.49 390.67 1277.05 390.523C1277.62 390.372 1278.18 390.296 1278.73 390.296C1279.08 390.296 1279.48 390.339 1279.93 390.424C1280.39 390.504 1280.83 390.672 1281.26 390.928C1281.69 391.184 1282.05 391.57 1282.33 392.086C1282.62 392.602 1282.76 393.293 1282.76 394.16V401.347H1281.08V399.87H1281C1280.88 400.107 1280.7 400.36 1280.43 400.63C1280.16 400.9 1279.81 401.129 1279.37 401.319C1278.93 401.508 1278.39 401.603 1277.76 401.603ZM1278.02 400.097C1278.68 400.097 1279.24 399.967 1279.69 399.707C1280.15 399.446 1280.5 399.11 1280.73 398.698C1280.96 398.286 1281.08 397.853 1281.08 397.398V395.864C1281.01 395.949 1280.86 396.028 1280.61 396.099C1280.38 396.165 1280.1 396.224 1279.79 396.276C1279.48 396.323 1279.18 396.366 1278.89 396.404C1278.6 396.437 1278.37 396.466 1278.19 396.489C1277.75 396.546 1277.34 396.638 1276.96 396.766C1276.59 396.889 1276.29 397.076 1276.05 397.327C1275.83 397.573 1275.71 397.91 1275.71 398.336C1275.71 398.918 1275.93 399.359 1276.36 399.657C1276.8 399.95 1277.35 400.097 1278.02 400.097ZM1290.19 394.785V401.347H1288.52V390.438H1290.14V392.143H1290.28C1290.54 391.589 1290.92 391.144 1291.44 390.807C1291.97 390.466 1292.64 390.296 1293.46 390.296C1294.2 390.296 1294.85 390.448 1295.4 390.751C1295.95 391.049 1296.39 391.503 1296.69 392.114C1297 392.72 1297.16 393.487 1297.16 394.415V401.347H1295.48V394.529C1295.48 393.672 1295.26 393.004 1294.81 392.526C1294.37 392.043 1293.76 391.802 1292.98 391.802C1292.44 391.802 1291.97 391.918 1291.54 392.15C1291.13 392.382 1290.8 392.72 1290.56 393.165C1290.32 393.61 1290.19 394.15 1290.19 394.785ZM1310.66 386.543V383.893H1324.59V386.543H1319.19V401.347H1316.06V386.543H1310.66ZM1333.68 383.893V401.347H1330.51V383.893H1333.68ZM1340.34 383.893H1344.21L1349.39 396.54H1349.6L1354.78 383.893H1358.65V401.347H1355.61V389.356H1355.45L1350.63 401.296H1348.36L1343.54 389.33H1343.37V401.347H1340.34V383.893ZM1374.82 388.691C1374.74 387.947 1374.4 387.367 1373.81 386.952C1373.23 386.538 1372.46 386.33 1371.53 386.33C1370.87 386.33 1370.3 386.43 1369.83 386.628C1369.36 386.827 1369 387.097 1368.75 387.438C1368.5 387.779 1368.37 388.168 1368.36 388.606C1368.36 388.969 1368.45 389.285 1368.61 389.552C1368.78 389.819 1369.01 390.046 1369.3 390.234C1369.59 390.415 1369.91 390.569 1370.26 390.694C1370.62 390.819 1370.97 390.924 1371.33 391.009L1372.97 391.418C1373.63 391.572 1374.26 391.779 1374.87 392.04C1375.48 392.302 1376.03 392.631 1376.51 393.029C1377 393.427 1377.39 393.907 1377.67 394.469C1377.96 395.032 1378.1 395.691 1378.1 396.447C1378.1 397.469 1377.84 398.37 1377.31 399.148C1376.79 399.921 1376.03 400.526 1375.05 400.964C1374.06 401.395 1372.87 401.611 1371.48 401.611C1370.12 401.611 1368.94 401.401 1367.94 400.981C1366.94 400.56 1366.17 399.947 1365.6 399.14C1365.05 398.333 1364.74 397.35 1364.7 396.191H1367.81C1367.86 396.799 1368.04 397.305 1368.37 397.708C1368.7 398.111 1369.13 398.413 1369.66 398.611C1370.19 398.81 1370.79 398.91 1371.45 398.91C1372.14 398.91 1372.74 398.807 1373.26 398.603C1373.78 398.393 1374.19 398.103 1374.48 397.734C1374.78 397.359 1374.93 396.921 1374.94 396.421C1374.93 395.966 1374.8 395.591 1374.53 395.296C1374.27 394.995 1373.91 394.745 1373.44 394.546C1372.97 394.341 1372.42 394.16 1371.8 394.001L1369.81 393.489C1368.38 393.12 1367.24 392.56 1366.4 391.81C1365.57 391.055 1365.16 390.052 1365.16 388.802C1365.16 387.773 1365.44 386.873 1365.99 386.1C1366.56 385.327 1367.32 384.728 1368.29 384.302C1369.25 383.87 1370.35 383.654 1371.57 383.654C1372.81 383.654 1373.89 383.87 1374.82 384.302C1375.76 384.728 1376.5 385.322 1377.03 386.083C1377.57 386.839 1377.84 387.708 1377.86 388.691H1374.82Z" fill="#0047FF"/>
<path d="M647.749 241.464C647.749 252.237 639.25 260.862 628.899 260.862C618.547 260.862 610.048 252.237 610.048 241.464C610.048 230.691 618.547 222.066 628.899 222.066C639.25 222.066 647.749 230.691 647.749 241.464Z" fill="white" stroke="#0047FF" stroke-width="5"/>
<circle cx="588.387" cy="201.5" r="45.1284" fill="white" stroke="#0047FF" stroke-width="5"/>
<path d="M598.479 241.464C598.479 252.237 589.98 260.862 579.628 260.862C569.276 260.862 560.777 252.237 560.777 241.464C560.777 230.691 569.276 222.066 579.628 222.066C589.98 222.066 598.479 230.691 598.479 241.464Z" fill="white" stroke="#0047FF" stroke-width="5"/>
<path d="M588.625 191.646C588.625 193.806 588.053 195.645 587.262 196.868C586.454 198.116 585.634 198.452 585.103 198.452C584.571 198.452 583.751 198.116 582.943 196.868C582.152 195.645 581.581 193.806 581.581 191.646C581.581 189.486 582.152 187.646 582.943 186.423C583.751 185.175 584.571 184.839 585.103 184.839C585.634 184.839 586.454 185.175 587.262 186.423C588.053 187.646 588.625 189.486 588.625 191.646Z" fill="#0047FF" stroke="#0047FF" stroke-width="5"/>
<path d="M619.592 191.646C619.592 196.786 616.896 200.952 613.57 200.952C610.244 200.952 607.548 196.786 607.548 191.646C607.548 186.506 610.244 182.339 613.57 182.339C616.896 182.339 619.592 186.506 619.592 191.646Z" fill="#0047FF"/>
<path d="M619.592 191.646C619.592 196.786 616.896 200.952 613.57 200.952C610.244 200.952 607.548 196.786 607.548 191.646C607.548 186.506 610.244 182.339 613.57 182.339C616.896 182.339 619.592 186.506 619.592 191.646Z" stroke="#0066FF"/>
<path d="M531.042 291.501H529.195L534.536 276.956H536.354L541.695 291.501H539.849L535.502 279.257H535.388L531.042 291.501ZM531.724 285.819H539.167V287.382H531.724V285.819ZM548.11 276.956V291.501H546.434V276.956H548.11ZM553.88 291.501V280.592H555.556V291.501H553.88ZM554.732 278.774C554.405 278.774 554.124 278.663 553.887 278.44C553.655 278.218 553.539 277.95 553.539 277.638C553.539 277.325 553.655 277.058 553.887 276.835C554.124 276.612 554.405 276.501 554.732 276.501C555.059 276.501 555.338 276.612 555.57 276.835C555.807 277.058 555.925 277.325 555.925 277.638C555.925 277.95 555.807 278.218 555.57 278.44C555.338 278.663 555.059 278.774 554.732 278.774ZM565.758 291.728C564.735 291.728 563.854 291.487 563.116 291.004C562.377 290.521 561.809 289.856 561.411 289.008C561.013 288.161 560.814 287.193 560.814 286.103C560.814 284.996 561.018 284.018 561.425 283.17C561.837 282.318 562.41 281.653 563.144 281.175C563.883 280.692 564.744 280.45 565.729 280.45C566.496 280.45 567.188 280.592 567.803 280.876C568.419 281.16 568.923 281.558 569.316 282.069C569.709 282.581 569.953 283.177 570.047 283.859H568.371C568.243 283.362 567.959 282.922 567.519 282.538C567.083 282.15 566.496 281.956 565.758 281.956C565.104 281.956 564.531 282.126 564.039 282.467C563.551 282.803 563.17 283.279 562.895 283.895C562.626 284.505 562.491 285.223 562.491 286.047C562.491 286.889 562.623 287.623 562.888 288.248C563.158 288.873 563.537 289.359 564.025 289.704C564.517 290.05 565.095 290.223 565.758 290.223C566.193 290.223 566.589 290.147 566.944 289.996C567.299 289.844 567.599 289.626 567.846 289.342C568.092 289.058 568.267 288.717 568.371 288.319H570.047C569.953 288.963 569.718 289.543 569.344 290.059C568.975 290.571 568.485 290.978 567.874 291.281C567.268 291.579 566.563 291.728 565.758 291.728ZM578.408 291.757C577.717 291.757 577.089 291.627 576.526 291.366C575.962 291.101 575.515 290.72 575.183 290.223C574.852 289.721 574.686 289.115 574.686 288.405C574.686 287.78 574.809 287.273 575.056 286.885C575.302 286.492 575.631 286.184 576.043 285.961C576.455 285.739 576.909 285.573 577.406 285.464C577.908 285.351 578.413 285.261 578.919 285.194C579.582 285.109 580.12 285.045 580.531 285.003C580.948 284.955 581.251 284.877 581.441 284.768C581.635 284.659 581.732 284.47 581.732 284.2V284.143C581.732 283.443 581.54 282.898 581.156 282.51C580.778 282.121 580.202 281.927 579.431 281.927C578.63 281.927 578.003 282.103 577.549 282.453C577.094 282.803 576.774 283.177 576.59 283.575L574.999 283.007C575.283 282.344 575.662 281.828 576.135 281.459C576.613 281.085 577.134 280.824 577.698 280.677C578.266 280.526 578.825 280.45 579.374 280.45C579.724 280.45 580.127 280.493 580.581 280.578C581.04 280.658 581.483 280.827 581.909 281.082C582.34 281.338 582.698 281.724 582.982 282.24C583.266 282.756 583.408 283.447 583.408 284.314V291.501H581.732V290.024H581.647C581.533 290.261 581.344 290.514 581.078 290.784C580.813 291.054 580.46 291.283 580.02 291.473C579.58 291.662 579.042 291.757 578.408 291.757ZM578.664 290.251C579.326 290.251 579.885 290.121 580.34 289.861C580.799 289.6 581.145 289.264 581.377 288.852C581.613 288.44 581.732 288.007 581.732 287.552V286.018C581.661 286.103 581.504 286.182 581.263 286.253C581.026 286.319 580.752 286.378 580.439 286.43C580.131 286.478 579.831 286.52 579.537 286.558C579.248 286.591 579.014 286.62 578.834 286.643C578.398 286.7 577.991 286.792 577.612 286.92C577.238 287.043 576.935 287.23 576.703 287.481C576.476 287.728 576.362 288.064 576.362 288.49C576.362 289.072 576.578 289.513 577.009 289.811C577.444 290.104 577.996 290.251 578.664 290.251ZM590.843 284.939V291.501H589.167V280.592H590.787V282.297H590.929C591.184 281.743 591.573 281.298 592.093 280.961C592.614 280.621 593.287 280.45 594.11 280.45C594.849 280.45 595.495 280.602 596.049 280.905C596.603 281.203 597.034 281.657 597.342 282.268C597.65 282.874 597.804 283.641 597.804 284.569V291.501H596.127V284.683C596.127 283.826 595.905 283.158 595.46 282.68C595.015 282.197 594.404 281.956 593.627 281.956C593.092 281.956 592.614 282.072 592.193 282.304C591.776 282.536 591.447 282.874 591.206 283.319C590.964 283.764 590.843 284.304 590.843 284.939ZM611.312 276.697V274.047H625.238V276.697H619.843V291.501H616.707V276.697H611.312ZM634.325 274.047V291.501H631.163V274.047H634.325ZM640.989 274.047H644.858L650.04 286.694H650.244L655.426 274.047H659.295V291.501H656.261V279.51H656.099L651.276 291.45H649.009L644.185 279.484H644.023V291.501H640.989V274.047ZM675.464 278.845C675.385 278.101 675.05 277.521 674.459 277.106C673.873 276.692 673.112 276.484 672.175 276.484C671.516 276.484 670.95 276.584 670.479 276.782C670.007 276.981 669.646 277.251 669.396 277.592C669.146 277.933 669.018 278.322 669.013 278.76C669.013 279.123 669.095 279.439 669.26 279.706C669.43 279.973 669.66 280.2 669.95 280.388C670.24 280.569 670.561 280.723 670.913 280.848C671.266 280.973 671.621 281.078 671.979 281.163L673.615 281.572C674.274 281.726 674.908 281.933 675.516 282.194C676.129 282.456 676.677 282.785 677.16 283.183C677.649 283.581 678.035 284.061 678.32 284.623C678.604 285.186 678.746 285.845 678.746 286.601C678.746 287.623 678.484 288.524 677.962 289.302C677.439 290.075 676.683 290.68 675.695 291.118C674.712 291.55 673.521 291.765 672.123 291.765C670.766 291.765 669.587 291.555 668.587 291.135C667.592 290.714 666.814 290.101 666.251 289.294C665.695 288.487 665.393 287.504 665.348 286.345H668.459C668.504 286.953 668.692 287.459 669.021 287.862C669.351 288.265 669.78 288.567 670.308 288.765C670.842 288.964 671.439 289.064 672.098 289.064C672.785 289.064 673.388 288.961 673.905 288.757C674.427 288.547 674.837 288.257 675.132 287.888C675.427 287.513 675.578 287.075 675.584 286.575C675.578 286.121 675.445 285.746 675.183 285.45C674.922 285.149 674.555 284.899 674.084 284.7C673.618 284.496 673.072 284.314 672.447 284.155L670.462 283.643C669.024 283.274 667.888 282.714 667.052 281.964C666.223 281.209 665.808 280.206 665.808 278.956C665.808 277.927 666.087 277.027 666.643 276.254C667.206 275.481 667.97 274.882 668.936 274.456C669.902 274.024 670.996 273.808 672.217 273.808C673.456 273.808 674.541 274.024 675.473 274.456C676.41 274.882 677.146 275.476 677.68 276.237C678.214 276.993 678.49 277.862 678.507 278.845H675.464Z" fill="#0047FF"/>
<path d="M1061.93 222.592C1061.93 233.366 1053.43 241.991 1043.08 241.991C1032.73 241.991 1024.23 233.366 1024.23 222.592C1024.23 211.819 1032.73 203.194 1043.08 203.194C1053.43 203.194 1061.93 211.819 1061.93 222.592Z" fill="white" stroke="#0047FF" stroke-width="5"/>
<circle cx="1002.57" cy="182.628" r="45.1284" fill="white" stroke="#0047FF" stroke-width="5"/>
<path d="M1012.66 222.592C1012.66 233.366 1004.16 241.991 993.811 241.991C983.46 241.991 974.961 233.366 974.961 222.592C974.961 211.819 983.46 203.194 993.811 203.194C1004.16 203.194 1012.66 211.819 1012.66 222.592Z" fill="white" stroke="#0047FF" stroke-width="5"/>
<path d="M1002.81 172.774C1002.81 174.934 1002.24 176.773 1001.45 177.997C1000.64 179.245 999.817 179.581 999.286 179.581C998.754 179.581 997.934 179.245 997.127 177.997C996.335 176.773 995.764 174.934 995.764 172.774C995.764 170.614 996.335 168.774 997.127 167.551C997.934 166.303 998.754 165.967 999.286 165.967C999.817 165.967 1000.64 166.303 1001.45 167.551C1002.24 168.774 1002.81 170.614 1002.81 172.774Z" fill="#0047FF" stroke="#0047FF" stroke-width="5"/>
<path d="M1033.78 172.774C1033.78 177.914 1031.08 182.081 1027.75 182.081C1024.43 182.081 1021.73 177.914 1021.73 172.774C1021.73 167.634 1024.43 163.467 1027.75 163.467C1031.08 163.467 1033.78 167.634 1033.78 172.774Z" fill="#0047FF"/>
<path d="M1033.78 172.774C1033.78 177.914 1031.08 182.081 1027.75 182.081C1024.43 182.081 1021.73 177.914 1021.73 172.774C1021.73 167.634 1024.43 163.467 1027.75 163.467C1031.08 163.467 1033.78 167.634 1033.78 172.774Z" stroke="#0066FF"/>
<path d="M945.225 272.63H943.378L948.719 258.084H950.537L955.878 272.63H954.032L949.685 260.385H949.572L945.225 272.63ZM945.907 266.948H953.35V268.51H945.907V266.948ZM962.293 258.084V272.63H960.617V258.084H962.293ZM968.063 272.63V261.721H969.739V272.63H968.063ZM968.915 259.902C968.588 259.902 968.307 259.791 968.07 259.569C967.838 259.346 967.722 259.079 967.722 258.766C967.722 258.454 967.838 258.186 968.07 257.963C968.307 257.741 968.588 257.63 968.915 257.63C969.242 257.63 969.521 257.741 969.753 257.963C969.99 258.186 970.108 258.454 970.108 258.766C970.108 259.079 969.99 259.346 969.753 259.569C969.521 259.791 969.242 259.902 968.915 259.902ZM979.941 272.857C978.918 272.857 978.037 272.615 977.299 272.132C976.56 271.65 975.992 270.984 975.594 270.137C975.196 269.289 974.998 268.321 974.998 267.232C974.998 266.124 975.201 265.146 975.608 264.299C976.02 263.446 976.593 262.781 977.327 262.303C978.066 261.82 978.927 261.579 979.912 261.579C980.679 261.579 981.371 261.721 981.986 262.005C982.602 262.289 983.106 262.686 983.499 263.198C983.892 263.709 984.136 264.306 984.23 264.988H982.554C982.427 264.49 982.142 264.05 981.702 263.667C981.266 263.278 980.679 263.084 979.941 263.084C979.287 263.084 978.714 263.255 978.222 263.596C977.734 263.932 977.353 264.408 977.079 265.023C976.809 265.634 976.674 266.351 976.674 267.175C976.674 268.018 976.806 268.752 977.071 269.377C977.341 270.002 977.72 270.487 978.208 270.833C978.7 271.178 979.278 271.351 979.941 271.351C980.376 271.351 980.772 271.275 981.127 271.124C981.482 270.972 981.783 270.755 982.029 270.471C982.275 270.186 982.45 269.846 982.554 269.448H984.23C984.136 270.092 983.901 270.672 983.527 271.188C983.158 271.699 982.668 272.106 982.057 272.409C981.451 272.708 980.746 272.857 979.941 272.857ZM992.591 272.885C991.9 272.885 991.272 272.755 990.709 272.495C990.145 272.23 989.698 271.848 989.367 271.351C989.035 270.849 988.869 270.243 988.869 269.533C988.869 268.908 988.993 268.401 989.239 268.013C989.485 267.62 989.814 267.312 990.226 267.09C990.638 266.867 991.092 266.702 991.59 266.593C992.091 266.479 992.596 266.389 993.102 266.323C993.765 266.238 994.303 266.174 994.715 266.131C995.131 266.084 995.434 266.006 995.624 265.897C995.818 265.788 995.915 265.598 995.915 265.329V265.272C995.915 264.571 995.723 264.026 995.34 263.638C994.961 263.25 994.386 263.056 993.614 263.056C992.814 263.056 992.186 263.231 991.732 263.581C991.277 263.932 990.957 264.306 990.773 264.704L989.182 264.135C989.466 263.472 989.845 262.956 990.318 262.587C990.797 262.213 991.317 261.953 991.881 261.806C992.449 261.654 993.008 261.579 993.557 261.579C993.907 261.579 994.31 261.621 994.764 261.706C995.224 261.787 995.666 261.955 996.092 262.211C996.523 262.466 996.881 262.852 997.165 263.368C997.449 263.884 997.591 264.576 997.591 265.442V272.63H995.915V271.152H995.83C995.716 271.389 995.527 271.642 995.261 271.912C994.996 272.182 994.644 272.412 994.203 272.601C993.763 272.791 993.225 272.885 992.591 272.885ZM992.847 271.38C993.51 271.38 994.068 271.249 994.523 270.989C994.982 270.729 995.328 270.392 995.56 269.98C995.797 269.569 995.915 269.135 995.915 268.681V267.147C995.844 267.232 995.688 267.31 995.446 267.381C995.209 267.447 994.935 267.507 994.622 267.559C994.314 267.606 994.014 267.649 993.72 267.686C993.431 267.72 993.197 267.748 993.017 267.772C992.582 267.829 992.174 267.921 991.796 268.049C991.422 268.172 991.118 268.359 990.886 268.61C990.659 268.856 990.546 269.192 990.546 269.618C990.546 270.201 990.761 270.641 991.192 270.939C991.627 271.233 992.179 271.38 992.847 271.38ZM1005.03 266.067V272.63H1003.35V261.721H1004.97V263.425H1005.11C1005.37 262.871 1005.76 262.426 1006.28 262.09C1006.8 261.749 1007.47 261.579 1008.29 261.579C1009.03 261.579 1009.68 261.73 1010.23 262.033C1010.79 262.331 1011.22 262.786 1011.53 263.397C1011.83 264.003 1011.99 264.77 1011.99 265.698V272.63H1010.31V265.811C1010.31 264.954 1010.09 264.287 1009.64 263.809C1009.2 263.326 1008.59 263.084 1007.81 263.084C1007.28 263.084 1006.8 263.2 1006.38 263.432C1005.96 263.664 1005.63 264.003 1005.39 264.448C1005.15 264.893 1005.03 265.433 1005.03 266.067ZM1025.49 257.826V255.175H1039.42V257.826H1034.03V272.63H1030.89V257.826H1025.49ZM1048.51 255.175V272.63H1045.35V255.175H1048.51ZM1055.17 255.175H1059.04L1064.22 267.823H1064.43L1069.61 255.175H1073.48V272.63H1070.44V260.638H1070.28L1065.46 272.579H1063.19L1058.37 260.613H1058.21V272.63H1055.17V255.175ZM1089.65 259.973C1089.57 259.229 1089.23 258.65 1088.64 258.235C1088.06 257.82 1087.3 257.613 1086.36 257.613C1085.7 257.613 1085.13 257.712 1084.66 257.911C1084.19 258.11 1083.83 258.38 1083.58 258.721C1083.33 259.061 1083.2 259.451 1083.2 259.888C1083.2 260.252 1083.28 260.567 1083.44 260.834C1083.61 261.101 1083.84 261.329 1084.13 261.516C1084.42 261.698 1084.74 261.851 1085.1 261.976C1085.45 262.101 1085.8 262.206 1086.16 262.292L1087.8 262.701C1088.46 262.854 1089.09 263.061 1089.7 263.323C1090.31 263.584 1090.86 263.914 1091.34 264.311C1091.83 264.709 1092.22 265.189 1092.5 265.752C1092.79 266.314 1092.93 266.973 1092.93 267.729C1092.93 268.752 1092.67 269.652 1092.14 270.431C1091.62 271.204 1090.87 271.809 1089.88 272.246C1088.89 272.678 1087.7 272.894 1086.31 272.894C1084.95 272.894 1083.77 272.684 1082.77 272.263C1081.78 271.843 1081 271.229 1080.43 270.422C1079.88 269.615 1079.58 268.632 1079.53 267.473H1082.64C1082.69 268.081 1082.87 268.587 1083.2 268.99C1083.53 269.394 1083.96 269.695 1084.49 269.894C1085.03 270.093 1085.62 270.192 1086.28 270.192C1086.97 270.192 1087.57 270.09 1088.09 269.885C1088.61 269.675 1089.02 269.385 1089.32 269.016C1089.61 268.641 1089.76 268.204 1089.77 267.704C1089.76 267.249 1089.63 266.874 1089.37 266.579C1089.1 266.277 1088.74 266.027 1088.27 265.829C1087.8 265.624 1087.26 265.442 1086.63 265.283L1084.64 264.772C1083.21 264.402 1082.07 263.843 1081.24 263.093C1080.41 262.337 1079.99 261.334 1079.99 260.084C1079.99 259.056 1080.27 258.155 1080.83 257.382C1081.39 256.61 1082.15 256.01 1083.12 255.584C1084.09 255.152 1085.18 254.936 1086.4 254.936C1087.64 254.936 1088.72 255.152 1089.66 255.584C1090.59 256.01 1091.33 256.604 1091.86 257.365C1092.4 258.121 1092.67 258.99 1092.69 259.973H1089.65Z" fill="#0047FF"/>
<path d="M137.102 293.832C137.102 304.51 128.768 313.015 118.672 313.015C108.577 313.015 100.243 304.51 100.243 293.832C100.243 283.154 108.577 274.649 118.672 274.649C128.768 274.649 137.102 283.154 137.102 293.832Z" fill="white" stroke="#0047FF" stroke-width="5"/>
<path d="M123.149 254.261C123.149 278.949 103.341 298.92 78.9605 298.92C54.5796 298.92 34.7722 278.949 34.7722 254.261C34.7722 229.572 54.5796 209.601 78.9605 209.601C103.341 209.601 123.149 229.572 123.149 254.261Z" fill="white" stroke="#0047FF" stroke-width="5"/>
<path d="M88.8033 293.832C88.8033 304.51 80.4696 313.015 70.374 313.015C60.2784 313.015 51.9448 304.51 51.9448 293.832C51.9448 283.154 60.2784 274.649 70.374 274.649C80.4696 274.649 88.8033 283.154 88.8033 293.832Z" fill="white" stroke="#0047FF" stroke-width="5"/>
<path d="M79.1438 244.504C79.1438 246.643 78.5834 248.464 77.8097 249.671C77.0182 250.907 76.2275 251.219 75.7406 251.219C75.2538 251.219 74.4631 250.907 73.6716 249.671C72.8979 248.464 72.3375 246.643 72.3375 244.504C72.3375 242.364 72.8979 240.544 73.6716 239.336C74.4631 238.101 75.2538 237.789 75.7406 237.789C76.2275 237.789 77.0182 238.101 77.8097 239.336C78.5834 240.544 79.1438 242.364 79.1438 244.504Z" fill="#0047FF" stroke="#0047FF" stroke-width="5"/>
<path d="M109.549 244.504C109.549 249.593 106.906 253.719 103.646 253.719C100.386 253.719 97.7432 249.593 97.7432 244.504C97.7432 239.415 100.386 235.289 103.646 235.289C106.906 235.289 109.549 239.415 109.549 244.504Z" fill="#0047FF"/>
<path d="M109.549 244.504C109.549 249.593 106.906 253.719 103.646 253.719C100.386 253.719 97.7432 249.593 97.7432 244.504C97.7432 239.415 100.386 235.289 103.646 235.289C106.906 235.289 109.549 239.415 109.549 244.504Z" stroke="#0066FF"/>
<path d="M21.3017 343.523H19.4551L24.796 328.978H26.6142L31.9551 343.523H30.1085L25.7619 331.279H25.6483L21.3017 343.523ZM21.9835 337.842H29.4267V339.404H21.9835V337.842ZM38.3696 328.978V343.523H36.6934V328.978H38.3696ZM44.1395 343.523V332.614H45.8157V343.523H44.1395ZM44.9918 330.796C44.6651 330.796 44.3834 330.685 44.1466 330.462C43.9146 330.24 43.7986 329.972 43.7986 329.66C43.7986 329.347 43.9146 329.08 44.1466 328.857C44.3834 328.635 44.6651 328.523 44.9918 328.523C45.3185 328.523 45.5979 328.635 45.8299 328.857C46.0666 329.08 46.185 329.347 46.185 329.66C46.185 329.972 46.0666 330.24 45.8299 330.462C45.5979 330.685 45.3185 330.796 44.9918 330.796ZM56.0174 343.751C54.9947 343.751 54.114 343.509 53.3754 343.026C52.6368 342.543 52.0686 341.878 51.6708 341.031C51.2731 340.183 51.0743 339.215 51.0743 338.126C51.0743 337.018 51.2779 336.04 51.6851 335.192C52.097 334.34 52.6699 333.675 53.4038 333.197C54.1424 332.714 55.0042 332.472 55.989 332.472C56.7561 332.472 57.4474 332.614 58.0629 332.898C58.6784 333.183 59.1827 333.58 59.5757 334.092C59.9687 334.603 60.2125 335.2 60.3072 335.881H58.6311C58.5032 335.384 58.2191 334.944 57.7788 334.56C57.3432 334.172 56.7561 333.978 56.0174 333.978C55.364 333.978 54.7911 334.148 54.2987 334.489C53.811 334.826 53.4298 335.301 53.1552 335.917C52.8853 336.528 52.7504 337.245 52.7504 338.069C52.7504 338.912 52.883 339.646 53.1481 340.271C53.418 340.896 53.7968 341.381 54.2845 341.727C54.7769 342.072 55.3546 342.245 56.0174 342.245C56.453 342.245 56.8484 342.169 57.2035 342.018C57.5586 341.866 57.8593 341.648 58.1055 341.364C58.3517 341.08 58.5269 340.739 58.6311 340.342H60.3072C60.2125 340.986 59.9781 341.566 59.6041 342.082C59.2348 342.593 58.7447 343 58.1339 343.303C57.5279 343.602 56.8224 343.751 56.0174 343.751ZM68.6677 343.779C67.9764 343.779 67.3491 343.649 66.7856 343.388C66.2222 343.123 65.7747 342.742 65.4433 342.245C65.1118 341.743 64.9461 341.137 64.9461 340.427C64.9461 339.802 65.0692 339.295 65.3154 338.907C65.5617 338.514 65.8907 338.206 66.3027 337.984C66.7146 337.761 67.1691 337.595 67.6663 337.487C68.1682 337.373 68.6725 337.283 69.1791 337.217C69.842 337.131 70.3794 337.067 70.7913 337.025C71.208 336.978 71.511 336.899 71.7004 336.79C71.8945 336.682 71.9916 336.492 71.9916 336.222V336.165C71.9916 335.465 71.7998 334.92 71.4163 334.532C71.0375 334.144 70.4622 333.95 69.6904 333.95C68.8903 333.95 68.2629 334.125 67.8083 334.475C67.3538 334.826 67.0342 335.2 66.8495 335.597L65.2586 335.029C65.5427 334.366 65.9215 333.85 66.395 333.481C66.8732 333.107 67.394 332.846 67.9575 332.7C68.5257 332.548 69.0844 332.472 69.6336 332.472C69.984 332.472 70.3865 332.515 70.841 332.6C71.3003 332.681 71.743 332.849 72.1691 333.104C72.6 333.36 72.9575 333.746 73.2416 334.262C73.5257 334.778 73.6677 335.469 73.6677 336.336V343.523H71.9916V342.046H71.9064C71.7927 342.283 71.6033 342.536 71.3382 342.806C71.073 343.076 70.7203 343.306 70.2799 343.495C69.8396 343.684 69.3022 343.779 68.6677 343.779ZM68.9234 342.273C69.5863 342.273 70.145 342.143 70.5995 341.883C71.0588 341.622 71.4045 341.286 71.6365 340.874C71.8732 340.462 71.9916 340.029 71.9916 339.575V338.04C71.9206 338.126 71.7643 338.204 71.5228 338.275C71.2861 338.341 71.0115 338.4 70.699 338.452C70.3912 338.5 70.0905 338.542 69.797 338.58C69.5082 338.613 69.2738 338.642 69.0939 338.665C68.6582 338.722 68.2511 338.815 67.8723 338.942C67.4982 339.066 67.1952 339.253 66.9632 339.504C66.7359 339.75 66.6223 340.086 66.6223 340.512C66.6223 341.094 66.8377 341.535 67.2686 341.833C67.7042 342.127 68.2558 342.273 68.9234 342.273ZM81.1032 336.961V343.523H79.427V332.614H81.0463V334.319H81.1884C81.4441 333.765 81.8323 333.32 82.3532 332.984C82.874 332.643 83.5463 332.472 84.3702 332.472C85.1088 332.472 85.7552 332.624 86.3091 332.927C86.8631 333.225 87.294 333.68 87.6017 334.29C87.9095 334.897 88.0634 335.664 88.0634 336.592V343.523H86.3873V336.705C86.3873 335.848 86.1647 335.181 85.7196 334.702C85.2746 334.219 84.6638 333.978 83.8873 333.978C83.3522 333.978 82.874 334.094 82.4526 334.326C82.0359 334.558 81.7069 334.897 81.4654 335.342C81.2239 335.787 81.1032 336.326 81.1032 336.961ZM101.572 328.719V326.069H115.498V328.719H110.103V343.523H106.967V328.719H101.572ZM124.584 326.069V343.523H121.422V326.069H124.584ZM131.248 326.069H135.118L140.3 338.717H140.504L145.686 326.069H149.555V343.523H146.521V331.532H146.359L141.535 343.472H139.268L134.444 331.506H134.283V343.523H131.248V326.069ZM165.724 330.867C165.645 330.123 165.309 329.543 164.719 329.129C164.133 328.714 163.372 328.506 162.434 328.506C161.775 328.506 161.21 328.606 160.738 328.805C160.267 329.004 159.906 329.273 159.656 329.614C159.406 329.955 159.278 330.344 159.273 330.782C159.273 331.146 159.355 331.461 159.52 331.728C159.69 331.995 159.92 332.222 160.21 332.41C160.5 332.592 160.821 332.745 161.173 332.87C161.525 332.995 161.88 333.1 162.238 333.185L163.875 333.594C164.534 333.748 165.167 333.955 165.775 334.217C166.389 334.478 166.937 334.808 167.42 335.205C167.909 335.603 168.295 336.083 168.579 336.646C168.863 337.208 169.005 337.867 169.005 338.623C169.005 339.646 168.744 340.546 168.221 341.325C167.699 342.097 166.943 342.702 165.954 343.14C164.971 343.572 163.781 343.788 162.383 343.788C161.025 343.788 159.846 343.577 158.846 343.157C157.852 342.737 157.074 342.123 156.511 341.316C155.954 340.509 155.653 339.526 155.608 338.367H158.719C158.764 338.975 158.952 339.481 159.281 339.884C159.611 340.288 160.04 340.589 160.568 340.788C161.102 340.987 161.699 341.086 162.358 341.086C163.045 341.086 163.648 340.984 164.165 340.779C164.687 340.569 165.096 340.279 165.392 339.91C165.687 339.535 165.838 339.097 165.844 338.597C165.838 338.143 165.704 337.768 165.443 337.472C165.182 337.171 164.815 336.921 164.344 336.722C163.878 336.518 163.332 336.336 162.707 336.177L160.721 335.665C159.284 335.296 158.148 334.737 157.312 333.987C156.483 333.231 156.068 332.228 156.068 330.978C156.068 329.95 156.346 329.049 156.903 328.276C157.466 327.504 158.23 326.904 159.196 326.478C160.162 326.046 161.255 325.83 162.477 325.83C163.716 325.83 164.801 326.046 165.733 326.478C166.67 326.904 167.406 327.498 167.94 328.259C168.474 329.015 168.75 329.884 168.767 330.867H165.724Z" fill="#0047FF"/>
<path d="M982.102 388.731C982.102 399.409 973.768 407.914 963.672 407.914C953.577 407.914 945.243 399.409 945.243 388.731C945.243 378.053 953.577 369.548 963.672 369.548C973.768 369.548 982.102 378.053 982.102 388.731Z" fill="white" stroke="#0047FF" stroke-width="5"/>
<path d="M968.149 349.16C968.149 373.848 948.341 393.819 923.961 393.819C899.58 393.819 879.772 373.848 879.772 349.16C879.772 324.471 899.58 304.5 923.961 304.5C948.341 304.5 968.149 324.471 968.149 349.16Z" fill="white" stroke="#0047FF" stroke-width="5"/>
<path d="M933.803 388.731C933.803 399.409 925.47 407.914 915.374 407.914C905.278 407.914 896.945 399.409 896.945 388.731C896.945 378.053 905.278 369.548 915.374 369.548C925.47 369.548 933.803 378.053 933.803 388.731Z" fill="white" stroke="#0047FF" stroke-width="5"/>
<path d="M924.144 339.403C924.144 341.542 923.583 343.363 922.81 344.57C922.018 345.806 921.227 346.118 920.741 346.118C920.254 346.118 919.463 345.806 918.672 344.57C917.898 343.363 917.338 341.542 917.338 339.403C917.338 337.263 917.898 335.443 918.672 334.235C919.463 333 920.254 332.688 920.741 332.688C921.227 332.688 922.018 333 922.81 334.235C923.583 335.443 924.144 337.263 924.144 339.403Z" fill="#0047FF" stroke="#0047FF" stroke-width="5"/>
<path d="M954.549 339.403C954.549 344.492 951.906 348.618 948.646 348.618C945.386 348.618 942.743 344.492 942.743 339.403C942.743 334.313 945.386 330.188 948.646 330.188C951.906 330.188 954.549 334.313 954.549 339.403Z" fill="#0047FF"/>
<path d="M954.549 339.403C954.549 344.492 951.906 348.618 948.646 348.618C945.386 348.618 942.743 344.492 942.743 339.403C942.743 334.313 945.386 330.188 948.646 330.188C951.906 330.188 954.549 334.313 954.549 339.403Z" stroke="#0066FF"/>
<path d="M866.302 438.422H864.455L869.796 423.877H871.614L876.955 438.422H875.108L870.762 426.178H870.648L866.302 438.422ZM866.983 432.741H874.427V434.303H866.983V432.741ZM883.37 423.877V438.422H881.693V423.877H883.37ZM889.14 438.422V427.513H890.816V438.422H889.14ZM889.992 425.695C889.665 425.695 889.383 425.584 889.147 425.361C888.915 425.139 888.799 424.871 888.799 424.559C888.799 424.246 888.915 423.979 889.147 423.756C889.383 423.534 889.665 423.422 889.992 423.422C890.319 423.422 890.598 423.534 890.83 423.756C891.067 423.979 891.185 424.246 891.185 424.559C891.185 424.871 891.067 425.139 890.83 425.361C890.598 425.584 890.319 425.695 889.992 425.695ZM901.017 438.65C899.995 438.65 899.114 438.408 898.375 437.925C897.637 437.442 897.069 436.777 896.671 435.929C896.273 435.082 896.074 434.114 896.074 433.025C896.074 431.917 896.278 430.939 896.685 430.091C897.097 429.239 897.67 428.574 898.404 428.096C899.142 427.613 900.004 427.371 900.989 427.371C901.756 427.371 902.447 427.513 903.063 427.797C903.678 428.081 904.183 428.479 904.576 428.991C904.969 429.502 905.213 430.098 905.307 430.78H903.631C903.503 430.283 903.219 429.843 902.779 429.459C902.343 429.071 901.756 428.877 901.017 428.877C900.364 428.877 899.791 429.047 899.299 429.388C898.811 429.724 898.43 430.2 898.155 430.816C897.885 431.427 897.75 432.144 897.75 432.968C897.75 433.811 897.883 434.545 898.148 435.17C898.418 435.795 898.797 436.28 899.284 436.625C899.777 436.971 900.355 437.144 901.017 437.144C901.453 437.144 901.848 437.068 902.204 436.917C902.559 436.765 902.859 436.547 903.106 436.263C903.352 435.979 903.527 435.638 903.631 435.241H905.307C905.213 435.884 904.978 436.465 904.604 436.981C904.235 437.492 903.745 437.899 903.134 438.202C902.528 438.5 901.822 438.65 901.017 438.65ZM913.668 438.678C912.976 438.678 912.349 438.548 911.786 438.287C911.222 438.022 910.775 437.641 910.443 437.144C910.112 436.642 909.946 436.036 909.946 435.326C909.946 434.701 910.069 434.194 910.315 433.806C910.562 433.413 910.891 433.105 911.303 432.883C911.715 432.66 912.169 432.494 912.666 432.385C913.168 432.272 913.672 432.182 914.179 432.116C914.842 432.03 915.379 431.966 915.791 431.924C916.208 431.876 916.511 431.798 916.7 431.689C916.895 431.581 916.992 431.391 916.992 431.121V431.064C916.992 430.364 916.8 429.819 916.416 429.431C916.038 429.043 915.462 428.848 914.69 428.848C913.89 428.848 913.263 429.024 912.808 429.374C912.354 429.724 912.034 430.098 911.85 430.496L910.259 429.928C910.543 429.265 910.922 428.749 911.395 428.38C911.873 428.006 912.394 427.745 912.957 427.598C913.526 427.447 914.084 427.371 914.634 427.371C914.984 427.371 915.386 427.414 915.841 427.499C916.3 427.58 916.743 427.748 917.169 428.003C917.6 428.259 917.957 428.645 918.242 429.161C918.526 429.677 918.668 430.368 918.668 431.235V438.422H916.992V436.945H916.906C916.793 437.182 916.603 437.435 916.338 437.705C916.073 437.975 915.72 438.205 915.28 438.394C914.84 438.583 914.302 438.678 913.668 438.678ZM913.923 437.172C914.586 437.172 915.145 437.042 915.6 436.782C916.059 436.521 916.404 436.185 916.636 435.773C916.873 435.361 916.992 434.928 916.992 434.473V432.939C916.921 433.025 916.764 433.103 916.523 433.174C916.286 433.24 916.011 433.299 915.699 433.351C915.391 433.399 915.091 433.441 914.797 433.479C914.508 433.512 914.274 433.541 914.094 433.564C913.658 433.621 913.251 433.714 912.872 433.841C912.498 433.965 912.195 434.152 911.963 434.402C911.736 434.649 911.622 434.985 911.622 435.411C911.622 435.993 911.838 436.434 912.269 436.732C912.704 437.026 913.256 437.172 913.923 437.172ZM926.103 431.86V438.422H924.427V427.513H926.046V429.218H926.188C926.444 428.664 926.832 428.219 927.353 427.883C927.874 427.542 928.546 427.371 929.37 427.371C930.109 427.371 930.755 427.523 931.309 427.826C931.863 428.124 932.294 428.579 932.602 429.189C932.91 429.795 933.063 430.563 933.063 431.491V438.422H931.387V431.604C931.387 430.747 931.165 430.08 930.72 429.601C930.275 429.118 929.664 428.877 928.887 428.877C928.352 428.877 927.874 428.993 927.453 429.225C927.036 429.457 926.707 429.795 926.465 430.241C926.224 430.686 926.103 431.225 926.103 431.86ZM946.572 423.618V420.968H960.498V423.618H955.103V438.422H951.967V423.618H946.572ZM969.584 420.968V438.422H966.422V420.968H969.584ZM976.248 420.968H980.118L985.3 433.616H985.504L990.686 420.968H994.555V438.422H991.521V426.431H991.359L986.535 438.371H984.268L979.444 426.405H979.283V438.422H976.248V420.968ZM1010.72 425.766C1010.64 425.022 1010.31 424.442 1009.72 424.027C1009.13 423.613 1008.37 423.405 1007.43 423.405C1006.78 423.405 1006.21 423.505 1005.74 423.704C1005.27 423.902 1004.91 424.172 1004.66 424.513C1004.41 424.854 1004.28 425.243 1004.27 425.681C1004.27 426.045 1004.35 426.36 1004.52 426.627C1004.69 426.894 1004.92 427.121 1005.21 427.309C1005.5 427.491 1005.82 427.644 1006.17 427.769C1006.53 427.894 1006.88 427.999 1007.24 428.084L1008.87 428.493C1009.53 428.647 1010.17 428.854 1010.78 429.116C1011.39 429.377 1011.94 429.706 1012.42 430.104C1012.91 430.502 1013.3 430.982 1013.58 431.545C1013.86 432.107 1014.01 432.766 1014.01 433.522C1014.01 434.545 1013.74 435.445 1013.22 436.223C1012.7 436.996 1011.94 437.601 1010.95 438.039C1009.97 438.471 1008.78 438.687 1007.38 438.687C1006.03 438.687 1004.85 438.476 1003.85 438.056C1002.85 437.635 1002.07 437.022 1001.51 436.215C1000.95 435.408 1000.65 434.425 1000.61 433.266H1003.72C1003.76 433.874 1003.95 434.38 1004.28 434.783C1004.61 435.187 1005.04 435.488 1005.57 435.687C1006.1 435.885 1006.7 435.985 1007.36 435.985C1008.05 435.985 1008.65 435.883 1009.16 435.678C1009.69 435.468 1010.1 435.178 1010.39 434.809C1010.69 434.434 1010.84 433.996 1010.84 433.496C1010.84 433.042 1010.7 432.667 1010.44 432.371C1010.18 432.07 1009.82 431.82 1009.34 431.621C1008.88 431.417 1008.33 431.235 1007.71 431.076L1005.72 430.564C1004.28 430.195 1003.15 429.635 1002.31 428.885C1001.48 428.13 1001.07 427.127 1001.07 425.877C1001.07 424.848 1001.35 423.948 1001.9 423.175C1002.47 422.402 1003.23 421.803 1004.2 421.377C1005.16 420.945 1006.26 420.729 1007.48 420.729C1008.72 420.729 1009.8 420.945 1010.73 421.377C1011.67 421.803 1012.41 422.397 1012.94 423.158C1013.47 423.914 1013.75 424.783 1013.77 425.766H1010.72Z" fill="#0047FF"/>
</svg>
