<svg width="30" height="30" viewBox="0 0 30 30" fill="none" xmlns="http://www.w3.org/2000/svg">
<circle cx="15" cy="15" r="15" fill="#0047FF"/>
<path d="M6 10.625V9.25781C6.02679 8.76302 6.22768 8.34635 6.60268 8.00781C6.97768 7.66927 7.41964 7.5 7.92857 7.5H9.85714V6.875C9.85714 6.35417 10.0446 5.91146 10.4196 5.54688C10.7946 5.18229 11.25 5 11.7857 5H18.2143C18.75 5 19.2054 5.18229 19.5804 5.54688C19.9554 5.91146 20.1429 6.35417 20.1429 6.875V7.5H22.0714C22.5804 7.5 23.0223 7.66927 23.3973 8.00781C23.7723 8.34635 23.9732 8.76302 24 9.25781V10.625C24 10.9635 23.8728 11.2565 23.6183 11.5039C23.3639 11.7513 23.0625 11.875 22.7143 11.875V22.5C22.7143 23.2031 22.4665 23.7956 21.971 24.2774C21.4755 24.7591 20.8661 25 20.1429 25H9.85714C9.13393 25 8.52455 24.7591 8.02901 24.2774C7.53347 23.7956 7.2857 23.2031 7.28571 22.5V11.875C6.9375 11.875 6.63616 11.7513 6.38169 11.5039C6.12722 11.2565 5.99999 10.9636 6 10.625ZM7.28571 10.625H22.7143V9.375C22.7143 9.19271 22.654 9.04297 22.5335 8.92577C22.4129 8.80858 22.2589 8.74998 22.0714 8.74998H7.92855C7.74105 8.74998 7.58703 8.80858 7.46649 8.92577C7.34594 9.04297 7.28567 9.19271 7.28567 9.375L7.28571 10.625ZM8.57143 22.5C8.57143 22.8385 8.69866 23.1315 8.95311 23.3789C9.20757 23.6263 9.50892 23.75 9.85714 23.75H20.1429C20.4911 23.75 20.7924 23.6263 21.0469 23.3789C21.3014 23.1315 21.4286 22.8386 21.4286 22.5V11.875H8.57143V22.5ZM9.85714 21.875V13.75C9.85714 13.5677 9.91741 13.418 10.038 13.3008C10.1585 13.1836 10.3125 13.125 10.5 13.125H11.7857C11.9732 13.125 12.1273 13.1836 12.2478 13.3008C12.3683 13.418 12.4286 13.5677 12.4286 13.75V21.875C12.4286 22.0573 12.3683 22.207 12.2478 22.3242C12.1273 22.4414 11.9732 22.5 11.7857 22.5H10.5C10.3125 22.5 10.1585 22.4414 10.038 22.3242C9.91741 22.207 9.85714 22.0573 9.85714 21.875ZM10.5 21.875H11.7857V13.75H10.5V21.875ZM11.1429 7.5H18.8571V6.875C18.8571 6.69271 18.7969 6.54297 18.6763 6.42577C18.5558 6.30858 18.4018 6.24998 18.2143 6.24998H11.7857C11.5982 6.24998 11.4442 6.30858 11.3236 6.42577C11.2031 6.54297 11.1428 6.69271 11.1428 6.875L11.1429 7.5ZM13.7143 21.875V13.75C13.7143 13.5677 13.7746 13.418 13.8951 13.3008C14.0156 13.1836 14.1697 13.125 14.3572 13.125H15.6429C15.8304 13.125 15.9844 13.1836 16.1049 13.3008C16.2255 13.418 16.2858 13.5677 16.2858 13.75V21.875C16.2858 22.0573 16.2255 22.207 16.1049 22.3242C15.9844 22.4414 15.8304 22.5 15.6429 22.5H14.3572C14.1697 22.5 14.0156 22.4414 13.8951 22.3242C13.7746 22.207 13.7143 22.0573 13.7143 21.875ZM14.3571 21.875H15.6429V13.75H14.3571V21.875ZM17.5714 21.875V13.75C17.5714 13.5677 17.6317 13.418 17.7522 13.3008C17.8728 13.1836 18.0268 13.125 18.2143 13.125H19.5C19.6875 13.125 19.8415 13.1836 19.9621 13.3008C20.0826 13.418 20.1429 13.5677 20.1429 13.75V21.875C20.1429 22.0573 20.0826 22.207 19.9621 22.3242C19.8415 22.4414 19.6875 22.5 19.5 22.5H18.2143C18.0268 22.5 17.8728 22.4414 17.7522 22.3242C17.6317 22.207 17.5714 22.0573 17.5714 21.875ZM18.2143 21.875H19.5V13.75H18.2143V21.875Z" fill="white"/>
</svg>
