<svg id="eCEswvgoMl71" xmlns="http://www.w3.org/2000/svg" xmlns:xlink="http://www.w3.org/1999/xlink" viewBox="0 0 500 500" shape-rendering="geometricPrecision" text-rendering="geometricPrecision">
<style><![CDATA[
#eCEswvgoMl72_ts {animation: eCEswvgoMl72_ts__ts 2000ms linear infinite normal forwards}@keyframes eCEswvgoMl72_ts__ts { 0% {transform: translate(254.796957px,391.970726px) scale(1,1)} 25% {transform: translate(254.796957px,391.970726px) scale(0.550225,1)} 50% {transform: translate(254.796957px,391.970726px) scale(1,1)} 75% {transform: translate(254.796957px,391.970726px) scale(0.550225,1)} 100% {transform: translate(254.796957px,391.970726px) scale(1,1)}} #eCEswvgoMl73_to {animation: eCEswvgoMl73_to__to 2000ms linear infinite normal forwards}@keyframes eCEswvgoMl73_to__to { 0% {transform: translate(311.440788px,322.602661px)} 25% {transform: translate(311.306912px,289.546398px)} 50% {transform: translate(311.306915px,322.602661px)} 75% {transform: translate(311.306916px,290.548104px)} 100% {transform: translate(310.39158px,322.602661px)}} #eCEswvgoMl74_to {animation: eCEswvgoMl74_to__to 2000ms linear infinite normal forwards}@keyframes eCEswvgoMl74_to__to { 0% {offset-distance: 0%;animation-timing-function: cubic-bezier(0.42,0,0.58,1)} 25% {offset-distance: 25%;animation-timing-function: cubic-bezier(0.42,0,0.58,1)} 50% {offset-distance: 50%;animation-timing-function: cubic-bezier(0.42,0,0.58,1)} 75% {offset-distance: 75%;animation-timing-function: cubic-bezier(0.42,0,0.58,1)} 100% {offset-distance: 100%}} #eCEswvgoMl713_to {animation: eCEswvgoMl713_to__to 2000ms linear infinite normal forwards}@keyframes eCEswvgoMl713_to__to { 0% {transform: translate(209.970662px,347.144431px)} 25% {transform: translate(210.885994px,314.088168px)} 50% {transform: translate(210.885997px,347.144431px)} 75% {transform: translate(210.885997px,315.089874px)} 100% {transform: translate(209.970662px,347.144431px)}}
]]></style>
<defs><filter id="eCEswvgoMl72-filter" x="-150%" width="400%" y="-150%" height="400%"><feGaussianBlur id="eCEswvgoMl72-filter-blur-0" stdDeviation="0,0" result="result"/></filter><filter id="eCEswvgoMl73-filter" x="-150%" width="400%" y="-150%" height="400%"><feGaussianBlur id="eCEswvgoMl73-filter-blur-0" stdDeviation="0,0" result="result"/></filter><filter id="eCEswvgoMl74-filter" x="-150%" width="400%" y="-150%" height="400%"><feGaussianBlur id="eCEswvgoMl74-filter-blur-0" stdDeviation="0,0" result="result"/></filter><filter id="eCEswvgoMl713-filter" x="-150%" width="400%" y="-150%" height="400%"><feGaussianBlur id="eCEswvgoMl713-filter-blur-0" stdDeviation="0,0" result="result"/></filter></defs><g id="eCEswvgoMl72_ts" transform="translate(254.796957,391.970726) scale(1,1)"><ellipse rx="161.274493" ry="16.528131" transform="translate(0,0)" filter="url(#eCEswvgoMl72-filter)" fill="#d2dbed" stroke-width="0"/></g><g id="eCEswvgoMl73_to" transform="translate(311.440788,322.602661)"><ellipse rx="44.826295" ry="44.826295" transform="translate(0,0)" filter="url(#eCEswvgoMl73-filter)" fill="#70964b" stroke="#212f73" stroke-width="8"/></g><g id="eCEswvgoMl74_to" style="offset-path:path('M250,250C250,250,250,199.914754,250,199.914754C250,199.914754,250,250,250,250C250,250,250,199.914754,250,199.914754C250,199.914754,250,250,250,250');offset-rotate:0deg"><g transform="translate(-216.857376,-258.9944)" filter="url(#eCEswvgoMl74-filter)"><ellipse rx="115.947345" ry="115.947345" transform="translate(194.444235 241.965413)" fill="#70964b" stroke="#212f73" stroke-width="8"/><ellipse rx="14.149082" ry="33.056262" transform="matrix(1 0 0 0.750634 264.149082 217.152259)" fill="#212f73" stroke-width="0"/><ellipse rx="14.149082" ry="33.056262" transform="matrix(1 0 0 0.750634 220.074065 225.186846)" fill="#212f73" stroke-width="0"/><path d="M227.586859,191.379292q49.19784,21.044461,47.383802,16.778567t-35.903054-29.713831l-11.480748,12.935264Z" transform="matrix(-.568222 0.937136-.759707-.460641 550.548236 51.594039)" fill="#70964b"/><path d="M227.586859,191.379292q49.19784,21.044461,47.383802,16.778567t-35.903054-29.713831l-11.480748,12.935264Z" transform="translate(-33.010919 4.222589)" fill="#70964b"/><path d="M209.970662,256.012848c0,.455137,17.616197,3.474995,17.616197,21.763518q0,18.288523-15.292375,39.224816" transform="translate(-31.732159 6.493778)" fill="none" stroke="#222e73" stroke-width="8" stroke-linecap="round"/><path d="M117.807108,262.103763q-44.144856-99.137266-11.231782-128.554915c32.913074-29.417649,176.567298-50.482101,190.71638-33.503641q14.149082,16.97846,0,49.756755-62.872069-2.444768-87.321044,15.548986c-24.448975,17.993754-36.888165,17.03394-30.66857,50.841494q6.219595,33.807554-61.494984,45.911321Z" transform="matrix(1.107556 0 0 1.041735-51.99194-.862414)" fill="#253324" stroke="#222e73" stroke-width="8"/><path d="M324.909564,241.0056q-8.22859,12.590974-8.22859,24.68087t8.22859,31.743829" transform="translate(-32.546005 5.476475)" fill="none" stroke="#222e73" stroke-width="8" stroke-linecap="round"/></g></g><g id="eCEswvgoMl713_to" transform="translate(209.970662,347.144431)"><ellipse rx="44.826295" ry="44.826295" transform="translate(0,0)" filter="url(#eCEswvgoMl713-filter)" fill="#70964b" stroke="#212f73" stroke-width="8"/></g></svg>
